<?xml version="1.0" encoding="utf-8" standalone="no"?>
<!DOCTYPE svg PUBLIC "-//W3C//DTD SVG 1.1//EN"
  "http://www.w3.org/Graphics/SVG/1.1/DTD/svg11.dtd">
<svg xmlns:xlink="http://www.w3.org/1999/xlink" width="421.660937pt" height="291.057422pt" viewBox="0 0 421.660937 291.057422" xmlns="http://www.w3.org/2000/svg" version="1.1">
 <metadata>
  <rdf:RDF xmlns:dc="http://purl.org/dc/elements/1.1/" xmlns:cc="http://creativecommons.org/ns#" xmlns:rdf="http://www.w3.org/1999/02/22-rdf-syntax-ns#">
   <cc:Work>
    <dc:type rdf:resource="http://purl.org/dc/dcmitype/StillImage"/>
    <dc:date>2026-04-17T16:00:25.414141</dc:date>
    <dc:format>image/svg+xml</dc:format>
    <dc:creator>
     <cc:Agent>
      <dc:title>Matplotlib v3.10.8, https://matplotlib.org/</dc:title>
     </cc:Agent>
    </dc:creator>
   </cc:Work>
  </rdf:RDF>
 </metadata>
 <defs>
  <style type="text/css">*{stroke-linejoin: round; stroke-linecap: butt}</style>
 </defs>
 <g id="figure_1">
  <g id="patch_1">
   <path d="M 0 291.057422 
L 421.660937 291.057422 
L 421.660937 0 
L 0 0 
z
" style="fill: #ffffff"/>
  </g>
  <g id="axes_1">
   <g id="patch_2">
    <path d="M 44.084688 255.197109 
L 415.900937 255.197109 
L 415.900937 21.738359 
L 44.084688 21.738359 
z
" style="fill: #ffffff"/>
   </g>
   <g id="line2d_1">
    <path d="M 399.000199 255.197109 
L 399.000199 21.738359 
" clip-path="url(#pa24222a344)" style="fill: none; stroke-dasharray: 2.59,1.12; stroke-dashoffset: 0; stroke: #999999; stroke-opacity: 0.5; stroke-width: 0.7"/>
   </g>
   <g id="line2d_2">
    <path d="M 60.985426 255.197109 
L 60.985426 21.738359 
" clip-path="url(#pa24222a344)" style="fill: none; stroke-dasharray: 0.8,1.32; stroke-dashoffset: 0; stroke: #000000; stroke-opacity: 0.35; stroke-width: 0.8"/>
   </g>
   <g id="line2d_3">
    <path d="M 190.226369 255.197109 
L 190.226369 21.738359 
" clip-path="url(#pa24222a344)" style="fill: none; stroke-dasharray: 0.8,1.32; stroke-dashoffset: 0; stroke: #1f5faa; stroke-opacity: 0.35; stroke-width: 0.8"/>
   </g>
   <g id="line2d_4">
    <path d="M 170.343147 255.197109 
L 170.343147 21.738359 
" clip-path="url(#pa24222a344)" style="fill: none; stroke-dasharray: 0.8,1.32; stroke-dashoffset: 0; stroke: #d47020; stroke-opacity: 0.35; stroke-width: 0.8"/>
   </g>
   <g id="matplotlib.axis_1">
    <g id="xtick_1">
     <g id="line2d_5">
      <path d="M 90.810259 255.197109 
L 90.810259 21.738359 
" clip-path="url(#pa24222a344)" style="fill: none; stroke: #aaaaaa; stroke-opacity: 0.4; stroke-width: 0.3; stroke-linecap: square"/>
     </g>
     <g id="line2d_6">
      <defs>
       <path id="m73a56ab9be" d="M 0 0 
L 0 3 
" style="stroke: #000000; stroke-width: 0.8"/>
      </defs>
      <g>
       <use xlink:href="#m73a56ab9be" x="90.810259" y="255.197109" style="stroke: #000000; stroke-width: 0.8"/>
      </g>
     </g>
     <g id="text_1">
      <!-- 10 -->
      <g transform="translate(85.084009 268.535703) scale(0.09 -0.09)">
       <defs>
        <path id="DejaVuSerif-31" d="M 909 0 
L 909 331 
L 1722 331 
L 1722 4213 
L 781 3603 
L 781 4013 
L 1919 4750 
L 2350 4750 
L 2350 331 
L 3163 331 
L 3163 0 
L 909 0 
z
" transform="scale(0.015625)"/>
        <path id="DejaVuSerif-30" d="M 2034 219 
Q 2513 219 2750 744 
Q 2988 1269 2988 2328 
Q 2988 3391 2750 3916 
Q 2513 4441 2034 4441 
Q 1556 4441 1318 3916 
Q 1081 3391 1081 2328 
Q 1081 1269 1318 744 
Q 1556 219 2034 219 
z
M 2034 -91 
Q 1275 -91 848 546 
Q 422 1184 422 2328 
Q 422 3475 848 4112 
Q 1275 4750 2034 4750 
Q 2797 4750 3222 4112 
Q 3647 3475 3647 2328 
Q 3647 1184 3222 546 
Q 2797 -91 2034 -91 
z
" transform="scale(0.015625)"/>
       </defs>
       <use xlink:href="#DejaVuSerif-31"/>
       <use xlink:href="#DejaVuSerif-30" transform="translate(63.623047 0)"/>
      </g>
     </g>
    </g>
    <g id="xtick_2">
     <g id="line2d_7">
      <path d="M 140.518314 255.197109 
L 140.518314 21.738359 
" clip-path="url(#pa24222a344)" style="fill: none; stroke: #aaaaaa; stroke-opacity: 0.4; stroke-width: 0.3; stroke-linecap: square"/>
     </g>
     <g id="line2d_8">
      <g>
       <use xlink:href="#m73a56ab9be" x="140.518314" y="255.197109" style="stroke: #000000; stroke-width: 0.8"/>
      </g>
     </g>
     <g id="text_2">
      <!-- 15 -->
      <g transform="translate(134.792064 268.535703) scale(0.09 -0.09)">
       <defs>
        <path id="DejaVuSerif-35" d="M 3219 4666 
L 3219 4153 
L 1081 4153 
L 1081 2816 
Q 1244 2928 1461 2984 
Q 1678 3041 1947 3041 
Q 2703 3041 3140 2622 
Q 3578 2203 3578 1478 
Q 3578 738 3136 323 
Q 2694 -91 1894 -91 
Q 1572 -91 1234 -12 
Q 897 66 544 225 
L 544 1131 
L 897 1131 
Q 925 688 1179 453 
Q 1434 219 1894 219 
Q 2388 219 2653 544 
Q 2919 869 2919 1478 
Q 2919 2084 2655 2407 
Q 2391 2731 1894 2731 
Q 1613 2731 1398 2631 
Q 1184 2531 1019 2322 
L 750 2322 
L 750 4666 
L 3219 4666 
z
" transform="scale(0.015625)"/>
       </defs>
       <use xlink:href="#DejaVuSerif-31"/>
       <use xlink:href="#DejaVuSerif-35" transform="translate(63.623047 0)"/>
      </g>
     </g>
    </g>
    <g id="xtick_3">
     <g id="line2d_9">
      <path d="M 190.226369 255.197109 
L 190.226369 21.738359 
" clip-path="url(#pa24222a344)" style="fill: none; stroke: #aaaaaa; stroke-opacity: 0.4; stroke-width: 0.3; stroke-linecap: square"/>
     </g>
     <g id="line2d_10">
      <g>
       <use xlink:href="#m73a56ab9be" x="190.226369" y="255.197109" style="stroke: #000000; stroke-width: 0.8"/>
      </g>
     </g>
     <g id="text_3">
      <!-- 20 -->
      <g transform="translate(184.500119 268.535703) scale(0.09 -0.09)">
       <defs>
        <path id="DejaVuSerif-32" d="M 819 3553 
L 469 3553 
L 469 4384 
Q 803 4563 1142 4656 
Q 1481 4750 1806 4750 
Q 2534 4750 2956 4397 
Q 3378 4044 3378 3438 
Q 3378 2753 2422 1800 
Q 2347 1728 2309 1691 
L 1131 513 
L 3078 513 
L 3078 1088 
L 3444 1088 
L 3444 0 
L 434 0 
L 434 341 
L 1850 1753 
Q 2319 2222 2519 2614 
Q 2719 3006 2719 3438 
Q 2719 3909 2473 4175 
Q 2228 4441 1797 4441 
Q 1350 4441 1106 4219 
Q 863 3997 819 3553 
z
" transform="scale(0.015625)"/>
       </defs>
       <use xlink:href="#DejaVuSerif-32"/>
       <use xlink:href="#DejaVuSerif-30" transform="translate(63.623047 0)"/>
      </g>
     </g>
    </g>
    <g id="xtick_4">
     <g id="line2d_11">
      <path d="M 239.934423 255.197109 
L 239.934423 21.738359 
" clip-path="url(#pa24222a344)" style="fill: none; stroke: #aaaaaa; stroke-opacity: 0.4; stroke-width: 0.3; stroke-linecap: square"/>
     </g>
     <g id="line2d_12">
      <g>
       <use xlink:href="#m73a56ab9be" x="239.934423" y="255.197109" style="stroke: #000000; stroke-width: 0.8"/>
      </g>
     </g>
     <g id="text_4">
      <!-- 25 -->
      <g transform="translate(234.208173 268.535703) scale(0.09 -0.09)">
       <use xlink:href="#DejaVuSerif-32"/>
       <use xlink:href="#DejaVuSerif-35" transform="translate(63.623047 0)"/>
      </g>
     </g>
    </g>
    <g id="xtick_5">
     <g id="line2d_13">
      <path d="M 289.642478 255.197109 
L 289.642478 21.738359 
" clip-path="url(#pa24222a344)" style="fill: none; stroke: #aaaaaa; stroke-opacity: 0.4; stroke-width: 0.3; stroke-linecap: square"/>
     </g>
     <g id="line2d_14">
      <g>
       <use xlink:href="#m73a56ab9be" x="289.642478" y="255.197109" style="stroke: #000000; stroke-width: 0.8"/>
      </g>
     </g>
     <g id="text_5">
      <!-- 30 -->
      <g transform="translate(283.916228 268.535703) scale(0.09 -0.09)">
       <defs>
        <path id="DejaVuSerif-33" d="M 622 4469 
Q 988 4606 1323 4678 
Q 1659 4750 1953 4750 
Q 2638 4750 3022 4454 
Q 3406 4159 3406 3634 
Q 3406 3213 3140 2930 
Q 2875 2647 2388 2547 
Q 2963 2466 3280 2130 
Q 3597 1794 3597 1259 
Q 3597 606 3158 257 
Q 2719 -91 1894 -91 
Q 1528 -91 1179 -12 
Q 831 66 488 225 
L 488 1131 
L 838 1131 
Q 869 681 1141 450 
Q 1413 219 1906 219 
Q 2384 219 2661 495 
Q 2938 772 2938 1253 
Q 2938 1803 2653 2086 
Q 2369 2369 1819 2369 
L 1522 2369 
L 1522 2688 
L 1678 2688 
Q 2225 2688 2498 2914 
Q 2772 3141 2772 3597 
Q 2772 4006 2547 4223 
Q 2322 4441 1900 4441 
Q 1478 4441 1245 4241 
Q 1013 4041 972 3647 
L 622 3647 
L 622 4469 
z
" transform="scale(0.015625)"/>
       </defs>
       <use xlink:href="#DejaVuSerif-33"/>
       <use xlink:href="#DejaVuSerif-30" transform="translate(63.623047 0)"/>
      </g>
     </g>
    </g>
    <g id="xtick_6">
     <g id="line2d_15">
      <path d="M 339.350533 255.197109 
L 339.350533 21.738359 
" clip-path="url(#pa24222a344)" style="fill: none; stroke: #aaaaaa; stroke-opacity: 0.4; stroke-width: 0.3; stroke-linecap: square"/>
     </g>
     <g id="line2d_16">
      <g>
       <use xlink:href="#m73a56ab9be" x="339.350533" y="255.197109" style="stroke: #000000; stroke-width: 0.8"/>
      </g>
     </g>
     <g id="text_6">
      <!-- 35 -->
      <g transform="translate(333.624283 268.535703) scale(0.09 -0.09)">
       <use xlink:href="#DejaVuSerif-33"/>
       <use xlink:href="#DejaVuSerif-35" transform="translate(63.623047 0)"/>
      </g>
     </g>
    </g>
    <g id="xtick_7">
     <g id="line2d_17">
      <path d="M 389.058588 255.197109 
L 389.058588 21.738359 
" clip-path="url(#pa24222a344)" style="fill: none; stroke: #aaaaaa; stroke-opacity: 0.4; stroke-width: 0.3; stroke-linecap: square"/>
     </g>
     <g id="line2d_18">
      <g>
       <use xlink:href="#m73a56ab9be" x="389.058588" y="255.197109" style="stroke: #000000; stroke-width: 0.8"/>
      </g>
     </g>
     <g id="text_7">
      <!-- 40 -->
      <g transform="translate(383.332338 268.535703) scale(0.09 -0.09)">
       <defs>
        <path id="DejaVuSerif-34" d="M 2234 1581 
L 2234 4063 
L 641 1581 
L 2234 1581 
z
M 3609 0 
L 1484 0 
L 1484 331 
L 2234 331 
L 2234 1247 
L 197 1247 
L 197 1588 
L 2241 4750 
L 2859 4750 
L 2859 1581 
L 3750 1581 
L 3750 1247 
L 2859 1247 
L 2859 331 
L 3609 331 
L 3609 0 
z
" transform="scale(0.015625)"/>
       </defs>
       <use xlink:href="#DejaVuSerif-34"/>
       <use xlink:href="#DejaVuSerif-30" transform="translate(63.623047 0)"/>
      </g>
     </g>
    </g>
    <g id="text_8">
     <!-- Budget $B$ -->
     <g transform="translate(204.362812 282.767422) scale(0.11 -0.11)">
      <defs>
       <path id="DejaVuSerif-42" d="M 1581 331 
L 2516 331 
Q 3078 331 3337 575 
Q 3597 819 3597 1350 
Q 3597 1878 3339 2120 
Q 3081 2363 2516 2363 
L 1581 2363 
L 1581 331 
z
M 1581 2694 
L 2375 2694 
Q 2888 2694 3123 2891 
Q 3359 3088 3359 3513 
Q 3359 3941 3123 4136 
Q 2888 4331 2375 4331 
L 1581 4331 
L 1581 2694 
z
M 353 0 
L 353 331 
L 947 331 
L 947 4331 
L 353 4331 
L 353 4666 
L 2656 4666 
Q 3363 4666 3720 4377 
Q 4078 4088 4078 3513 
Q 4078 3097 3829 2850 
Q 3581 2603 3103 2547 
Q 3697 2472 4005 2167 
Q 4313 1863 4313 1350 
Q 4313 656 3875 328 
Q 3438 0 2509 0 
L 353 0 
z
" transform="scale(0.015625)"/>
       <path id="DejaVuSerif-75" d="M 2266 3322 
L 3341 3322 
L 3341 331 
L 3884 331 
L 3884 0 
L 2766 0 
L 2766 588 
Q 2606 256 2353 82 
Q 2100 -91 1766 -91 
Q 1213 -91 952 223 
Q 691 538 691 1209 
L 691 2988 
L 172 2988 
L 172 3322 
L 1269 3322 
L 1269 1388 
Q 1269 781 1417 556 
Q 1566 331 1947 331 
Q 2347 331 2556 625 
Q 2766 919 2766 1478 
L 2766 2988 
L 2266 2988 
L 2266 3322 
z
" transform="scale(0.015625)"/>
       <path id="DejaVuSerif-64" d="M 3359 331 
L 3909 331 
L 3909 0 
L 2784 0 
L 2784 519 
Q 2616 206 2355 57 
Q 2094 -91 1709 -91 
Q 1097 -91 708 395 
Q 319 881 319 1663 
Q 319 2444 706 2928 
Q 1094 3413 1709 3413 
Q 2094 3413 2355 3264 
Q 2616 3116 2784 2803 
L 2784 4531 
L 2241 4531 
L 2241 4863 
L 3359 4863 
L 3359 331 
z
M 2784 1497 
L 2784 1825 
Q 2784 2422 2554 2737 
Q 2325 3053 1888 3053 
Q 1444 3053 1217 2703 
Q 991 2353 991 1663 
Q 991 975 1217 622 
Q 1444 269 1888 269 
Q 2325 269 2554 583 
Q 2784 897 2784 1497 
z
" transform="scale(0.015625)"/>
       <path id="DejaVuSerif-67" d="M 3359 2988 
L 3359 72 
Q 3359 -644 2965 -1033 
Q 2572 -1422 1844 -1422 
Q 1516 -1422 1216 -1362 
Q 916 -1303 641 -1184 
L 641 -488 
L 941 -488 
Q 997 -813 1206 -963 
Q 1416 -1113 1806 -1113 
Q 2313 -1113 2548 -827 
Q 2784 -541 2784 72 
L 2784 519 
Q 2616 206 2355 57 
Q 2094 -91 1709 -91 
Q 1097 -91 708 395 
Q 319 881 319 1663 
Q 319 2444 706 2928 
Q 1094 3413 1709 3413 
Q 2094 3413 2355 3264 
Q 2616 3116 2784 2803 
L 2784 3322 
L 3909 3322 
L 3909 2988 
L 3359 2988 
z
M 2784 1825 
Q 2784 2422 2554 2737 
Q 2325 3053 1888 3053 
Q 1444 3053 1217 2703 
Q 991 2353 991 1663 
Q 991 975 1217 622 
Q 1444 269 1888 269 
Q 2325 269 2554 583 
Q 2784 897 2784 1497 
L 2784 1825 
z
" transform="scale(0.015625)"/>
       <path id="DejaVuSerif-65" d="M 3469 1600 
L 991 1600 
L 991 1575 
Q 991 903 1244 561 
Q 1497 219 1991 219 
Q 2369 219 2611 417 
Q 2853 616 2950 1006 
L 3413 1006 
Q 3275 459 2904 184 
Q 2534 -91 1931 -91 
Q 1203 -91 761 389 
Q 319 869 319 1663 
Q 319 2450 753 2931 
Q 1188 3413 1894 3413 
Q 2647 3413 3050 2948 
Q 3453 2484 3469 1600 
z
M 2791 1931 
Q 2772 2513 2545 2808 
Q 2319 3103 1894 3103 
Q 1497 3103 1269 2806 
Q 1041 2509 991 1931 
L 2791 1931 
z
" transform="scale(0.015625)"/>
       <path id="DejaVuSerif-74" d="M 691 2988 
L 184 2988 
L 184 3322 
L 691 3322 
L 691 4353 
L 1269 4353 
L 1269 3322 
L 2350 3322 
L 2350 2988 
L 1269 2988 
L 1269 878 
Q 1269 456 1350 337 
Q 1431 219 1650 219 
Q 1875 219 1978 351 
Q 2081 484 2088 781 
L 2522 781 
Q 2497 328 2275 118 
Q 2053 -91 1600 -91 
Q 1103 -91 897 129 
Q 691 350 691 878 
L 691 2988 
z
" transform="scale(0.015625)"/>
       <path id="DejaVuSerif-20" transform="scale(0.015625)"/>
       <path id="DejaVuSans-Oblique-42" d="M 1081 4666 
L 2694 4666 
Q 3350 4666 3675 4422 
Q 4000 4178 4000 3688 
Q 4000 3238 3720 2911 
Q 3441 2584 2988 2516 
Q 3375 2428 3569 2181 
Q 3763 1934 3763 1522 
Q 3763 819 3242 409 
Q 2722 0 1819 0 
L 172 0 
L 1081 4666 
z
M 1234 2228 
L 903 519 
L 1919 519 
Q 2491 519 2800 781 
Q 3109 1044 3109 1522 
Q 3109 1891 2904 2059 
Q 2700 2228 2247 2228 
L 1234 2228 
z
M 1606 4147 
L 1331 2741 
L 2272 2741 
Q 2775 2741 3058 2959 
Q 3341 3178 3341 3566 
Q 3341 3869 3150 4008 
Q 2959 4147 2541 4147 
L 1606 4147 
z
" transform="scale(0.015625)"/>
      </defs>
      <use xlink:href="#DejaVuSerif-42" transform="translate(0 0.015625)"/>
      <use xlink:href="#DejaVuSerif-75" transform="translate(73.486328 0.015625)"/>
      <use xlink:href="#DejaVuSerif-64" transform="translate(137.890625 0.015625)"/>
      <use xlink:href="#DejaVuSerif-67" transform="translate(201.904297 0.015625)"/>
      <use xlink:href="#DejaVuSerif-65" transform="translate(265.917969 0.015625)"/>
      <use xlink:href="#DejaVuSerif-74" transform="translate(325.097656 0.015625)"/>
      <use xlink:href="#DejaVuSerif-20" transform="translate(365.283203 0.015625)"/>
      <use xlink:href="#DejaVuSans-Oblique-42" transform="translate(397.070312 0.015625)"/>
     </g>
    </g>
   </g>
   <g id="matplotlib.axis_2">
    <g id="ytick_1">
     <g id="line2d_19">
      <path d="M 44.084688 247.61728 
L 415.900937 247.61728 
" clip-path="url(#pa24222a344)" style="fill: none; stroke: #aaaaaa; stroke-opacity: 0.4; stroke-width: 0.3; stroke-linecap: square"/>
     </g>
     <g id="line2d_20">
      <defs>
       <path id="m680a718a67" d="M 0 0 
L -3 0 
" style="stroke: #000000; stroke-width: 0.8"/>
      </defs>
      <g>
       <use xlink:href="#m680a718a67" x="44.084688" y="247.61728" style="stroke: #000000; stroke-width: 0.8"/>
      </g>
     </g>
     <g id="text_9">
      <!-- 80 -->
      <g transform="translate(26.132188 251.036577) scale(0.09 -0.09)">
       <defs>
        <path id="DejaVuSerif-38" d="M 2981 1275 
Q 2981 1775 2732 2051 
Q 2484 2328 2034 2328 
Q 1584 2328 1336 2051 
Q 1088 1775 1088 1275 
Q 1088 772 1336 495 
Q 1584 219 2034 219 
Q 2484 219 2732 495 
Q 2981 772 2981 1275 
z
M 2853 3541 
Q 2853 3966 2637 4203 
Q 2422 4441 2034 4441 
Q 1650 4441 1433 4203 
Q 1216 3966 1216 3541 
Q 1216 3113 1433 2875 
Q 1650 2638 2034 2638 
Q 2422 2638 2637 2875 
Q 2853 3113 2853 3541 
z
M 2516 2484 
Q 3047 2413 3344 2092 
Q 3641 1772 3641 1275 
Q 3641 619 3225 264 
Q 2809 -91 2034 -91 
Q 1263 -91 845 264 
Q 428 619 428 1275 
Q 428 1772 725 2092 
Q 1022 2413 1556 2484 
Q 1084 2569 832 2842 
Q 581 3116 581 3541 
Q 581 4103 968 4426 
Q 1356 4750 2034 4750 
Q 2713 4750 3100 4426 
Q 3488 4103 3488 3541 
Q 3488 3116 3236 2842 
Q 2984 2569 2516 2484 
z
" transform="scale(0.015625)"/>
       </defs>
       <use xlink:href="#DejaVuSerif-38"/>
       <use xlink:href="#DejaVuSerif-30" transform="translate(63.623047 0)"/>
      </g>
     </g>
    </g>
    <g id="ytick_2">
     <g id="line2d_21">
      <path d="M 44.084688 217.297962 
L 415.900937 217.297962 
" clip-path="url(#pa24222a344)" style="fill: none; stroke: #aaaaaa; stroke-opacity: 0.4; stroke-width: 0.3; stroke-linecap: square"/>
     </g>
     <g id="line2d_22">
      <g>
       <use xlink:href="#m680a718a67" x="44.084688" y="217.297962" style="stroke: #000000; stroke-width: 0.8"/>
      </g>
     </g>
     <g id="text_10">
      <!-- 100 -->
      <g transform="translate(20.405938 220.717259) scale(0.09 -0.09)">
       <use xlink:href="#DejaVuSerif-31"/>
       <use xlink:href="#DejaVuSerif-30" transform="translate(63.623047 0)"/>
       <use xlink:href="#DejaVuSerif-30" transform="translate(127.246094 0)"/>
      </g>
     </g>
    </g>
    <g id="ytick_3">
     <g id="line2d_23">
      <path d="M 44.084688 186.978643 
L 415.900937 186.978643 
" clip-path="url(#pa24222a344)" style="fill: none; stroke: #aaaaaa; stroke-opacity: 0.4; stroke-width: 0.3; stroke-linecap: square"/>
     </g>
     <g id="line2d_24">
      <g>
       <use xlink:href="#m680a718a67" x="44.084688" y="186.978643" style="stroke: #000000; stroke-width: 0.8"/>
      </g>
     </g>
     <g id="text_11">
      <!-- 120 -->
      <g transform="translate(20.405938 190.39794) scale(0.09 -0.09)">
       <use xlink:href="#DejaVuSerif-31"/>
       <use xlink:href="#DejaVuSerif-32" transform="translate(63.623047 0)"/>
       <use xlink:href="#DejaVuSerif-30" transform="translate(127.246094 0)"/>
      </g>
     </g>
    </g>
    <g id="ytick_4">
     <g id="line2d_25">
      <path d="M 44.084688 156.659325 
L 415.900937 156.659325 
" clip-path="url(#pa24222a344)" style="fill: none; stroke: #aaaaaa; stroke-opacity: 0.4; stroke-width: 0.3; stroke-linecap: square"/>
     </g>
     <g id="line2d_26">
      <g>
       <use xlink:href="#m680a718a67" x="44.084688" y="156.659325" style="stroke: #000000; stroke-width: 0.8"/>
      </g>
     </g>
     <g id="text_12">
      <!-- 140 -->
      <g transform="translate(20.405938 160.078622) scale(0.09 -0.09)">
       <use xlink:href="#DejaVuSerif-31"/>
       <use xlink:href="#DejaVuSerif-34" transform="translate(63.623047 0)"/>
       <use xlink:href="#DejaVuSerif-30" transform="translate(127.246094 0)"/>
      </g>
     </g>
    </g>
    <g id="ytick_5">
     <g id="line2d_27">
      <path d="M 44.084688 126.340007 
L 415.900937 126.340007 
" clip-path="url(#pa24222a344)" style="fill: none; stroke: #aaaaaa; stroke-opacity: 0.4; stroke-width: 0.3; stroke-linecap: square"/>
     </g>
     <g id="line2d_28">
      <g>
       <use xlink:href="#m680a718a67" x="44.084688" y="126.340007" style="stroke: #000000; stroke-width: 0.8"/>
      </g>
     </g>
     <g id="text_13">
      <!-- 160 -->
      <g transform="translate(20.405938 129.759304) scale(0.09 -0.09)">
       <defs>
        <path id="DejaVuSerif-36" d="M 2094 219 
Q 2534 219 2771 542 
Q 3009 866 3009 1472 
Q 3009 2078 2771 2401 
Q 2534 2725 2094 2725 
Q 1647 2725 1412 2412 
Q 1178 2100 1178 1509 
Q 1178 888 1415 553 
Q 1653 219 2094 219 
z
M 1075 2569 
Q 1288 2803 1556 2918 
Q 1825 3034 2163 3034 
Q 2859 3034 3264 2615 
Q 3669 2197 3669 1472 
Q 3669 763 3233 336 
Q 2797 -91 2069 -91 
Q 1278 -91 853 498 
Q 428 1088 428 2181 
Q 428 3406 931 4078 
Q 1434 4750 2350 4750 
Q 2597 4750 2869 4703 
Q 3141 4656 3425 4563 
L 3425 3794 
L 3072 3794 
Q 3034 4109 2831 4275 
Q 2628 4441 2284 4441 
Q 1678 4441 1381 3981 
Q 1084 3522 1075 2569 
z
" transform="scale(0.015625)"/>
       </defs>
       <use xlink:href="#DejaVuSerif-31"/>
       <use xlink:href="#DejaVuSerif-36" transform="translate(63.623047 0)"/>
       <use xlink:href="#DejaVuSerif-30" transform="translate(127.246094 0)"/>
      </g>
     </g>
    </g>
    <g id="ytick_6">
     <g id="line2d_29">
      <path d="M 44.084688 96.020689 
L 415.900937 96.020689 
" clip-path="url(#pa24222a344)" style="fill: none; stroke: #aaaaaa; stroke-opacity: 0.4; stroke-width: 0.3; stroke-linecap: square"/>
     </g>
     <g id="line2d_30">
      <g>
       <use xlink:href="#m680a718a67" x="44.084688" y="96.020689" style="stroke: #000000; stroke-width: 0.8"/>
      </g>
     </g>
     <g id="text_14">
      <!-- 180 -->
      <g transform="translate(20.405938 99.439986) scale(0.09 -0.09)">
       <use xlink:href="#DejaVuSerif-31"/>
       <use xlink:href="#DejaVuSerif-38" transform="translate(63.623047 0)"/>
       <use xlink:href="#DejaVuSerif-30" transform="translate(127.246094 0)"/>
      </g>
     </g>
    </g>
    <g id="ytick_7">
     <g id="line2d_31">
      <path d="M 44.084688 65.701371 
L 415.900937 65.701371 
" clip-path="url(#pa24222a344)" style="fill: none; stroke: #aaaaaa; stroke-opacity: 0.4; stroke-width: 0.3; stroke-linecap: square"/>
     </g>
     <g id="line2d_32">
      <g>
       <use xlink:href="#m680a718a67" x="44.084688" y="65.701371" style="stroke: #000000; stroke-width: 0.8"/>
      </g>
     </g>
     <g id="text_15">
      <!-- 200 -->
      <g transform="translate(20.405938 69.120668) scale(0.09 -0.09)">
       <use xlink:href="#DejaVuSerif-32"/>
       <use xlink:href="#DejaVuSerif-30" transform="translate(63.623047 0)"/>
       <use xlink:href="#DejaVuSerif-30" transform="translate(127.246094 0)"/>
      </g>
     </g>
    </g>
    <g id="ytick_8">
     <g id="line2d_33">
      <path d="M 44.084688 35.382053 
L 415.900937 35.382053 
" clip-path="url(#pa24222a344)" style="fill: none; stroke: #aaaaaa; stroke-opacity: 0.4; stroke-width: 0.3; stroke-linecap: square"/>
     </g>
     <g id="line2d_34">
      <g>
       <use xlink:href="#m680a718a67" x="44.084688" y="35.382053" style="stroke: #000000; stroke-width: 0.8"/>
      </g>
     </g>
     <g id="text_16">
      <!-- 220 -->
      <g transform="translate(20.405938 38.801349) scale(0.09 -0.09)">
       <use xlink:href="#DejaVuSerif-32"/>
       <use xlink:href="#DejaVuSerif-32" transform="translate(63.623047 0)"/>
       <use xlink:href="#DejaVuSerif-30" transform="translate(127.246094 0)"/>
      </g>
     </g>
    </g>
    <g id="text_17">
     <!-- Total Cost -->
     <g transform="translate(14.118281 166.570156) rotate(-90) scale(0.11 -0.11)">
      <defs>
       <path id="DejaVuSerif-54" d="M 1222 0 
L 1222 331 
L 1819 331 
L 1819 4294 
L 447 4294 
L 447 3566 
L 63 3566 
L 63 4666 
L 4206 4666 
L 4206 3566 
L 3822 3566 
L 3822 4294 
L 2450 4294 
L 2450 331 
L 3047 331 
L 3047 0 
L 1222 0 
z
" transform="scale(0.015625)"/>
       <path id="DejaVuSerif-6f" d="M 1925 219 
Q 2388 219 2623 584 
Q 2859 950 2859 1663 
Q 2859 2375 2623 2739 
Q 2388 3103 1925 3103 
Q 1463 3103 1227 2739 
Q 991 2375 991 1663 
Q 991 950 1228 584 
Q 1466 219 1925 219 
z
M 1925 -91 
Q 1200 -91 759 389 
Q 319 869 319 1663 
Q 319 2456 758 2934 
Q 1197 3413 1925 3413 
Q 2653 3413 3092 2934 
Q 3531 2456 3531 1663 
Q 3531 869 3092 389 
Q 2653 -91 1925 -91 
z
" transform="scale(0.015625)"/>
       <path id="DejaVuSerif-61" d="M 2547 1044 
L 2547 1747 
L 1806 1747 
Q 1378 1747 1168 1562 
Q 959 1378 959 997 
Q 959 650 1171 447 
Q 1384 244 1747 244 
Q 2106 244 2326 466 
Q 2547 688 2547 1044 
z
M 3122 2075 
L 3122 331 
L 3634 331 
L 3634 0 
L 2547 0 
L 2547 359 
Q 2356 128 2106 18 
Q 1856 -91 1522 -91 
Q 969 -91 644 203 
Q 319 497 319 997 
Q 319 1513 691 1797 
Q 1063 2081 1741 2081 
L 2547 2081 
L 2547 2309 
Q 2547 2688 2317 2895 
Q 2088 3103 1672 3103 
Q 1328 3103 1125 2947 
Q 922 2791 872 2484 
L 575 2484 
L 575 3156 
Q 875 3284 1158 3348 
Q 1441 3413 1709 3413 
Q 2400 3413 2761 3070 
Q 3122 2728 3122 2075 
z
" transform="scale(0.015625)"/>
       <path id="DejaVuSerif-6c" d="M 1313 331 
L 1856 331 
L 1856 0 
L 184 0 
L 184 331 
L 738 331 
L 738 4531 
L 184 4531 
L 184 4863 
L 1313 4863 
L 1313 331 
z
" transform="scale(0.015625)"/>
       <path id="DejaVuSerif-43" d="M 4513 1234 
Q 4306 581 3820 245 
Q 3334 -91 2591 -91 
Q 2134 -91 1743 65 
Q 1353 222 1050 525 
Q 700 875 529 1320 
Q 359 1766 359 2328 
Q 359 3416 987 4083 
Q 1616 4750 2644 4750 
Q 3025 4750 3456 4650 
Q 3888 4550 4384 4347 
L 4384 3272 
L 4031 3272 
Q 3916 3859 3567 4137 
Q 3219 4416 2591 4416 
Q 1844 4416 1459 3886 
Q 1075 3356 1075 2328 
Q 1075 1303 1459 773 
Q 1844 244 2591 244 
Q 3113 244 3450 492 
Q 3788 741 3938 1234 
L 4513 1234 
z
" transform="scale(0.015625)"/>
       <path id="DejaVuSerif-73" d="M 359 184 
L 359 959 
L 691 959 
Q 703 588 923 403 
Q 1144 219 1575 219 
Q 1963 219 2166 364 
Q 2369 509 2369 788 
Q 2369 1006 2220 1140 
Q 2072 1275 1594 1428 
L 1178 1569 
Q 750 1706 558 1912 
Q 366 2119 366 2438 
Q 366 2894 700 3153 
Q 1034 3413 1625 3413 
Q 1888 3413 2178 3344 
Q 2469 3275 2778 3144 
L 2778 2419 
L 2447 2419 
Q 2434 2741 2221 2922 
Q 2009 3103 1644 3103 
Q 1281 3103 1095 2975 
Q 909 2847 909 2591 
Q 909 2381 1050 2254 
Q 1191 2128 1613 1997 
L 2069 1856 
Q 2541 1709 2748 1489 
Q 2956 1269 2956 922 
Q 2956 450 2595 179 
Q 2234 -91 1600 -91 
Q 1278 -91 972 -22 
Q 666 47 359 184 
z
" transform="scale(0.015625)"/>
      </defs>
      <use xlink:href="#DejaVuSerif-54"/>
      <use xlink:href="#DejaVuSerif-6f" transform="translate(58.949219 0)"/>
      <use xlink:href="#DejaVuSerif-74" transform="translate(119.154297 0)"/>
      <use xlink:href="#DejaVuSerif-61" transform="translate(159.339844 0)"/>
      <use xlink:href="#DejaVuSerif-6c" transform="translate(218.958984 0)"/>
      <use xlink:href="#DejaVuSerif-20" transform="translate(250.941406 0)"/>
      <use xlink:href="#DejaVuSerif-43" transform="translate(282.728516 0)"/>
      <use xlink:href="#DejaVuSerif-6f" transform="translate(359.242188 0)"/>
      <use xlink:href="#DejaVuSerif-73" transform="translate(419.447266 0)"/>
      <use xlink:href="#DejaVuSerif-74" transform="translate(470.765625 0)"/>
     </g>
    </g>
   </g>
   <g id="FillBetweenPolyCollection_1">
    <defs>
     <path id="m00307421cf" d="M 80.868648 -167.749347 
L 80.868648 -167.749347 
L 90.810259 -157.364652 
L 100.75187 -147.432765 
L 110.693481 -137.951652 
L 120.635092 -128.919229 
L 130.576703 -120.33335 
L 140.518314 -112.19181 
L 150.459925 -104.492336 
L 160.401536 -97.232582 
L 170.343147 -90.41013 
L 180.284758 -84.022476 
L 190.226369 -78.067029 
L 200.16798 -72.541102 
L 210.109591 -67.441904 
L 220.051202 -62.766528 
L 229.992812 -58.511944 
L 239.934423 -54.674982 
L 249.876034 -51.252322 
L 259.817645 -48.24047 
L 269.759256 -46.472074 
L 279.700867 -46.472074 
L 289.642478 -46.472074 
L 299.584089 -46.472074 
L 309.5257 -46.472074 
L 319.467311 -46.472074 
L 329.408922 -46.472074 
L 339.350533 -46.472074 
L 349.292144 -46.472074 
L 359.233755 -46.472074 
L 369.175366 -46.472074 
L 379.116977 -46.472074 
L 389.058588 -46.472074 
L 399.000199 -46.472074 
L 399.000199 -46.472074 
L 399.000199 -46.472074 
L 389.058588 -48.674962 
L 379.116977 -51.00782 
L 369.175366 -53.318293 
L 359.233755 -55.681101 
L 349.292144 -58.107896 
L 339.350533 -60.608153 
L 329.408922 -63.189914 
L 319.467311 -65.860204 
L 309.5257 -68.62528 
L 299.584089 -71.490801 
L 289.642478 -74.461939 
L 279.700867 -77.543469 
L 269.759256 -80.739827 
L 259.817645 -84.055164 
L 249.876034 -87.493382 
L 239.934423 -91.058164 
L 229.992812 -94.753004 
L 220.051202 -98.581223 
L 210.109591 -102.545989 
L 200.16798 -106.650335 
L 190.226369 -110.142642 
L 180.284758 -115.289273 
L 170.343147 -119.238438 
L 160.401536 -124.519969 
L 150.459925 -129.363651 
L 140.518314 -134.362812 
L 130.576703 -139.519794 
L 120.635092 -144.836871 
L 110.693481 -150.316249 
L 100.75187 -155.960073 
L 90.810259 -161.770428 
L 80.868648 -167.749347 
z
"/>
    </defs>
    <g clip-path="url(#pa24222a344)">
     <use xlink:href="#m00307421cf" x="0" y="291.057422" style="fill-opacity: 0.08"/>
    </g>
   </g>
   <g id="patch_3">
    <path d="M 44.084688 255.197109 
L 44.084688 21.738359 
" style="fill: none; stroke: #000000; stroke-width: 0.8; stroke-linejoin: miter; stroke-linecap: square"/>
   </g>
   <g id="patch_4">
    <path d="M 44.084688 255.197109 
L 415.900937 255.197109 
" style="fill: none; stroke: #000000; stroke-width: 0.8; stroke-linejoin: miter; stroke-linecap: square"/>
   </g>
   <g id="text_18">
    <!-- $B_{\mathrm{store\text{-}all}}$=41 -->
    <g style="fill: #777777" transform="translate(359.889393 221.265072) scale(0.06 -0.06)">
     <defs>
      <path id="DejaVuSans-73" d="M 2834 3397 
L 2834 2853 
Q 2591 2978 2328 3040 
Q 2066 3103 1784 3103 
Q 1356 3103 1142 2972 
Q 928 2841 928 2578 
Q 928 2378 1081 2264 
Q 1234 2150 1697 2047 
L 1894 2003 
Q 2506 1872 2764 1633 
Q 3022 1394 3022 966 
Q 3022 478 2636 193 
Q 2250 -91 1575 -91 
Q 1294 -91 989 -36 
Q 684 19 347 128 
L 347 722 
Q 666 556 975 473 
Q 1284 391 1588 391 
Q 1994 391 2212 530 
Q 2431 669 2431 922 
Q 2431 1156 2273 1281 
Q 2116 1406 1581 1522 
L 1381 1569 
Q 847 1681 609 1914 
Q 372 2147 372 2553 
Q 372 3047 722 3315 
Q 1072 3584 1716 3584 
Q 2034 3584 2315 3537 
Q 2597 3491 2834 3397 
z
" transform="scale(0.015625)"/>
      <path id="DejaVuSans-74" d="M 1172 4494 
L 1172 3500 
L 2356 3500 
L 2356 3053 
L 1172 3053 
L 1172 1153 
Q 1172 725 1289 603 
Q 1406 481 1766 481 
L 2356 481 
L 2356 0 
L 1766 0 
Q 1100 0 847 248 
Q 594 497 594 1153 
L 594 3053 
L 172 3053 
L 172 3500 
L 594 3500 
L 594 4494 
L 1172 4494 
z
" transform="scale(0.015625)"/>
      <path id="DejaVuSans-6f" d="M 1959 3097 
Q 1497 3097 1228 2736 
Q 959 2375 959 1747 
Q 959 1119 1226 758 
Q 1494 397 1959 397 
Q 2419 397 2687 759 
Q 2956 1122 2956 1747 
Q 2956 2369 2687 2733 
Q 2419 3097 1959 3097 
z
M 1959 3584 
Q 2709 3584 3137 3096 
Q 3566 2609 3566 1747 
Q 3566 888 3137 398 
Q 2709 -91 1959 -91 
Q 1206 -91 779 398 
Q 353 888 353 1747 
Q 353 2609 779 3096 
Q 1206 3584 1959 3584 
z
" transform="scale(0.015625)"/>
      <path id="DejaVuSans-72" d="M 2631 2963 
Q 2534 3019 2420 3045 
Q 2306 3072 2169 3072 
Q 1681 3072 1420 2755 
Q 1159 2438 1159 1844 
L 1159 0 
L 581 0 
L 581 3500 
L 1159 3500 
L 1159 2956 
Q 1341 3275 1631 3429 
Q 1922 3584 2338 3584 
Q 2397 3584 2469 3576 
Q 2541 3569 2628 3553 
L 2631 2963 
z
" transform="scale(0.015625)"/>
      <path id="DejaVuSans-65" d="M 3597 1894 
L 3597 1613 
L 953 1613 
Q 991 1019 1311 708 
Q 1631 397 2203 397 
Q 2534 397 2845 478 
Q 3156 559 3463 722 
L 3463 178 
Q 3153 47 2828 -22 
Q 2503 -91 2169 -91 
Q 1331 -91 842 396 
Q 353 884 353 1716 
Q 353 2575 817 3079 
Q 1281 3584 2069 3584 
Q 2775 3584 3186 3129 
Q 3597 2675 3597 1894 
z
M 3022 2063 
Q 3016 2534 2758 2815 
Q 2500 3097 2075 3097 
Q 1594 3097 1305 2825 
Q 1016 2553 972 2059 
L 3022 2063 
z
" transform="scale(0.015625)"/>
      <path id="DejaVuSans-2d" d="M 313 2009 
L 1997 2009 
L 1997 1497 
L 313 1497 
L 313 2009 
z
" transform="scale(0.015625)"/>
      <path id="DejaVuSans-61" d="M 2194 1759 
Q 1497 1759 1228 1600 
Q 959 1441 959 1056 
Q 959 750 1161 570 
Q 1363 391 1709 391 
Q 2188 391 2477 730 
Q 2766 1069 2766 1631 
L 2766 1759 
L 2194 1759 
z
M 3341 1997 
L 3341 0 
L 2766 0 
L 2766 531 
Q 2569 213 2275 61 
Q 1981 -91 1556 -91 
Q 1019 -91 701 211 
Q 384 513 384 1019 
Q 384 1609 779 1909 
Q 1175 2209 1959 2209 
L 2766 2209 
L 2766 2266 
Q 2766 2663 2505 2880 
Q 2244 3097 1772 3097 
Q 1472 3097 1187 3025 
Q 903 2953 641 2809 
L 641 3341 
Q 956 3463 1253 3523 
Q 1550 3584 1831 3584 
Q 2591 3584 2966 3190 
Q 3341 2797 3341 1997 
z
" transform="scale(0.015625)"/>
      <path id="DejaVuSans-6c" d="M 603 4863 
L 1178 4863 
L 1178 0 
L 603 0 
L 603 4863 
z
" transform="scale(0.015625)"/>
      <path id="DejaVuSerif-3d" d="M 678 2894 
L 4684 2894 
L 4684 2394 
L 678 2394 
L 678 2894 
z
M 678 1619 
L 4684 1619 
L 4684 1119 
L 678 1119 
L 678 1619 
z
" transform="scale(0.015625)"/>
     </defs>
     <use xlink:href="#DejaVuSans-Oblique-42" transform="translate(0 0.78125)"/>
     <use xlink:href="#DejaVuSans-73" transform="translate(68.603516 -15.625) scale(0.7)"/>
     <use xlink:href="#DejaVuSans-74" transform="translate(105.073242 -15.625) scale(0.7)"/>
     <use xlink:href="#DejaVuSans-6f" transform="translate(132.519531 -15.625) scale(0.7)"/>
     <use xlink:href="#DejaVuSans-72" transform="translate(175.34668 -15.625) scale(0.7)"/>
     <use xlink:href="#DejaVuSans-65" transform="translate(204.125977 -15.625) scale(0.7)"/>
     <use xlink:href="#DejaVuSans-2d" transform="translate(247.192383 -15.625) scale(0.7)"/>
     <use xlink:href="#DejaVuSans-61" transform="translate(272.451172 -15.625) scale(0.7)"/>
     <use xlink:href="#DejaVuSans-6c" transform="translate(315.34668 -15.625) scale(0.7)"/>
     <use xlink:href="#DejaVuSans-6c" transform="translate(334.794922 -15.625) scale(0.7)"/>
     <use xlink:href="#DejaVuSerif-3d" transform="translate(356.977539 0.78125)"/>
     <use xlink:href="#DejaVuSerif-34" transform="translate(440.766602 0.78125)"/>
     <use xlink:href="#DejaVuSerif-31" transform="translate(504.389648 0.78125)"/>
    </g>
   </g>
   <g id="text_19">
    <!-- $B_{\min}$=7 -->
    <g style="opacity: 0.75" transform="translate(64.962071 235.168613) scale(0.065 -0.065)">
     <defs>
      <path id="DejaVuSans-6d" d="M 3328 2828 
Q 3544 3216 3844 3400 
Q 4144 3584 4550 3584 
Q 5097 3584 5394 3201 
Q 5691 2819 5691 2113 
L 5691 0 
L 5113 0 
L 5113 2094 
Q 5113 2597 4934 2840 
Q 4756 3084 4391 3084 
Q 3944 3084 3684 2787 
Q 3425 2491 3425 1978 
L 3425 0 
L 2847 0 
L 2847 2094 
Q 2847 2600 2669 2842 
Q 2491 3084 2119 3084 
Q 1678 3084 1418 2786 
Q 1159 2488 1159 1978 
L 1159 0 
L 581 0 
L 581 3500 
L 1159 3500 
L 1159 2956 
Q 1356 3278 1631 3431 
Q 1906 3584 2284 3584 
Q 2666 3584 2933 3390 
Q 3200 3197 3328 2828 
z
" transform="scale(0.015625)"/>
      <path id="DejaVuSans-69" d="M 603 3500 
L 1178 3500 
L 1178 0 
L 603 0 
L 603 3500 
z
M 603 4863 
L 1178 4863 
L 1178 4134 
L 603 4134 
L 603 4863 
z
" transform="scale(0.015625)"/>
      <path id="DejaVuSans-6e" d="M 3513 2113 
L 3513 0 
L 2938 0 
L 2938 2094 
Q 2938 2591 2744 2837 
Q 2550 3084 2163 3084 
Q 1697 3084 1428 2787 
Q 1159 2491 1159 1978 
L 1159 0 
L 581 0 
L 581 3500 
L 1159 3500 
L 1159 2956 
Q 1366 3272 1645 3428 
Q 1925 3584 2291 3584 
Q 2894 3584 3203 3211 
Q 3513 2838 3513 2113 
z
" transform="scale(0.015625)"/>
      <path id="DejaVuSerif-37" d="M 3609 4347 
L 1784 0 
L 1319 0 
L 3059 4153 
L 903 4153 
L 903 3578 
L 538 3578 
L 538 4666 
L 3609 4666 
L 3609 4347 
z
" transform="scale(0.015625)"/>
     </defs>
     <use xlink:href="#DejaVuSans-Oblique-42" transform="translate(0 0.09375)"/>
     <use xlink:href="#DejaVuSans-6d" transform="translate(68.603516 -16.3125) scale(0.7)"/>
     <use xlink:href="#DejaVuSans-69" transform="translate(136.791992 -16.3125) scale(0.7)"/>
     <use xlink:href="#DejaVuSans-6e" transform="translate(156.240234 -16.3125) scale(0.7)"/>
     <use xlink:href="#DejaVuSerif-3d" transform="translate(203.339844 0.09375)"/>
     <use xlink:href="#DejaVuSerif-37" transform="translate(287.128906 0.09375)"/>
    </g>
   </g>
   <g id="text_20">
    <!-- $B_{\min}$=20 -->
    <g style="fill: #1f5faa; opacity: 0.75" transform="translate(194.203013 235.168613) scale(0.065 -0.065)">
     <use xlink:href="#DejaVuSans-Oblique-42" transform="translate(0 0.78125)"/>
     <use xlink:href="#DejaVuSans-6d" transform="translate(68.603516 -15.625) scale(0.7)"/>
     <use xlink:href="#DejaVuSans-69" transform="translate(136.791992 -15.625) scale(0.7)"/>
     <use xlink:href="#DejaVuSans-6e" transform="translate(156.240234 -15.625) scale(0.7)"/>
     <use xlink:href="#DejaVuSerif-3d" transform="translate(203.339844 0.78125)"/>
     <use xlink:href="#DejaVuSerif-32" transform="translate(287.128906 0.78125)"/>
     <use xlink:href="#DejaVuSerif-30" transform="translate(350.751953 0.78125)"/>
    </g>
   </g>
   <g id="text_21">
    <!-- $B_{\min}$=18 -->
    <g style="fill: #d47020; opacity: 0.75" transform="translate(174.319791 221.161088) scale(0.065 -0.065)">
     <use xlink:href="#DejaVuSans-Oblique-42" transform="translate(0 0.78125)"/>
     <use xlink:href="#DejaVuSans-6d" transform="translate(68.603516 -15.625) scale(0.7)"/>
     <use xlink:href="#DejaVuSans-69" transform="translate(136.791992 -15.625) scale(0.7)"/>
     <use xlink:href="#DejaVuSans-6e" transform="translate(156.240234 -15.625) scale(0.7)"/>
     <use xlink:href="#DejaVuSerif-3d" transform="translate(203.339844 0.78125)"/>
     <use xlink:href="#DejaVuSerif-31" transform="translate(287.128906 0.78125)"/>
     <use xlink:href="#DejaVuSerif-38" transform="translate(350.751953 0.78125)"/>
    </g>
   </g>
   <g id="text_22">
    <!-- Budgeted Reversible Compilation Cost vs. Ancilla Budget -->
    <g transform="translate(77.066055 13.738359) scale(0.105 -0.105)">
     <defs>
      <path id="DejaVuSerif-52" d="M 3066 2316 
Q 3284 2256 3442 2114 
Q 3600 1972 3725 1716 
L 4403 331 
L 4972 331 
L 4972 0 
L 3872 0 
L 3144 1484 
Q 2934 1916 2759 2042 
Q 2584 2169 2278 2169 
L 1581 2169 
L 1581 331 
L 2241 331 
L 2241 0 
L 353 0 
L 353 331 
L 947 331 
L 947 4331 
L 353 4331 
L 353 4666 
L 2719 4666 
Q 3400 4666 3770 4341 
Q 4141 4016 4141 3419 
Q 4141 2938 3870 2661 
Q 3600 2384 3066 2316 
z
M 1581 2503 
L 2503 2503 
Q 2975 2503 3200 2726 
Q 3425 2950 3425 3419 
Q 3425 3888 3200 4109 
Q 2975 4331 2503 4331 
L 1581 4331 
L 1581 2503 
z
" transform="scale(0.015625)"/>
      <path id="DejaVuSerif-76" d="M 1581 0 
L 359 2988 
L -19 2988 
L -19 3322 
L 1509 3322 
L 1509 2988 
L 978 2988 
L 1913 703 
L 2847 2988 
L 2350 2988 
L 2350 3322 
L 3597 3322 
L 3597 2988 
L 3225 2988 
L 2003 0 
L 1581 0 
z
" transform="scale(0.015625)"/>
      <path id="DejaVuSerif-72" d="M 3059 3328 
L 3059 2497 
L 2728 2497 
Q 2713 2744 2591 2866 
Q 2469 2988 2234 2988 
Q 1809 2988 1582 2694 
Q 1356 2400 1356 1850 
L 1356 331 
L 2022 331 
L 2022 0 
L 263 0 
L 263 331 
L 781 331 
L 781 2994 
L 231 2994 
L 231 3322 
L 1356 3322 
L 1356 2731 
Q 1525 3078 1790 3245 
Q 2056 3413 2438 3413 
Q 2578 3413 2733 3391 
Q 2888 3369 3059 3328 
z
" transform="scale(0.015625)"/>
      <path id="DejaVuSerif-69" d="M 622 4353 
Q 622 4497 726 4603 
Q 831 4709 978 4709 
Q 1122 4709 1226 4603 
Q 1331 4497 1331 4353 
Q 1331 4206 1228 4103 
Q 1125 4000 978 4000 
Q 831 4000 726 4103 
Q 622 4206 622 4353 
z
M 1356 331 
L 1900 331 
L 1900 0 
L 231 0 
L 231 331 
L 781 331 
L 781 2988 
L 231 2988 
L 231 3322 
L 1356 3322 
L 1356 331 
z
" transform="scale(0.015625)"/>
      <path id="DejaVuSerif-62" d="M 738 331 
L 738 4531 
L 184 4531 
L 184 4863 
L 1313 4863 
L 1313 2803 
Q 1481 3116 1742 3264 
Q 2003 3413 2388 3413 
Q 3000 3413 3387 2928 
Q 3775 2444 3775 1663 
Q 3775 881 3387 395 
Q 3000 -91 2388 -91 
Q 2003 -91 1742 57 
Q 1481 206 1313 519 
L 1313 0 
L 184 0 
L 184 331 
L 738 331 
z
M 1313 1497 
Q 1313 897 1542 583 
Q 1772 269 2209 269 
Q 2650 269 2876 622 
Q 3103 975 3103 1663 
Q 3103 2353 2876 2703 
Q 2650 3053 2209 3053 
Q 1772 3053 1542 2737 
Q 1313 2422 1313 1825 
L 1313 1497 
z
" transform="scale(0.015625)"/>
      <path id="DejaVuSerif-6d" d="M 3316 2675 
Q 3481 3041 3739 3227 
Q 3997 3413 4341 3413 
Q 4863 3413 5119 3089 
Q 5375 2766 5375 2113 
L 5375 331 
L 5894 331 
L 5894 0 
L 4300 0 
L 4300 331 
L 4800 331 
L 4800 2047 
Q 4800 2556 4650 2772 
Q 4500 2988 4153 2988 
Q 3769 2988 3567 2697 
Q 3366 2406 3366 1850 
L 3366 331 
L 3866 331 
L 3866 0 
L 2291 0 
L 2291 331 
L 2791 331 
L 2791 2069 
Q 2791 2566 2641 2777 
Q 2491 2988 2144 2988 
Q 1759 2988 1557 2697 
Q 1356 2406 1356 1850 
L 1356 331 
L 1856 331 
L 1856 0 
L 263 0 
L 263 331 
L 781 331 
L 781 2994 
L 231 2994 
L 231 3322 
L 1356 3322 
L 1356 2731 
Q 1516 3063 1762 3238 
Q 2009 3413 2322 3413 
Q 2709 3413 2968 3220 
Q 3228 3028 3316 2675 
z
" transform="scale(0.015625)"/>
      <path id="DejaVuSerif-70" d="M 1313 1825 
L 1313 1497 
Q 1313 897 1542 583 
Q 1772 269 2209 269 
Q 2650 269 2876 622 
Q 3103 975 3103 1663 
Q 3103 2353 2876 2703 
Q 2650 3053 2209 3053 
Q 1772 3053 1542 2737 
Q 1313 2422 1313 1825 
z
M 738 2988 
L 184 2988 
L 184 3322 
L 1313 3322 
L 1313 2803 
Q 1481 3116 1742 3264 
Q 2003 3413 2388 3413 
Q 3000 3413 3387 2928 
Q 3775 2444 3775 1663 
Q 3775 881 3387 395 
Q 3000 -91 2388 -91 
Q 2003 -91 1742 57 
Q 1481 206 1313 519 
L 1313 -997 
L 1856 -997 
L 1856 -1331 
L 184 -1331 
L 184 -997 
L 738 -997 
L 738 2988 
z
" transform="scale(0.015625)"/>
      <path id="DejaVuSerif-6e" d="M 263 0 
L 263 331 
L 781 331 
L 781 2988 
L 231 2988 
L 231 3322 
L 1356 3322 
L 1356 2731 
Q 1516 3069 1770 3241 
Q 2025 3413 2363 3413 
Q 2913 3413 3172 3097 
Q 3431 2781 3431 2113 
L 3431 331 
L 3944 331 
L 3944 0 
L 2356 0 
L 2356 331 
L 2853 331 
L 2853 1931 
Q 2853 2541 2703 2767 
Q 2553 2994 2175 2994 
Q 1775 2994 1565 2701 
Q 1356 2409 1356 1850 
L 1356 331 
L 1856 331 
L 1856 0 
L 263 0 
z
" transform="scale(0.015625)"/>
      <path id="DejaVuSerif-2e" d="M 603 325 
Q 603 500 722 622 
Q 841 744 1019 744 
Q 1191 744 1312 622 
Q 1434 500 1434 325 
Q 1434 153 1312 31 
Q 1191 -91 1019 -91 
Q 841 -91 722 29 
Q 603 150 603 325 
z
" transform="scale(0.015625)"/>
      <path id="DejaVuSerif-41" d="M 1281 1691 
L 2994 1691 
L 2138 3909 
L 1281 1691 
z
M -38 0 
L -38 331 
L 372 331 
L 2034 4666 
L 2559 4666 
L 4225 331 
L 4684 331 
L 4684 0 
L 2988 0 
L 2988 331 
L 3506 331 
L 3116 1356 
L 1153 1356 
L 763 331 
L 1275 331 
L 1275 0 
L -38 0 
z
" transform="scale(0.015625)"/>
      <path id="DejaVuSerif-63" d="M 3291 997 
Q 3169 466 2822 187 
Q 2475 -91 1925 -91 
Q 1200 -91 759 389 
Q 319 869 319 1663 
Q 319 2459 759 2936 
Q 1200 3413 1925 3413 
Q 2241 3413 2553 3339 
Q 2866 3266 3181 3116 
L 3181 2266 
L 2847 2266 
Q 2781 2703 2561 2903 
Q 2341 3103 1931 3103 
Q 1466 3103 1228 2742 
Q 991 2381 991 1663 
Q 991 944 1227 581 
Q 1463 219 1931 219 
Q 2303 219 2525 412 
Q 2747 606 2828 997 
L 3291 997 
z
" transform="scale(0.015625)"/>
     </defs>
     <use xlink:href="#DejaVuSerif-42"/>
     <use xlink:href="#DejaVuSerif-75" transform="translate(73.486328 0)"/>
     <use xlink:href="#DejaVuSerif-64" transform="translate(137.890625 0)"/>
     <use xlink:href="#DejaVuSerif-67" transform="translate(201.904297 0)"/>
     <use xlink:href="#DejaVuSerif-65" transform="translate(265.917969 0)"/>
     <use xlink:href="#DejaVuSerif-74" transform="translate(325.097656 0)"/>
     <use xlink:href="#DejaVuSerif-65" transform="translate(365.283203 0)"/>
     <use xlink:href="#DejaVuSerif-64" transform="translate(424.462891 0)"/>
     <use xlink:href="#DejaVuSerif-20" transform="translate(488.476562 0)"/>
     <use xlink:href="#DejaVuSerif-52" transform="translate(520.263672 0)"/>
     <use xlink:href="#DejaVuSerif-65" transform="translate(595.556641 0)"/>
     <use xlink:href="#DejaVuSerif-76" transform="translate(654.736328 0)"/>
     <use xlink:href="#DejaVuSerif-65" transform="translate(711.230469 0)"/>
     <use xlink:href="#DejaVuSerif-72" transform="translate(770.410156 0)"/>
     <use xlink:href="#DejaVuSerif-73" transform="translate(818.212891 0)"/>
     <use xlink:href="#DejaVuSerif-69" transform="translate(869.53125 0)"/>
     <use xlink:href="#DejaVuSerif-62" transform="translate(901.513672 0)"/>
     <use xlink:href="#DejaVuSerif-6c" transform="translate(965.527344 0)"/>
     <use xlink:href="#DejaVuSerif-65" transform="translate(997.509766 0)"/>
     <use xlink:href="#DejaVuSerif-20" transform="translate(1056.689453 0)"/>
     <use xlink:href="#DejaVuSerif-43" transform="translate(1088.476562 0)"/>
     <use xlink:href="#DejaVuSerif-6f" transform="translate(1164.990234 0)"/>
     <use xlink:href="#DejaVuSerif-6d" transform="translate(1225.195312 0)"/>
     <use xlink:href="#DejaVuSerif-70" transform="translate(1320.019531 0)"/>
     <use xlink:href="#DejaVuSerif-69" transform="translate(1384.033203 0)"/>
     <use xlink:href="#DejaVuSerif-6c" transform="translate(1416.015625 0)"/>
     <use xlink:href="#DejaVuSerif-61" transform="translate(1447.998047 0)"/>
     <use xlink:href="#DejaVuSerif-74" transform="translate(1507.617188 0)"/>
     <use xlink:href="#DejaVuSerif-69" transform="translate(1547.802734 0)"/>
     <use xlink:href="#DejaVuSerif-6f" transform="translate(1579.785156 0)"/>
     <use xlink:href="#DejaVuSerif-6e" transform="translate(1639.990234 0)"/>
     <use xlink:href="#DejaVuSerif-20" transform="translate(1704.394531 0)"/>
     <use xlink:href="#DejaVuSerif-43" transform="translate(1736.181641 0)"/>
     <use xlink:href="#DejaVuSerif-6f" transform="translate(1812.695312 0)"/>
     <use xlink:href="#DejaVuSerif-73" transform="translate(1872.900391 0)"/>
     <use xlink:href="#DejaVuSerif-74" transform="translate(1924.21875 0)"/>
     <use xlink:href="#DejaVuSerif-20" transform="translate(1964.404297 0)"/>
     <use xlink:href="#DejaVuSerif-76" transform="translate(1996.191406 0)"/>
     <use xlink:href="#DejaVuSerif-73" transform="translate(2052.685547 0)"/>
     <use xlink:href="#DejaVuSerif-2e" transform="translate(2104.003906 0)"/>
     <use xlink:href="#DejaVuSerif-20" transform="translate(2135.791016 0)"/>
     <use xlink:href="#DejaVuSerif-41" transform="translate(2167.578125 0)"/>
     <use xlink:href="#DejaVuSerif-6e" transform="translate(2239.794922 0)"/>
     <use xlink:href="#DejaVuSerif-63" transform="translate(2304.199219 0)"/>
     <use xlink:href="#DejaVuSerif-69" transform="translate(2360.205078 0)"/>
     <use xlink:href="#DejaVuSerif-6c" transform="translate(2392.1875 0)"/>
     <use xlink:href="#DejaVuSerif-6c" transform="translate(2424.169922 0)"/>
     <use xlink:href="#DejaVuSerif-61" transform="translate(2456.152344 0)"/>
     <use xlink:href="#DejaVuSerif-20" transform="translate(2515.771484 0)"/>
     <use xlink:href="#DejaVuSerif-42" transform="translate(2547.558594 0)"/>
     <use xlink:href="#DejaVuSerif-75" transform="translate(2621.044922 0)"/>
     <use xlink:href="#DejaVuSerif-64" transform="translate(2685.449219 0)"/>
     <use xlink:href="#DejaVuSerif-67" transform="translate(2749.462891 0)"/>
     <use xlink:href="#DejaVuSerif-65" transform="translate(2813.476562 0)"/>
     <use xlink:href="#DejaVuSerif-74" transform="translate(2872.65625 0)"/>
    </g>
   </g>
   <g id="patch_5">
    <path d="M 165.372341 194.558473 
L 244.905229 194.558473 
L 244.905229 164.239155 
L 165.372341 164.239155 
L 165.372341 194.558473 
z
M 207.683837 49.753409 
Q 186.528089 106.996282 165.372341 164.239155 
M 348.974012 143.136909 
Q 296.939621 168.847691 244.905229 194.558473 
" style="fill: none; opacity: 0.5; stroke: #888888; stroke-width: 0.6; stroke-linejoin: miter"/>
   </g>
   <g id="axes_2">
    <g id="patch_6">
     <path d="M 207.683837 143.136909 
L 348.974012 143.136909 
L 348.974012 49.753409 
L 207.683837 49.753409 
z
" style="fill: #ffffff"/>
    </g>
    <g id="matplotlib.axis_3">
     <g id="xtick_8">
      <g id="line2d_35">
       <path d="M 216.514473 143.136909 
L 216.514473 49.753409 
" clip-path="url(#pd24d8eed20)" style="fill: none; stroke: #aaaaaa; stroke-opacity: 0.35; stroke-width: 0.25; stroke-linecap: square"/>
      </g>
      <g id="line2d_36">
       <defs>
        <path id="m9995dd71ee" d="M 0 0 
L 0 1.5 
" style="stroke: #000000; stroke-width: 0.8"/>
       </defs>
       <g>
        <use xlink:href="#m9995dd71ee" x="216.514473" y="143.136909" style="stroke: #000000; stroke-width: 0.8"/>
       </g>
      </g>
      <g id="text_23">
       <!-- 18 -->
       <g transform="translate(213.015098 150.31605) scale(0.055 -0.055)">
        <use xlink:href="#DejaVuSerif-31"/>
        <use xlink:href="#DejaVuSerif-38" transform="translate(63.623047 0)"/>
       </g>
      </g>
     </g>
     <g id="xtick_9">
      <g id="line2d_37">
       <path d="M 234.175745 143.136909 
L 234.175745 49.753409 
" clip-path="url(#pd24d8eed20)" style="fill: none; stroke: #aaaaaa; stroke-opacity: 0.35; stroke-width: 0.25; stroke-linecap: square"/>
      </g>
      <g id="line2d_38">
       <g>
        <use xlink:href="#m9995dd71ee" x="234.175745" y="143.136909" style="stroke: #000000; stroke-width: 0.8"/>
       </g>
      </g>
      <g id="text_24">
       <!-- 19 -->
       <g transform="translate(230.67637 150.31605) scale(0.055 -0.055)">
        <defs>
         <path id="DejaVuSerif-39" d="M 2994 2091 
Q 2784 1856 2512 1740 
Q 2241 1625 1900 1625 
Q 1206 1625 804 2044 
Q 403 2463 403 3188 
Q 403 3897 839 4323 
Q 1275 4750 2003 4750 
Q 2794 4750 3217 4161 
Q 3641 3572 3641 2478 
Q 3641 1253 3137 581 
Q 2634 -91 1722 -91 
Q 1475 -91 1203 -44 
Q 931 3 647 97 
L 647 872 
L 997 872 
Q 1038 556 1241 387 
Q 1444 219 1784 219 
Q 2391 219 2687 676 
Q 2984 1134 2994 2091 
z
M 1978 4441 
Q 1534 4441 1298 4117 
Q 1063 3794 1063 3188 
Q 1063 2581 1298 2256 
Q 1534 1931 1978 1931 
Q 2422 1931 2658 2245 
Q 2894 2559 2894 3150 
Q 2894 3772 2656 4106 
Q 2419 4441 1978 4441 
z
" transform="scale(0.015625)"/>
        </defs>
        <use xlink:href="#DejaVuSerif-31"/>
        <use xlink:href="#DejaVuSerif-39" transform="translate(63.623047 0)"/>
       </g>
      </g>
     </g>
     <g id="xtick_10">
      <g id="line2d_39">
       <path d="M 251.837017 143.136909 
L 251.837017 49.753409 
" clip-path="url(#pd24d8eed20)" style="fill: none; stroke: #aaaaaa; stroke-opacity: 0.35; stroke-width: 0.25; stroke-linecap: square"/>
      </g>
      <g id="line2d_40">
       <g>
        <use xlink:href="#m9995dd71ee" x="251.837017" y="143.136909" style="stroke: #000000; stroke-width: 0.8"/>
       </g>
      </g>
      <g id="text_25">
       <!-- 20 -->
       <g transform="translate(248.337642 150.31605) scale(0.055 -0.055)">
        <use xlink:href="#DejaVuSerif-32"/>
        <use xlink:href="#DejaVuSerif-30" transform="translate(63.623047 0)"/>
       </g>
      </g>
     </g>
     <g id="xtick_11">
      <g id="line2d_41">
       <path d="M 269.498289 143.136909 
L 269.498289 49.753409 
" clip-path="url(#pd24d8eed20)" style="fill: none; stroke: #aaaaaa; stroke-opacity: 0.35; stroke-width: 0.25; stroke-linecap: square"/>
      </g>
      <g id="line2d_42">
       <g>
        <use xlink:href="#m9995dd71ee" x="269.498289" y="143.136909" style="stroke: #000000; stroke-width: 0.8"/>
       </g>
      </g>
      <g id="text_26">
       <!-- 21 -->
       <g transform="translate(265.998914 150.31605) scale(0.055 -0.055)">
        <use xlink:href="#DejaVuSerif-32"/>
        <use xlink:href="#DejaVuSerif-31" transform="translate(63.623047 0)"/>
       </g>
      </g>
     </g>
     <g id="xtick_12">
      <g id="line2d_43">
       <path d="M 287.159561 143.136909 
L 287.159561 49.753409 
" clip-path="url(#pd24d8eed20)" style="fill: none; stroke: #aaaaaa; stroke-opacity: 0.35; stroke-width: 0.25; stroke-linecap: square"/>
      </g>
      <g id="line2d_44">
       <g>
        <use xlink:href="#m9995dd71ee" x="287.159561" y="143.136909" style="stroke: #000000; stroke-width: 0.8"/>
       </g>
      </g>
      <g id="text_27">
       <!-- 22 -->
       <g transform="translate(283.660186 150.31605) scale(0.055 -0.055)">
        <use xlink:href="#DejaVuSerif-32"/>
        <use xlink:href="#DejaVuSerif-32" transform="translate(63.623047 0)"/>
       </g>
      </g>
     </g>
     <g id="xtick_13">
      <g id="line2d_45">
       <path d="M 304.820833 143.136909 
L 304.820833 49.753409 
" clip-path="url(#pd24d8eed20)" style="fill: none; stroke: #aaaaaa; stroke-opacity: 0.35; stroke-width: 0.25; stroke-linecap: square"/>
      </g>
      <g id="line2d_46">
       <g>
        <use xlink:href="#m9995dd71ee" x="304.820833" y="143.136909" style="stroke: #000000; stroke-width: 0.8"/>
       </g>
      </g>
      <g id="text_28">
       <!-- 23 -->
       <g transform="translate(301.321458 150.31605) scale(0.055 -0.055)">
        <use xlink:href="#DejaVuSerif-32"/>
        <use xlink:href="#DejaVuSerif-33" transform="translate(63.623047 0)"/>
       </g>
      </g>
     </g>
     <g id="xtick_14">
      <g id="line2d_47">
       <path d="M 322.482105 143.136909 
L 322.482105 49.753409 
" clip-path="url(#pd24d8eed20)" style="fill: none; stroke: #aaaaaa; stroke-opacity: 0.35; stroke-width: 0.25; stroke-linecap: square"/>
      </g>
      <g id="line2d_48">
       <g>
        <use xlink:href="#m9995dd71ee" x="322.482105" y="143.136909" style="stroke: #000000; stroke-width: 0.8"/>
       </g>
      </g>
      <g id="text_29">
       <!-- 24 -->
       <g transform="translate(318.98273 150.31605) scale(0.055 -0.055)">
        <use xlink:href="#DejaVuSerif-32"/>
        <use xlink:href="#DejaVuSerif-34" transform="translate(63.623047 0)"/>
       </g>
      </g>
     </g>
     <g id="xtick_15">
      <g id="line2d_49">
       <path d="M 340.143377 143.136909 
L 340.143377 49.753409 
" clip-path="url(#pd24d8eed20)" style="fill: none; stroke: #aaaaaa; stroke-opacity: 0.35; stroke-width: 0.25; stroke-linecap: square"/>
      </g>
      <g id="line2d_50">
       <g>
        <use xlink:href="#m9995dd71ee" x="340.143377" y="143.136909" style="stroke: #000000; stroke-width: 0.8"/>
       </g>
      </g>
      <g id="text_30">
       <!-- 25 -->
       <g transform="translate(336.644002 150.31605) scale(0.055 -0.055)">
        <use xlink:href="#DejaVuSerif-32"/>
        <use xlink:href="#DejaVuSerif-35" transform="translate(63.623047 0)"/>
       </g>
      </g>
     </g>
    </g>
    <g id="matplotlib.axis_4">
     <g id="ytick_9">
      <g id="line2d_51">
       <path d="M 207.683837 143.136909 
L 348.974012 143.136909 
" clip-path="url(#pd24d8eed20)" style="fill: none; stroke: #aaaaaa; stroke-opacity: 0.35; stroke-width: 0.25; stroke-linecap: square"/>
      </g>
      <g id="line2d_52">
       <defs>
        <path id="mb172a75b4c" d="M 0 0 
L -1.5 0 
" style="stroke: #000000; stroke-width: 0.8"/>
       </defs>
       <g>
        <use xlink:href="#mb172a75b4c" x="207.683837" y="143.136909" style="stroke: #000000; stroke-width: 0.8"/>
       </g>
      </g>
      <g id="text_31">
       <!-- 115.0 -->
       <g transform="translate(188.938369 145.22648) scale(0.055 -0.055)">
        <use xlink:href="#DejaVuSerif-31"/>
        <use xlink:href="#DejaVuSerif-31" transform="translate(63.623047 0)"/>
        <use xlink:href="#DejaVuSerif-35" transform="translate(127.246094 0)"/>
        <use xlink:href="#DejaVuSerif-2e" transform="translate(190.869141 0)"/>
        <use xlink:href="#DejaVuSerif-30" transform="translate(222.65625 0)"/>
       </g>
      </g>
     </g>
     <g id="ytick_10">
      <g id="line2d_53">
       <path d="M 207.683837 131.463972 
L 348.974012 131.463972 
" clip-path="url(#pd24d8eed20)" style="fill: none; stroke: #aaaaaa; stroke-opacity: 0.35; stroke-width: 0.25; stroke-linecap: square"/>
      </g>
      <g id="line2d_54">
       <g>
        <use xlink:href="#mb172a75b4c" x="207.683837" y="131.463972" style="stroke: #000000; stroke-width: 0.8"/>
       </g>
      </g>
      <g id="text_32">
       <!-- 117.5 -->
       <g transform="translate(188.938369 133.553542) scale(0.055 -0.055)">
        <use xlink:href="#DejaVuSerif-31"/>
        <use xlink:href="#DejaVuSerif-31" transform="translate(63.623047 0)"/>
        <use xlink:href="#DejaVuSerif-37" transform="translate(127.246094 0)"/>
        <use xlink:href="#DejaVuSerif-2e" transform="translate(190.869141 0)"/>
        <use xlink:href="#DejaVuSerif-35" transform="translate(222.65625 0)"/>
       </g>
      </g>
     </g>
     <g id="ytick_11">
      <g id="line2d_55">
       <path d="M 207.683837 119.791034 
L 348.974012 119.791034 
" clip-path="url(#pd24d8eed20)" style="fill: none; stroke: #aaaaaa; stroke-opacity: 0.35; stroke-width: 0.25; stroke-linecap: square"/>
      </g>
      <g id="line2d_56">
       <g>
        <use xlink:href="#mb172a75b4c" x="207.683837" y="119.791034" style="stroke: #000000; stroke-width: 0.8"/>
       </g>
      </g>
      <g id="text_33">
       <!-- 120.0 -->
       <g transform="translate(188.938369 121.880605) scale(0.055 -0.055)">
        <use xlink:href="#DejaVuSerif-31"/>
        <use xlink:href="#DejaVuSerif-32" transform="translate(63.623047 0)"/>
        <use xlink:href="#DejaVuSerif-30" transform="translate(127.246094 0)"/>
        <use xlink:href="#DejaVuSerif-2e" transform="translate(190.869141 0)"/>
        <use xlink:href="#DejaVuSerif-30" transform="translate(222.65625 0)"/>
       </g>
      </g>
     </g>
     <g id="ytick_12">
      <g id="line2d_57">
       <path d="M 207.683837 108.118097 
L 348.974012 108.118097 
" clip-path="url(#pd24d8eed20)" style="fill: none; stroke: #aaaaaa; stroke-opacity: 0.35; stroke-width: 0.25; stroke-linecap: square"/>
      </g>
      <g id="line2d_58">
       <g>
        <use xlink:href="#mb172a75b4c" x="207.683837" y="108.118097" style="stroke: #000000; stroke-width: 0.8"/>
       </g>
      </g>
      <g id="text_34">
       <!-- 122.5 -->
       <g transform="translate(188.938369 110.207667) scale(0.055 -0.055)">
        <use xlink:href="#DejaVuSerif-31"/>
        <use xlink:href="#DejaVuSerif-32" transform="translate(63.623047 0)"/>
        <use xlink:href="#DejaVuSerif-32" transform="translate(127.246094 0)"/>
        <use xlink:href="#DejaVuSerif-2e" transform="translate(190.869141 0)"/>
        <use xlink:href="#DejaVuSerif-35" transform="translate(222.65625 0)"/>
       </g>
      </g>
     </g>
     <g id="ytick_13">
      <g id="line2d_59">
       <path d="M 207.683837 96.445159 
L 348.974012 96.445159 
" clip-path="url(#pd24d8eed20)" style="fill: none; stroke: #aaaaaa; stroke-opacity: 0.35; stroke-width: 0.25; stroke-linecap: square"/>
      </g>
      <g id="line2d_60">
       <g>
        <use xlink:href="#mb172a75b4c" x="207.683837" y="96.445159" style="stroke: #000000; stroke-width: 0.8"/>
       </g>
      </g>
      <g id="text_35">
       <!-- 125.0 -->
       <g transform="translate(188.938369 98.53473) scale(0.055 -0.055)">
        <use xlink:href="#DejaVuSerif-31"/>
        <use xlink:href="#DejaVuSerif-32" transform="translate(63.623047 0)"/>
        <use xlink:href="#DejaVuSerif-35" transform="translate(127.246094 0)"/>
        <use xlink:href="#DejaVuSerif-2e" transform="translate(190.869141 0)"/>
        <use xlink:href="#DejaVuSerif-30" transform="translate(222.65625 0)"/>
       </g>
      </g>
     </g>
     <g id="ytick_14">
      <g id="line2d_61">
       <path d="M 207.683837 84.772222 
L 348.974012 84.772222 
" clip-path="url(#pd24d8eed20)" style="fill: none; stroke: #aaaaaa; stroke-opacity: 0.35; stroke-width: 0.25; stroke-linecap: square"/>
      </g>
      <g id="line2d_62">
       <g>
        <use xlink:href="#mb172a75b4c" x="207.683837" y="84.772222" style="stroke: #000000; stroke-width: 0.8"/>
       </g>
      </g>
      <g id="text_36">
       <!-- 127.5 -->
       <g transform="translate(188.938369 86.861792) scale(0.055 -0.055)">
        <use xlink:href="#DejaVuSerif-31"/>
        <use xlink:href="#DejaVuSerif-32" transform="translate(63.623047 0)"/>
        <use xlink:href="#DejaVuSerif-37" transform="translate(127.246094 0)"/>
        <use xlink:href="#DejaVuSerif-2e" transform="translate(190.869141 0)"/>
        <use xlink:href="#DejaVuSerif-35" transform="translate(222.65625 0)"/>
       </g>
      </g>
     </g>
     <g id="ytick_15">
      <g id="line2d_63">
       <path d="M 207.683837 73.099284 
L 348.974012 73.099284 
" clip-path="url(#pd24d8eed20)" style="fill: none; stroke: #aaaaaa; stroke-opacity: 0.35; stroke-width: 0.25; stroke-linecap: square"/>
      </g>
      <g id="line2d_64">
       <g>
        <use xlink:href="#mb172a75b4c" x="207.683837" y="73.099284" style="stroke: #000000; stroke-width: 0.8"/>
       </g>
      </g>
      <g id="text_37">
       <!-- 130.0 -->
       <g transform="translate(188.938369 75.188855) scale(0.055 -0.055)">
        <use xlink:href="#DejaVuSerif-31"/>
        <use xlink:href="#DejaVuSerif-33" transform="translate(63.623047 0)"/>
        <use xlink:href="#DejaVuSerif-30" transform="translate(127.246094 0)"/>
        <use xlink:href="#DejaVuSerif-2e" transform="translate(190.869141 0)"/>
        <use xlink:href="#DejaVuSerif-30" transform="translate(222.65625 0)"/>
       </g>
      </g>
     </g>
     <g id="ytick_16">
      <g id="line2d_65">
       <path d="M 207.683837 61.426347 
L 348.974012 61.426347 
" clip-path="url(#pd24d8eed20)" style="fill: none; stroke: #aaaaaa; stroke-opacity: 0.35; stroke-width: 0.25; stroke-linecap: square"/>
      </g>
      <g id="line2d_66">
       <g>
        <use xlink:href="#mb172a75b4c" x="207.683837" y="61.426347" style="stroke: #000000; stroke-width: 0.8"/>
       </g>
      </g>
      <g id="text_38">
       <!-- 132.5 -->
       <g transform="translate(188.938369 63.515917) scale(0.055 -0.055)">
        <use xlink:href="#DejaVuSerif-31"/>
        <use xlink:href="#DejaVuSerif-33" transform="translate(63.623047 0)"/>
        <use xlink:href="#DejaVuSerif-32" transform="translate(127.246094 0)"/>
        <use xlink:href="#DejaVuSerif-2e" transform="translate(190.869141 0)"/>
        <use xlink:href="#DejaVuSerif-35" transform="translate(222.65625 0)"/>
       </g>
      </g>
     </g>
     <g id="ytick_17">
      <g id="line2d_67">
       <path d="M 207.683837 49.753409 
L 348.974012 49.753409 
" clip-path="url(#pd24d8eed20)" style="fill: none; stroke: #aaaaaa; stroke-opacity: 0.35; stroke-width: 0.25; stroke-linecap: square"/>
      </g>
      <g id="line2d_68">
       <g>
        <use xlink:href="#mb172a75b4c" x="207.683837" y="49.753409" style="stroke: #000000; stroke-width: 0.8"/>
       </g>
      </g>
      <g id="text_39">
       <!-- 135.0 -->
       <g transform="translate(188.938369 51.84298) scale(0.055 -0.055)">
        <use xlink:href="#DejaVuSerif-31"/>
        <use xlink:href="#DejaVuSerif-33" transform="translate(63.623047 0)"/>
        <use xlink:href="#DejaVuSerif-35" transform="translate(127.246094 0)"/>
        <use xlink:href="#DejaVuSerif-2e" transform="translate(190.869141 0)"/>
        <use xlink:href="#DejaVuSerif-30" transform="translate(222.65625 0)"/>
       </g>
      </g>
     </g>
    </g>
    <g id="FillBetweenPolyCollection_2">
     <path d="M 57.563027 -76.314316 
L 57.563027 -76.314316 
L 75.224298 -44.329457 
L 92.88557 -13.739243 
L 110.546842 15.462584 
L 128.208114 43.282447 
L 145.869386 69.726953 
L 163.530658 94.802896 
L 181.19193 118.517278 
L 198.853202 140.877318 
L 216.514473 161.890472 
L 234.175745 181.564446 
L 251.837017 199.907223 
L 269.498289 216.927077 
L 287.159561 232.632608 
L 304.820833 247.032766 
L 322.482105 260.136885 
L 340.143377 271.954726 
L 357.804648 282.49652 
L 375.46592 291.773025 
L 393.127192 297.219684 
L 410.788464 297.219684 
L 428.449736 297.219684 
L 446.111008 297.219684 
L 463.77228 297.219684 
L 481.433552 297.219684 
L 499.094823 297.219684 
L 516.756095 297.219684 
L 534.417367 297.219684 
L 552.078639 297.219684 
L 569.739911 297.219684 
L 587.401183 297.219684 
L 605.062455 297.219684 
L 622.723727 297.219684 
L 622.723727 297.219684 
L 622.723727 297.219684 
L 605.062455 290.434789 
L 587.401183 283.249587 
L 569.739911 276.133329 
L 552.078639 268.855882 
L 534.417367 261.381351 
L 516.756095 253.68056 
L 499.094823 245.728737 
L 481.433552 237.504245 
L 463.77228 228.98781 
L 446.111008 220.162006 
L 428.449736 211.0109 
L 410.788464 201.519788 
L 393.127192 191.675004 
L 375.46592 181.463765 
L 357.804648 170.874055 
L 340.143377 159.894526 
L 322.482105 148.51442 
L 304.820833 136.723506 
L 287.159561 124.512025 
L 269.498289 111.87064 
L 251.837017 101.114334 
L 234.175745 85.262712 
L 216.514473 73.099284 
L 198.853202 56.832168 
L 181.19193 41.913625 
L 163.530658 26.516211 
L 145.869386 10.632706 
L 128.208114 -5.74389 
L 110.546842 -22.620375 
L 92.88557 -40.003352 
L 75.224298 -57.899247 
L 57.563027 -76.314316 
z
" clip-path="url(#pd24d8eed20)" style="fill-opacity: 0.08"/>
    </g>
    <g id="patch_7">
     <path d="M 207.683837 143.136909 
L 207.683837 49.753409 
" style="fill: none; stroke: #666666; stroke-width: 0.6; stroke-linejoin: miter; stroke-linecap: square"/>
    </g>
    <g id="patch_8">
     <path d="M 348.974012 143.136909 
L 348.974012 49.753409 
" style="fill: none; stroke: #666666; stroke-width: 0.6; stroke-linejoin: miter; stroke-linecap: square"/>
    </g>
    <g id="patch_9">
     <path d="M 207.683837 143.136909 
L 348.974012 143.136909 
" style="fill: none; stroke: #666666; stroke-width: 0.6; stroke-linejoin: miter; stroke-linecap: square"/>
    </g>
    <g id="patch_10">
     <path d="M 207.683837 49.753409 
L 348.974012 49.753409 
" style="fill: none; stroke: #666666; stroke-width: 0.6; stroke-linejoin: miter; stroke-linecap: square"/>
    </g>
    <g id="line2d_69">
     <path d="M 216.514473 73.099284 
L 234.175745 63.760934 
L 251.837017 91.775984 
L 269.498289 101.114334 
L 287.159561 110.452684 
L 304.820833 119.791034 
L 322.482105 129.129384 
L 340.143377 147.806084 
L 357.804648 157.144434 
L 375.46592 166.482784 
L 393.127192 175.821134 
L 410.788464 185.159484 
L 422.660937 191.437023 
" clip-path="url(#pd24d8eed20)" style="fill: none; stroke: #d47020; stroke-width: 1.5; stroke-linecap: square"/>
     <defs>
      <path id="m8fa4af0385" d="M 0 1.6 
C 0.424325 1.6 0.831328 1.431414 1.131371 1.131371 
C 1.431414 0.831328 1.6 0.424325 1.6 0 
C 1.6 -0.424325 1.431414 -0.831328 1.131371 -1.131371 
C 0.831328 -1.431414 0.424325 -1.6 0 -1.6 
C -0.424325 -1.6 -0.831328 -1.431414 -1.131371 -1.131371 
C -1.431414 -0.831328 -1.6 -0.424325 -1.6 0 
C -1.6 0.424325 -1.431414 0.831328 -1.131371 1.131371 
C -0.831328 1.431414 -0.424325 1.6 0 1.6 
z
" style="stroke: #d47020"/>
     </defs>
     <g clip-path="url(#pd24d8eed20)">
      <use xlink:href="#m8fa4af0385" x="216.514473" y="73.099284" style="fill: #d47020; stroke: #d47020"/>
      <use xlink:href="#m8fa4af0385" x="234.175745" y="63.760934" style="fill: #d47020; stroke: #d47020"/>
      <use xlink:href="#m8fa4af0385" x="251.837017" y="91.775984" style="fill: #d47020; stroke: #d47020"/>
      <use xlink:href="#m8fa4af0385" x="269.498289" y="101.114334" style="fill: #d47020; stroke: #d47020"/>
      <use xlink:href="#m8fa4af0385" x="287.159561" y="110.452684" style="fill: #d47020; stroke: #d47020"/>
      <use xlink:href="#m8fa4af0385" x="304.820833" y="119.791034" style="fill: #d47020; stroke: #d47020"/>
      <use xlink:href="#m8fa4af0385" x="322.482105" y="129.129384" style="fill: #d47020; stroke: #d47020"/>
      <use xlink:href="#m8fa4af0385" x="340.143377" y="147.806084" style="fill: #d47020; stroke: #d47020"/>
      <use xlink:href="#m8fa4af0385" x="357.804648" y="157.144434" style="fill: #d47020; stroke: #d47020"/>
      <use xlink:href="#m8fa4af0385" x="375.46592" y="166.482784" style="fill: #d47020; stroke: #d47020"/>
      <use xlink:href="#m8fa4af0385" x="393.127192" y="175.821134" style="fill: #d47020; stroke: #d47020"/>
      <use xlink:href="#m8fa4af0385" x="410.788464" y="185.159484" style="fill: #d47020; stroke: #d47020"/>
      <use xlink:href="#m8fa4af0385" x="428.449736" y="194.497834" style="fill: #d47020; stroke: #d47020"/>
      <use xlink:href="#m8fa4af0385" x="446.111008" y="203.836184" style="fill: #d47020; stroke: #d47020"/>
      <use xlink:href="#m8fa4af0385" x="463.77228" y="213.174534" style="fill: #d47020; stroke: #d47020"/>
      <use xlink:href="#m8fa4af0385" x="481.433552" y="222.512884" style="fill: #d47020; stroke: #d47020"/>
      <use xlink:href="#m8fa4af0385" x="499.094823" y="231.851234" style="fill: #d47020; stroke: #d47020"/>
      <use xlink:href="#m8fa4af0385" x="516.756095" y="241.189584" style="fill: #d47020; stroke: #d47020"/>
      <use xlink:href="#m8fa4af0385" x="534.417367" y="250.527934" style="fill: #d47020; stroke: #d47020"/>
      <use xlink:href="#m8fa4af0385" x="552.078639" y="259.866284" style="fill: #d47020; stroke: #d47020"/>
      <use xlink:href="#m8fa4af0385" x="569.739911" y="269.204634" style="fill: #d47020; stroke: #d47020"/>
      <use xlink:href="#m8fa4af0385" x="587.401183" y="278.542984" style="fill: #d47020; stroke: #d47020"/>
      <use xlink:href="#m8fa4af0385" x="605.062455" y="287.881334" style="fill: #d47020; stroke: #d47020"/>
      <use xlink:href="#m8fa4af0385" x="622.723727" y="297.219684" style="fill: #d47020; stroke: #d47020"/>
     </g>
    </g>
    <g id="line2d_70">
     <path d="M 251.837017 101.114334 
L 269.498289 110.452684 
L 287.159561 119.791034 
L 304.820833 129.129384 
L 322.482105 138.467734 
L 340.143377 147.806084 
L 357.804648 157.144434 
L 375.46592 166.482784 
L 393.127192 175.821134 
L 410.788464 185.159484 
L 422.660937 191.437023 
" clip-path="url(#pd24d8eed20)" style="fill: none; stroke: #1f5faa; stroke-width: 1.5; stroke-linecap: square"/>
     <defs>
      <path id="m0c55a35a08" d="M -1.6 1.6 
L 1.6 1.6 
L 1.6 -1.6 
L -1.6 -1.6 
z
" style="stroke: #1f5faa; stroke-linejoin: miter"/>
     </defs>
     <g clip-path="url(#pd24d8eed20)">
      <use xlink:href="#m0c55a35a08" x="251.837017" y="101.114334" style="fill: #1f5faa; stroke: #1f5faa; stroke-linejoin: miter"/>
      <use xlink:href="#m0c55a35a08" x="269.498289" y="110.452684" style="fill: #1f5faa; stroke: #1f5faa; stroke-linejoin: miter"/>
      <use xlink:href="#m0c55a35a08" x="287.159561" y="119.791034" style="fill: #1f5faa; stroke: #1f5faa; stroke-linejoin: miter"/>
      <use xlink:href="#m0c55a35a08" x="304.820833" y="129.129384" style="fill: #1f5faa; stroke: #1f5faa; stroke-linejoin: miter"/>
      <use xlink:href="#m0c55a35a08" x="322.482105" y="138.467734" style="fill: #1f5faa; stroke: #1f5faa; stroke-linejoin: miter"/>
      <use xlink:href="#m0c55a35a08" x="340.143377" y="147.806084" style="fill: #1f5faa; stroke: #1f5faa; stroke-linejoin: miter"/>
      <use xlink:href="#m0c55a35a08" x="357.804648" y="157.144434" style="fill: #1f5faa; stroke: #1f5faa; stroke-linejoin: miter"/>
      <use xlink:href="#m0c55a35a08" x="375.46592" y="166.482784" style="fill: #1f5faa; stroke: #1f5faa; stroke-linejoin: miter"/>
      <use xlink:href="#m0c55a35a08" x="393.127192" y="175.821134" style="fill: #1f5faa; stroke: #1f5faa; stroke-linejoin: miter"/>
      <use xlink:href="#m0c55a35a08" x="410.788464" y="185.159484" style="fill: #1f5faa; stroke: #1f5faa; stroke-linejoin: miter"/>
      <use xlink:href="#m0c55a35a08" x="428.449736" y="194.497834" style="fill: #1f5faa; stroke: #1f5faa; stroke-linejoin: miter"/>
      <use xlink:href="#m0c55a35a08" x="446.111008" y="203.836184" style="fill: #1f5faa; stroke: #1f5faa; stroke-linejoin: miter"/>
      <use xlink:href="#m0c55a35a08" x="463.77228" y="213.174534" style="fill: #1f5faa; stroke: #1f5faa; stroke-linejoin: miter"/>
      <use xlink:href="#m0c55a35a08" x="481.433552" y="222.512884" style="fill: #1f5faa; stroke: #1f5faa; stroke-linejoin: miter"/>
      <use xlink:href="#m0c55a35a08" x="499.094823" y="231.851234" style="fill: #1f5faa; stroke: #1f5faa; stroke-linejoin: miter"/>
      <use xlink:href="#m0c55a35a08" x="516.756095" y="241.189584" style="fill: #1f5faa; stroke: #1f5faa; stroke-linejoin: miter"/>
      <use xlink:href="#m0c55a35a08" x="534.417367" y="250.527934" style="fill: #1f5faa; stroke: #1f5faa; stroke-linejoin: miter"/>
      <use xlink:href="#m0c55a35a08" x="552.078639" y="259.866284" style="fill: #1f5faa; stroke: #1f5faa; stroke-linejoin: miter"/>
      <use xlink:href="#m0c55a35a08" x="569.739911" y="269.204634" style="fill: #1f5faa; stroke: #1f5faa; stroke-linejoin: miter"/>
      <use xlink:href="#m0c55a35a08" x="587.401183" y="278.542984" style="fill: #1f5faa; stroke: #1f5faa; stroke-linejoin: miter"/>
      <use xlink:href="#m0c55a35a08" x="605.062455" y="287.881334" style="fill: #1f5faa; stroke: #1f5faa; stroke-linejoin: miter"/>
      <use xlink:href="#m0c55a35a08" x="622.723727" y="297.219684" style="fill: #1f5faa; stroke: #1f5faa; stroke-linejoin: miter"/>
     </g>
    </g>
    <g id="line2d_71">
     <path d="M 112.584887 -1 
L 128.208114 18.769279 
L 145.869386 40.179829 
L 163.530658 60.659554 
L 181.19193 80.215451 
L 198.853202 98.854743 
L 216.514473 116.584883 
L 234.175745 133.413579 
L 251.837017 149.348812 
L 269.498289 164.398858 
L 287.159561 178.572316 
L 304.820833 191.878136 
L 322.482105 204.325652 
L 340.143377 215.924626 
L 357.804648 226.685288 
L 375.46592 236.618395 
L 393.127192 245.735296 
L 410.788464 254.048007 
L 422.660937 259.104068 
" clip-path="url(#pd24d8eed20)" style="fill: none; stroke-dasharray: 1,1.65; stroke-dashoffset: 0; stroke: #000000"/>
    </g>
    <g id="line2d_72">
     <path clip-path="url(#pd24d8eed20)" style="fill: none; stroke: #000000; stroke-width: 1.4; stroke-linecap: square"/>
     <defs>
      <path id="m8baf483afc" d="M -0 2.262742 
L 2.262742 0 
L 0 -2.262742 
L -2.262742 -0 
z
" style="stroke: #000000; stroke-linejoin: miter"/>
     </defs>
     <g clip-path="url(#pd24d8eed20)"/>
    </g>
   </g>
   <g id="legend_1">
    <g id="patch_11">
     <path d="M 287.117734 82.887969 
L 412.150937 82.887969 
L 412.150937 25.488359 
L 287.117734 25.488359 
z
" style="fill: #ffffff; opacity: 0.95; stroke: #cccccc; stroke-linejoin: miter"/>
    </g>
    <g id="patch_12">
     <path d="M 290.117734 34.187187 
L 305.117734 34.187187 
L 305.117734 28.937187 
L 290.117734 28.937187 
z
" style="fill-opacity: 0.08"/>
    </g>
    <g id="text_40">
     <!-- exact-optimal (est. range) -->
     <g transform="translate(311.117734 34.187187) scale(0.075 -0.075)">
      <defs>
       <path id="DejaVuSerif-78" d="M 1863 2028 
L 2559 2988 
L 2113 2988 
L 2113 3322 
L 3391 3322 
L 3391 2988 
L 2950 2988 
L 2059 1759 
L 3097 331 
L 3531 331 
L 3531 0 
L 1997 0 
L 1997 331 
L 2419 331 
L 1697 1325 
L 972 331 
L 1403 331 
L 1403 0 
L 141 0 
L 141 331 
L 581 331 
L 1497 1594 
L 488 2988 
L 78 2988 
L 78 3322 
L 1563 3322 
L 1563 2988 
L 1166 2988 
L 1863 2028 
z
" transform="scale(0.015625)"/>
       <path id="DejaVuSerif-2d" d="M 281 1959 
L 1881 1959 
L 1881 1472 
L 281 1472 
L 281 1959 
z
" transform="scale(0.015625)"/>
       <path id="DejaVuSerif-28" d="M 2041 -997 
Q 1281 -656 893 83 
Q 506 822 506 1931 
Q 506 3044 893 3783 
Q 1281 4522 2041 4863 
L 2041 4556 
Q 1559 4225 1350 3623 
Q 1141 3022 1141 1931 
Q 1141 844 1350 242 
Q 1559 -359 2041 -691 
L 2041 -997 
z
" transform="scale(0.015625)"/>
       <path id="DejaVuSerif-29" d="M 453 -997 
L 453 -691 
Q 934 -359 1145 242 
Q 1356 844 1356 1931 
Q 1356 3022 1145 3623 
Q 934 4225 453 4556 
L 453 4863 
Q 1216 4522 1603 3783 
Q 1991 3044 1991 1931 
Q 1991 822 1603 83 
Q 1216 -656 453 -997 
z
" transform="scale(0.015625)"/>
      </defs>
      <use xlink:href="#DejaVuSerif-65"/>
      <use xlink:href="#DejaVuSerif-78" transform="translate(59.179688 0)"/>
      <use xlink:href="#DejaVuSerif-61" transform="translate(115.576172 0)"/>
      <use xlink:href="#DejaVuSerif-63" transform="translate(175.195312 0)"/>
      <use xlink:href="#DejaVuSerif-74" transform="translate(231.201172 0)"/>
      <use xlink:href="#DejaVuSerif-2d" transform="translate(271.386719 0)"/>
      <use xlink:href="#DejaVuSerif-6f" transform="translate(305.175781 0)"/>
      <use xlink:href="#DejaVuSerif-70" transform="translate(365.380859 0)"/>
      <use xlink:href="#DejaVuSerif-74" transform="translate(429.394531 0)"/>
      <use xlink:href="#DejaVuSerif-69" transform="translate(469.580078 0)"/>
      <use xlink:href="#DejaVuSerif-6d" transform="translate(501.5625 0)"/>
      <use xlink:href="#DejaVuSerif-61" transform="translate(596.386719 0)"/>
      <use xlink:href="#DejaVuSerif-6c" transform="translate(656.005859 0)"/>
      <use xlink:href="#DejaVuSerif-20" transform="translate(687.988281 0)"/>
      <use xlink:href="#DejaVuSerif-28" transform="translate(719.775391 0)"/>
      <use xlink:href="#DejaVuSerif-65" transform="translate(758.789062 0)"/>
      <use xlink:href="#DejaVuSerif-73" transform="translate(817.96875 0)"/>
      <use xlink:href="#DejaVuSerif-74" transform="translate(869.287109 0)"/>
      <use xlink:href="#DejaVuSerif-2e" transform="translate(909.472656 0)"/>
      <use xlink:href="#DejaVuSerif-20" transform="translate(941.259766 0)"/>
      <use xlink:href="#DejaVuSerif-72" transform="translate(973.046875 0)"/>
      <use xlink:href="#DejaVuSerif-61" transform="translate(1020.849609 0)"/>
      <use xlink:href="#DejaVuSerif-6e" transform="translate(1080.46875 0)"/>
      <use xlink:href="#DejaVuSerif-67" transform="translate(1144.873047 0)"/>
      <use xlink:href="#DejaVuSerif-65" transform="translate(1208.886719 0)"/>
      <use xlink:href="#DejaVuSerif-29" transform="translate(1268.066406 0)"/>
     </g>
    </g>
    <g id="line2d_73">
     <path d="M 290.117734 42.677422 
L 297.617734 42.677422 
L 305.117734 42.677422 
" style="fill: none; stroke-dasharray: 1,1.65; stroke-dashoffset: 0; stroke: #000000"/>
    </g>
    <g id="text_41">
     <!-- exact-optimal (estimated) -->
     <g transform="translate(311.117734 45.302422) scale(0.075 -0.075)">
      <use xlink:href="#DejaVuSerif-65"/>
      <use xlink:href="#DejaVuSerif-78" transform="translate(59.179688 0)"/>
      <use xlink:href="#DejaVuSerif-61" transform="translate(115.576172 0)"/>
      <use xlink:href="#DejaVuSerif-63" transform="translate(175.195312 0)"/>
      <use xlink:href="#DejaVuSerif-74" transform="translate(231.201172 0)"/>
      <use xlink:href="#DejaVuSerif-2d" transform="translate(271.386719 0)"/>
      <use xlink:href="#DejaVuSerif-6f" transform="translate(305.175781 0)"/>
      <use xlink:href="#DejaVuSerif-70" transform="translate(365.380859 0)"/>
      <use xlink:href="#DejaVuSerif-74" transform="translate(429.394531 0)"/>
      <use xlink:href="#DejaVuSerif-69" transform="translate(469.580078 0)"/>
      <use xlink:href="#DejaVuSerif-6d" transform="translate(501.5625 0)"/>
      <use xlink:href="#DejaVuSerif-61" transform="translate(596.386719 0)"/>
      <use xlink:href="#DejaVuSerif-6c" transform="translate(656.005859 0)"/>
      <use xlink:href="#DejaVuSerif-20" transform="translate(687.988281 0)"/>
      <use xlink:href="#DejaVuSerif-28" transform="translate(719.775391 0)"/>
      <use xlink:href="#DejaVuSerif-65" transform="translate(758.789062 0)"/>
      <use xlink:href="#DejaVuSerif-73" transform="translate(817.96875 0)"/>
      <use xlink:href="#DejaVuSerif-74" transform="translate(869.287109 0)"/>
      <use xlink:href="#DejaVuSerif-69" transform="translate(909.472656 0)"/>
      <use xlink:href="#DejaVuSerif-6d" transform="translate(941.455078 0)"/>
      <use xlink:href="#DejaVuSerif-61" transform="translate(1036.279297 0)"/>
      <use xlink:href="#DejaVuSerif-74" transform="translate(1095.898438 0)"/>
      <use xlink:href="#DejaVuSerif-65" transform="translate(1136.083984 0)"/>
      <use xlink:href="#DejaVuSerif-64" transform="translate(1195.263672 0)"/>
      <use xlink:href="#DejaVuSerif-29" transform="translate(1259.277344 0)"/>
     </g>
    </g>
    <g id="line2d_74">
     <path d="M 290.117734 53.686016 
L 297.617734 53.686016 
L 305.117734 53.686016 
" style="fill: none; stroke: #000000; stroke-width: 1.4; stroke-linecap: square"/>
     <g>
      <use xlink:href="#m8baf483afc" x="297.617734" y="53.686016" style="stroke: #000000; stroke-linejoin: miter"/>
     </g>
    </g>
    <g id="text_42">
     <!-- exact-optimal (certified) -->
     <g transform="translate(311.117734 56.311016) scale(0.075 -0.075)">
      <defs>
       <path id="DejaVuSerif-66" d="M 2753 4078 
L 2450 4078 
Q 2447 4313 2317 4434 
Q 2188 4556 1941 4556 
Q 1619 4556 1487 4379 
Q 1356 4203 1356 3750 
L 1356 3322 
L 2284 3322 
L 2284 2988 
L 1356 2988 
L 1356 331 
L 2094 331 
L 2094 0 
L 231 0 
L 231 331 
L 781 331 
L 781 2988 
L 231 2988 
L 231 3322 
L 781 3322 
L 781 3738 
Q 781 4294 1070 4578 
Q 1359 4863 1919 4863 
Q 2128 4863 2337 4825 
Q 2547 4788 2753 4709 
L 2753 4078 
z
" transform="scale(0.015625)"/>
      </defs>
      <use xlink:href="#DejaVuSerif-65"/>
      <use xlink:href="#DejaVuSerif-78" transform="translate(59.179688 0)"/>
      <use xlink:href="#DejaVuSerif-61" transform="translate(115.576172 0)"/>
      <use xlink:href="#DejaVuSerif-63" transform="translate(175.195312 0)"/>
      <use xlink:href="#DejaVuSerif-74" transform="translate(231.201172 0)"/>
      <use xlink:href="#DejaVuSerif-2d" transform="translate(271.386719 0)"/>
      <use xlink:href="#DejaVuSerif-6f" transform="translate(305.175781 0)"/>
      <use xlink:href="#DejaVuSerif-70" transform="translate(365.380859 0)"/>
      <use xlink:href="#DejaVuSerif-74" transform="translate(429.394531 0)"/>
      <use xlink:href="#DejaVuSerif-69" transform="translate(469.580078 0)"/>
      <use xlink:href="#DejaVuSerif-6d" transform="translate(501.5625 0)"/>
      <use xlink:href="#DejaVuSerif-61" transform="translate(596.386719 0)"/>
      <use xlink:href="#DejaVuSerif-6c" transform="translate(656.005859 0)"/>
      <use xlink:href="#DejaVuSerif-20" transform="translate(687.988281 0)"/>
      <use xlink:href="#DejaVuSerif-28" transform="translate(719.775391 0)"/>
      <use xlink:href="#DejaVuSerif-63" transform="translate(758.789062 0)"/>
      <use xlink:href="#DejaVuSerif-65" transform="translate(814.794922 0)"/>
      <use xlink:href="#DejaVuSerif-72" transform="translate(873.974609 0)"/>
      <use xlink:href="#DejaVuSerif-74" transform="translate(921.777344 0)"/>
      <use xlink:href="#DejaVuSerif-69" transform="translate(961.962891 0)"/>
      <use xlink:href="#DejaVuSerif-66" transform="translate(993.945312 0)"/>
      <use xlink:href="#DejaVuSerif-69" transform="translate(1030.957031 0)"/>
      <use xlink:href="#DejaVuSerif-65" transform="translate(1062.939453 0)"/>
      <use xlink:href="#DejaVuSerif-64" transform="translate(1122.119141 0)"/>
      <use xlink:href="#DejaVuSerif-29" transform="translate(1186.132812 0)"/>
     </g>
    </g>
    <g id="line2d_75">
     <path d="M 290.117734 64.694609 
L 297.617734 64.694609 
L 305.117734 64.694609 
" style="fill: none; stroke: #1f5faa; stroke-width: 1.5; stroke-linecap: square"/>
     <g>
      <use xlink:href="#m0c55a35a08" x="297.617734" y="64.694609" style="fill: #1f5faa; stroke: #1f5faa; stroke-linejoin: miter"/>
     </g>
    </g>
    <g id="text_43">
     <!-- portfolio-best -->
     <g transform="translate(311.117734 67.319609) scale(0.075 -0.075)">
      <use xlink:href="#DejaVuSerif-70"/>
      <use xlink:href="#DejaVuSerif-6f" transform="translate(64.013672 0)"/>
      <use xlink:href="#DejaVuSerif-72" transform="translate(124.21875 0)"/>
      <use xlink:href="#DejaVuSerif-74" transform="translate(172.021484 0)"/>
      <use xlink:href="#DejaVuSerif-66" transform="translate(212.207031 0)"/>
      <use xlink:href="#DejaVuSerif-6f" transform="translate(249.21875 0)"/>
      <use xlink:href="#DejaVuSerif-6c" transform="translate(309.423828 0)"/>
      <use xlink:href="#DejaVuSerif-69" transform="translate(341.40625 0)"/>
      <use xlink:href="#DejaVuSerif-6f" transform="translate(373.388672 0)"/>
      <use xlink:href="#DejaVuSerif-2d" transform="translate(433.59375 0)"/>
      <use xlink:href="#DejaVuSerif-62" transform="translate(467.382812 0)"/>
      <use xlink:href="#DejaVuSerif-65" transform="translate(531.396484 0)"/>
      <use xlink:href="#DejaVuSerif-73" transform="translate(590.576172 0)"/>
      <use xlink:href="#DejaVuSerif-74" transform="translate(641.894531 0)"/>
     </g>
    </g>
    <g id="line2d_76">
     <path d="M 290.117734 75.703203 
L 297.617734 75.703203 
L 305.117734 75.703203 
" style="fill: none; stroke: #d47020; stroke-width: 1.5; stroke-linecap: square"/>
     <g>
      <use xlink:href="#m8fa4af0385" x="297.617734" y="75.703203" style="fill: #d47020; stroke: #d47020"/>
     </g>
    </g>
    <g id="text_44">
     <!-- oldest-live -->
     <g transform="translate(311.117734 78.328203) scale(0.075 -0.075)">
      <use xlink:href="#DejaVuSerif-6f"/>
      <use xlink:href="#DejaVuSerif-6c" transform="translate(60.205078 0)"/>
      <use xlink:href="#DejaVuSerif-64" transform="translate(92.1875 0)"/>
      <use xlink:href="#DejaVuSerif-65" transform="translate(156.201172 0)"/>
      <use xlink:href="#DejaVuSerif-73" transform="translate(215.380859 0)"/>
      <use xlink:href="#DejaVuSerif-74" transform="translate(266.699219 0)"/>
      <use xlink:href="#DejaVuSerif-2d" transform="translate(306.884766 0)"/>
      <use xlink:href="#DejaVuSerif-6c" transform="translate(340.673828 0)"/>
      <use xlink:href="#DejaVuSerif-69" transform="translate(372.65625 0)"/>
      <use xlink:href="#DejaVuSerif-76" transform="translate(404.638672 0)"/>
      <use xlink:href="#DejaVuSerif-65" transform="translate(461.132812 0)"/>
     </g>
    </g>
   </g>
   <g id="line2d_77">
    <path d="M 170.343147 171.818984 
L 180.284758 168.787053 
L 190.226369 177.882848 
L 200.16798 180.91478 
L 210.109591 183.946712 
L 220.051202 186.978643 
L 229.992812 190.010575 
L 239.934423 196.074439 
L 249.876034 199.106371 
L 259.817645 202.138303 
L 269.759256 205.170234 
L 279.700867 208.202166 
L 289.642478 211.234098 
L 299.584089 214.26603 
L 309.5257 217.297962 
L 319.467311 220.329893 
L 329.408922 223.361825 
L 339.350533 226.393757 
L 349.292144 229.425689 
L 359.233755 232.457621 
L 369.175366 235.489553 
L 379.116977 238.521484 
L 389.058588 241.553416 
L 399.000199 244.585348 
" clip-path="url(#pa24222a344)" style="fill: none; stroke: #d47020; stroke-width: 1.5; stroke-linecap: square"/>
    <g clip-path="url(#pa24222a344)">
     <use xlink:href="#m8fa4af0385" x="170.343147" y="171.818984" style="fill: #d47020; stroke: #d47020"/>
     <use xlink:href="#m8fa4af0385" x="180.284758" y="168.787053" style="fill: #d47020; stroke: #d47020"/>
     <use xlink:href="#m8fa4af0385" x="190.226369" y="177.882848" style="fill: #d47020; stroke: #d47020"/>
     <use xlink:href="#m8fa4af0385" x="200.16798" y="180.91478" style="fill: #d47020; stroke: #d47020"/>
     <use xlink:href="#m8fa4af0385" x="210.109591" y="183.946712" style="fill: #d47020; stroke: #d47020"/>
     <use xlink:href="#m8fa4af0385" x="220.051202" y="186.978643" style="fill: #d47020; stroke: #d47020"/>
     <use xlink:href="#m8fa4af0385" x="229.992812" y="190.010575" style="fill: #d47020; stroke: #d47020"/>
     <use xlink:href="#m8fa4af0385" x="239.934423" y="196.074439" style="fill: #d47020; stroke: #d47020"/>
     <use xlink:href="#m8fa4af0385" x="249.876034" y="199.106371" style="fill: #d47020; stroke: #d47020"/>
     <use xlink:href="#m8fa4af0385" x="259.817645" y="202.138303" style="fill: #d47020; stroke: #d47020"/>
     <use xlink:href="#m8fa4af0385" x="269.759256" y="205.170234" style="fill: #d47020; stroke: #d47020"/>
     <use xlink:href="#m8fa4af0385" x="279.700867" y="208.202166" style="fill: #d47020; stroke: #d47020"/>
     <use xlink:href="#m8fa4af0385" x="289.642478" y="211.234098" style="fill: #d47020; stroke: #d47020"/>
     <use xlink:href="#m8fa4af0385" x="299.584089" y="214.26603" style="fill: #d47020; stroke: #d47020"/>
     <use xlink:href="#m8fa4af0385" x="309.5257" y="217.297962" style="fill: #d47020; stroke: #d47020"/>
     <use xlink:href="#m8fa4af0385" x="319.467311" y="220.329893" style="fill: #d47020; stroke: #d47020"/>
     <use xlink:href="#m8fa4af0385" x="329.408922" y="223.361825" style="fill: #d47020; stroke: #d47020"/>
     <use xlink:href="#m8fa4af0385" x="339.350533" y="226.393757" style="fill: #d47020; stroke: #d47020"/>
     <use xlink:href="#m8fa4af0385" x="349.292144" y="229.425689" style="fill: #d47020; stroke: #d47020"/>
     <use xlink:href="#m8fa4af0385" x="359.233755" y="232.457621" style="fill: #d47020; stroke: #d47020"/>
     <use xlink:href="#m8fa4af0385" x="369.175366" y="235.489553" style="fill: #d47020; stroke: #d47020"/>
     <use xlink:href="#m8fa4af0385" x="379.116977" y="238.521484" style="fill: #d47020; stroke: #d47020"/>
     <use xlink:href="#m8fa4af0385" x="389.058588" y="241.553416" style="fill: #d47020; stroke: #d47020"/>
     <use xlink:href="#m8fa4af0385" x="399.000199" y="244.585348" style="fill: #d47020; stroke: #d47020"/>
    </g>
   </g>
   <g id="line2d_78">
    <path d="M 190.226369 180.91478 
L 200.16798 183.946712 
L 210.109591 186.978643 
L 220.051202 190.010575 
L 229.992812 193.042507 
L 239.934423 196.074439 
L 249.876034 199.106371 
L 259.817645 202.138303 
L 269.759256 205.170234 
L 279.700867 208.202166 
L 289.642478 211.234098 
L 299.584089 214.26603 
L 309.5257 217.297962 
L 319.467311 220.329893 
L 329.408922 223.361825 
L 339.350533 226.393757 
L 349.292144 229.425689 
L 359.233755 232.457621 
L 369.175366 235.489553 
L 379.116977 238.521484 
L 389.058588 241.553416 
L 399.000199 244.585348 
" clip-path="url(#pa24222a344)" style="fill: none; stroke: #1f5faa; stroke-width: 1.5; stroke-linecap: square"/>
    <g clip-path="url(#pa24222a344)">
     <use xlink:href="#m0c55a35a08" x="190.226369" y="180.91478" style="fill: #1f5faa; stroke: #1f5faa; stroke-linejoin: miter"/>
     <use xlink:href="#m0c55a35a08" x="200.16798" y="183.946712" style="fill: #1f5faa; stroke: #1f5faa; stroke-linejoin: miter"/>
     <use xlink:href="#m0c55a35a08" x="210.109591" y="186.978643" style="fill: #1f5faa; stroke: #1f5faa; stroke-linejoin: miter"/>
     <use xlink:href="#m0c55a35a08" x="220.051202" y="190.010575" style="fill: #1f5faa; stroke: #1f5faa; stroke-linejoin: miter"/>
     <use xlink:href="#m0c55a35a08" x="229.992812" y="193.042507" style="fill: #1f5faa; stroke: #1f5faa; stroke-linejoin: miter"/>
     <use xlink:href="#m0c55a35a08" x="239.934423" y="196.074439" style="fill: #1f5faa; stroke: #1f5faa; stroke-linejoin: miter"/>
     <use xlink:href="#m0c55a35a08" x="249.876034" y="199.106371" style="fill: #1f5faa; stroke: #1f5faa; stroke-linejoin: miter"/>
     <use xlink:href="#m0c55a35a08" x="259.817645" y="202.138303" style="fill: #1f5faa; stroke: #1f5faa; stroke-linejoin: miter"/>
     <use xlink:href="#m0c55a35a08" x="269.759256" y="205.170234" style="fill: #1f5faa; stroke: #1f5faa; stroke-linejoin: miter"/>
     <use xlink:href="#m0c55a35a08" x="279.700867" y="208.202166" style="fill: #1f5faa; stroke: #1f5faa; stroke-linejoin: miter"/>
     <use xlink:href="#m0c55a35a08" x="289.642478" y="211.234098" style="fill: #1f5faa; stroke: #1f5faa; stroke-linejoin: miter"/>
     <use xlink:href="#m0c55a35a08" x="299.584089" y="214.26603" style="fill: #1f5faa; stroke: #1f5faa; stroke-linejoin: miter"/>
     <use xlink:href="#m0c55a35a08" x="309.5257" y="217.297962" style="fill: #1f5faa; stroke: #1f5faa; stroke-linejoin: miter"/>
     <use xlink:href="#m0c55a35a08" x="319.467311" y="220.329893" style="fill: #1f5faa; stroke: #1f5faa; stroke-linejoin: miter"/>
     <use xlink:href="#m0c55a35a08" x="329.408922" y="223.361825" style="fill: #1f5faa; stroke: #1f5faa; stroke-linejoin: miter"/>
     <use xlink:href="#m0c55a35a08" x="339.350533" y="226.393757" style="fill: #1f5faa; stroke: #1f5faa; stroke-linejoin: miter"/>
     <use xlink:href="#m0c55a35a08" x="349.292144" y="229.425689" style="fill: #1f5faa; stroke: #1f5faa; stroke-linejoin: miter"/>
     <use xlink:href="#m0c55a35a08" x="359.233755" y="232.457621" style="fill: #1f5faa; stroke: #1f5faa; stroke-linejoin: miter"/>
     <use xlink:href="#m0c55a35a08" x="369.175366" y="235.489553" style="fill: #1f5faa; stroke: #1f5faa; stroke-linejoin: miter"/>
     <use xlink:href="#m0c55a35a08" x="379.116977" y="238.521484" style="fill: #1f5faa; stroke: #1f5faa; stroke-linejoin: miter"/>
     <use xlink:href="#m0c55a35a08" x="389.058588" y="241.553416" style="fill: #1f5faa; stroke: #1f5faa; stroke-linejoin: miter"/>
     <use xlink:href="#m0c55a35a08" x="399.000199" y="244.585348" style="fill: #1f5faa; stroke: #1f5faa; stroke-linejoin: miter"/>
    </g>
   </g>
   <g id="line2d_79">
    <path d="M 80.868648 123.308075 
L 90.810259 131.489882 
L 100.75187 139.361003 
L 110.693481 146.923471 
L 120.635092 154.179372 
L 130.576703 161.13085 
L 140.518314 167.780111 
L 150.459925 174.129428 
L 160.401536 180.181146 
L 170.343147 185.937685 
L 180.284758 191.401548 
L 190.226369 196.575325 
L 200.16798 201.461703 
L 210.109591 206.063475 
L 220.051202 210.383547 
L 229.992812 214.424948 
L 239.934423 218.190848 
L 249.876034 221.68457 
L 259.817645 224.909605 
L 269.759256 227.869637 
L 279.700867 230.568569 
L 289.642478 233.010551 
L 299.584089 235.20002 
L 309.5257 237.141749 
L 319.467311 238.840911 
L 329.408922 240.303166 
L 339.350533 241.534769 
L 349.292144 242.542747 
L 359.233755 243.335142 
L 369.175366 243.921427 
L 379.116977 244.313256 
L 389.058588 244.585348 
L 399.000199 244.585348 
" clip-path="url(#pa24222a344)" style="fill: none; stroke-dasharray: 1,1.65; stroke-dashoffset: 0; stroke: #000000"/>
   </g>
   <g id="line2d_80">
    <path d="M 60.985426 32.350121 
L 70.927037 89.956825 
L 80.868648 123.308075 
" clip-path="url(#pa24222a344)" style="fill: none; stroke: #000000; stroke-width: 1.4; stroke-linecap: square"/>
    <g clip-path="url(#pa24222a344)">
     <use xlink:href="#m8baf483afc" x="60.985426" y="32.350121" style="stroke: #000000; stroke-linejoin: miter"/>
     <use xlink:href="#m8baf483afc" x="70.927037" y="89.956825" style="stroke: #000000; stroke-linejoin: miter"/>
     <use xlink:href="#m8baf483afc" x="80.868648" y="123.308075" style="stroke: #000000; stroke-linejoin: miter"/>
    </g>
   </g>
  </g>
 </g>
 <defs>
  <clipPath id="pa24222a344">
   <rect x="44.084688" y="21.738359" width="371.81625" height="233.45875"/>
  </clipPath>
  <clipPath id="pd24d8eed20">
   <rect x="207.683837" y="49.753409" width="141.290175" height="93.3835"/>
  </clipPath>
 </defs>
</svg>
