<?xml version="1.0" encoding="UTF-8" standalone="no"?>
<!DOCTYPE svg PUBLIC "-//W3C//DTD SVG 1.1//EN"
 "http://www.w3.org/Graphics/SVG/1.1/DTD/svg11.dtd">
<!-- Generated by graphviz version 14.0.1 (20251006.0113)
 -->
<!-- Title: AIG Pages: 1 -->
<svg width="835pt" height="734pt"
 viewBox="14.00 14.00 820.00 719.00" xmlns="http://www.w3.org/2000/svg" xmlns:xlink="http://www.w3.org/1999/xlink">
<g id="graph0" class="graph" transform="scale(1 1) rotate(0) translate(43.2 690.4)">
<title>AIG</title>
<polygon fill="white" stroke="none" points="-28.8,28.8 -28.8,-676 777.04,-676 777.04,28.8 -28.8,28.8"/>
<text xml:space="preserve" text-anchor="start" x="333.25" y="-629" font-family="Helvetica,sans-Serif" font-weight="bold" font-size="16.00" fill="#222222">Gs stage 3</text>
<text xml:space="preserve" text-anchor="start" x="319" y="-604.7" font-family="Helvetica,sans-Serif" font-size="10.00" fill="#666666">10 inputs · 16 AND gates</text>
<g id="clust1" class="cluster">
<title>cluster_inputs</title>
</g>
<!-- in_1 -->
<g id="node1" class="node">
<title>in_1</title>
<path fill="#e8eef4" stroke="#5a7da0" stroke-width="0.8" d="M337.79,-543.2C337.79,-543.2 302.21,-543.2 302.21,-543.2 299.57,-543.2 296.93,-540.56 296.93,-537.92 296.93,-537.92 296.93,-532.64 296.93,-532.64 296.93,-530 299.57,-527.36 302.21,-527.36 302.21,-527.36 337.79,-527.36 337.79,-527.36 340.43,-527.36 343.07,-530 343.07,-532.64 343.07,-532.64 343.07,-537.92 343.07,-537.92 343.07,-540.56 340.43,-543.2 337.79,-543.2"/>
<text xml:space="preserve" text-anchor="middle" x="320" y="-532.18" font-family="Helvetica,sans-Serif" font-size="8.00" fill="#222222">rst̅[0] @ t2</text>
</g>
<!-- n_17 -->
<g id="node17" class="node">
<title>n_17</title>
<ellipse fill="#fafafa" stroke="#555555" stroke-width="0.8" cx="142" cy="-217.2" rx="12.24" ry="12.24"/>
<text xml:space="preserve" text-anchor="middle" x="142" y="-214.1" font-family="Helvetica,sans-Serif" font-size="8.00" fill="#222222">17</text>
</g>
<!-- in_1&#45;&gt;n_17 -->
<g id="edge13" class="edge">
<title>in_1&#45;&gt;n_17</title>
<path fill="none" stroke="#333333" stroke-width="0.6" d="M296.57,-529C260.66,-520.53 194.26,-503.23 176,-487.36 147.73,-462.79 139,-449.1 139,-411.64 139,-411.64 139,-411.64 139,-345.16 139,-305.93 140.45,-259.91 141.33,-235.48"/>
<polygon fill="#333333" stroke="#333333" stroke-width="0.6" points="143.08,-235.72 141.51,-230.66 139.58,-235.59 143.08,-235.72"/>
</g>
<!-- n_25 -->
<g id="node25" class="node">
<title>n_25</title>
<ellipse fill="#fafafa" stroke="#555555" stroke-width="0.8" cx="198" cy="-152.72" rx="12.24" ry="12.24"/>
<text xml:space="preserve" text-anchor="middle" x="198" y="-149.62" font-family="Helvetica,sans-Serif" font-size="8.00" fill="#222222">25</text>
</g>
<!-- in_1&#45;&gt;n_25 -->
<g id="edge29" class="edge">
<title>in_1&#45;&gt;n_25</title>
<path fill="none" stroke="#333333" stroke-width="0.6" d="M303.29,-527.05C269.88,-511.33 198,-470.65 198,-411.64 198,-411.64 198,-411.64 198,-280.68 198,-241.46 198,-195.43 198,-171"/>
<polygon fill="#333333" stroke="#333333" stroke-width="0.6" points="199.75,-171.18 198,-166.18 196.25,-171.18 199.75,-171.18"/>
</g>
<!-- in_2 -->
<g id="node2" class="node">
<title>in_2</title>
<path fill="#e8eef4" stroke="#5a7da0" stroke-width="0.8" d="M412.79,-543.2C412.79,-543.2 377.21,-543.2 377.21,-543.2 374.57,-543.2 371.93,-540.56 371.93,-537.92 371.93,-537.92 371.93,-532.64 371.93,-532.64 371.93,-530 374.57,-527.36 377.21,-527.36 377.21,-527.36 412.79,-527.36 412.79,-527.36 415.43,-527.36 418.07,-530 418.07,-532.64 418.07,-532.64 418.07,-537.92 418.07,-537.92 418.07,-540.56 415.43,-543.2 412.79,-543.2"/>
<text xml:space="preserve" text-anchor="middle" x="395" y="-532.18" font-family="Helvetica,sans-Serif" font-size="8.00" fill="#222222">rst̅[0] @ t1</text>
</g>
<!-- n_16 -->
<g id="node16" class="node">
<title>n_16</title>
<ellipse fill="#fafafa" stroke="#555555" stroke-width="0.8" cx="281" cy="-281.68" rx="12.24" ry="12.24"/>
<text xml:space="preserve" text-anchor="middle" x="281" y="-278.58" font-family="Helvetica,sans-Serif" font-size="8.00" fill="#222222">16</text>
</g>
<!-- in_2&#45;&gt;n_16 -->
<g id="edge11" class="edge">
<title>in_2&#45;&gt;n_16</title>
<path fill="none" stroke="#333333" stroke-width="0.6" d="M391.89,-527.02C377.44,-493.35 317.23,-353.15 308,-333.92 302.07,-321.57 294.81,-307.85 289.31,-297.72"/>
<polygon fill="#333333" stroke="#333333" stroke-width="0.6" points="290.97,-297.12 287.04,-293.57 287.9,-298.8 290.97,-297.12"/>
</g>
<!-- n_24 -->
<g id="node24" class="node">
<title>n_24</title>
<ellipse fill="#fafafa" stroke="#555555" stroke-width="0.8" cx="422" cy="-217.2" rx="12.24" ry="12.24"/>
<text xml:space="preserve" text-anchor="middle" x="422" y="-214.1" font-family="Helvetica,sans-Serif" font-size="8.00" fill="#222222">24</text>
</g>
<!-- in_2&#45;&gt;n_24 -->
<g id="edge27" class="edge">
<title>in_2&#45;&gt;n_24</title>
<path fill="none" stroke="#333333" stroke-width="0.6" d="M395.61,-527.08C399.01,-487.28 415.54,-293.78 420.56,-235.1"/>
<polygon fill="#333333" stroke="#333333" stroke-width="0.6" points="422.27,-235.58 420.95,-230.45 418.78,-235.28 422.27,-235.58"/>
</g>
<!-- in_3 -->
<g id="node3" class="node">
<title>in_3</title>
<path fill="#e8eef4" stroke="#5a7da0" stroke-width="0.8" d="M485.32,-543.2C485.32,-543.2 452.68,-543.2 452.68,-543.2 450.04,-543.2 447.4,-540.56 447.4,-537.92 447.4,-537.92 447.4,-532.64 447.4,-532.64 447.4,-530 450.04,-527.36 452.68,-527.36 452.68,-527.36 485.32,-527.36 485.32,-527.36 487.96,-527.36 490.6,-530 490.6,-532.64 490.6,-532.64 490.6,-537.92 490.6,-537.92 490.6,-540.56 487.96,-543.2 485.32,-543.2"/>
<text xml:space="preserve" text-anchor="middle" x="469" y="-532.18" font-family="Helvetica,sans-Serif" font-size="8.00" fill="#222222">rst̅[0]</text>
</g>
<!-- n_12 -->
<g id="node12" class="node">
<title>n_12</title>
<ellipse fill="#fafafa" stroke="#555555" stroke-width="0.8" cx="254" cy="-410.64" rx="12.24" ry="12.24"/>
<text xml:space="preserve" text-anchor="middle" x="254" y="-407.54" font-family="Helvetica,sans-Serif" font-size="8.00" fill="#222222">12</text>
</g>
<!-- in_3&#45;&gt;n_12 -->
<g id="edge3" class="edge">
<title>in_3&#45;&gt;n_12</title>
<path fill="none" stroke="#333333" stroke-width="0.6" d="M456.19,-526.98C418.82,-505.66 309.96,-443.56 269.44,-420.45"/>
<polygon fill="#333333" stroke="#333333" stroke-width="0.6" points="270.41,-418.98 265.2,-418.03 268.67,-422.02 270.41,-418.98"/>
</g>
<!-- n_14 -->
<g id="node14" class="node">
<title>n_14</title>
<ellipse fill="#fafafa" stroke="#555555" stroke-width="0.8" cx="307" cy="-410.64" rx="12.24" ry="12.24"/>
<text xml:space="preserve" text-anchor="middle" x="307" y="-407.54" font-family="Helvetica,sans-Serif" font-size="8.00" fill="#222222">14</text>
</g>
<!-- in_3&#45;&gt;n_14 -->
<g id="edge7" class="edge">
<title>in_3&#45;&gt;n_14</title>
<path fill="none" stroke="#333333" stroke-width="0.6" d="M472.87,-527.17C479.84,-513.3 492.47,-482.32 478,-462.88 441.79,-414.23 361.03,-410.02 324.98,-410.73"/>
<polygon fill="#333333" stroke="#333333" stroke-width="0.6" points="325.04,-408.98 320.09,-410.87 325.14,-412.48 325.04,-408.98"/>
</g>
<!-- n_21 -->
<g id="node21" class="node">
<title>n_21</title>
<ellipse fill="#fafafa" stroke="#555555" stroke-width="0.8" cx="575" cy="-346.16" rx="12.24" ry="12.24"/>
<text xml:space="preserve" text-anchor="middle" x="575" y="-343.06" font-family="Helvetica,sans-Serif" font-size="8.00" fill="#222222">21</text>
</g>
<!-- in_3&#45;&gt;n_21 -->
<g id="edge21" class="edge">
<title>in_3&#45;&gt;n_21</title>
<path fill="none" stroke="#333333" stroke-width="0.6" d="M474.65,-527.2C481.71,-518.22 493.95,-502.1 503,-487.36 529.74,-443.82 555.77,-389.21 567.91,-362.84"/>
<polygon fill="#333333" stroke="#333333" stroke-width="0.6" points="569.41,-363.76 569.9,-358.48 566.23,-362.3 569.41,-363.76"/>
</g>
<!-- n_22 -->
<g id="node22" class="node">
<title>n_22</title>
<ellipse fill="#fafafa" stroke="#555555" stroke-width="0.8" cx="630" cy="-475.12" rx="12.24" ry="12.24"/>
<text xml:space="preserve" text-anchor="middle" x="630" y="-472.02" font-family="Helvetica,sans-Serif" font-size="8.00" fill="#222222">22</text>
</g>
<!-- in_3&#45;&gt;n_22 -->
<g id="edge23" class="edge">
<title>in_3&#45;&gt;n_22</title>
<path fill="none" stroke="#333333" stroke-width="0.6" d="M489.07,-527.03C521.15,-515.44 583.42,-492.95 613.26,-482.17"/>
<polygon fill="#333333" stroke="#333333" stroke-width="0.6" points="613.82,-483.83 617.93,-480.48 612.63,-480.53 613.82,-483.83"/>
</g>
<!-- in_4 -->
<g id="node4" class="node">
<title>in_4</title>
<path fill="#e8eef4" stroke="#5a7da0" stroke-width="0.8" d="M118.32,-543.2C118.32,-543.2 85.68,-543.2 85.68,-543.2 83.04,-543.2 80.4,-540.56 80.4,-537.92 80.4,-537.92 80.4,-532.64 80.4,-532.64 80.4,-530 83.04,-527.36 85.68,-527.36 85.68,-527.36 118.32,-527.36 118.32,-527.36 120.96,-527.36 123.6,-530 123.6,-532.64 123.6,-532.64 123.6,-537.92 123.6,-537.92 123.6,-540.56 120.96,-543.2 118.32,-543.2"/>
<text xml:space="preserve" text-anchor="middle" x="102" y="-532.18" font-family="Helvetica,sans-Serif" font-size="8.00" fill="#222222">in_bits[7]</text>
</g>
<!-- n_11 -->
<g id="node11" class="node">
<title>n_11</title>
<ellipse fill="#fafafa" stroke="#555555" stroke-width="0.8" cx="30" cy="-475.12" rx="12.24" ry="12.24"/>
<text xml:space="preserve" text-anchor="middle" x="30" y="-472.02" font-family="Helvetica,sans-Serif" font-size="8.00" fill="#222222">11</text>
</g>
<!-- in_4&#45;&gt;n_11 -->
<g id="edge1" class="edge">
<title>in_4&#45;&gt;n_11</title>
<path fill="none" stroke="#333333" stroke-width="0.6" d="M93.17,-527.15C80.76,-517.12 58.03,-498.76 43.49,-487.02"/>
<polygon fill="#333333" stroke="#333333" stroke-width="0.6" points="44.6,-485.66 39.61,-483.88 42.4,-488.38 44.6,-485.66"/>
</g>
<!-- in_5 -->
<g id="node5" class="node">
<title>in_5</title>
<path fill="#e8eef4" stroke="#5a7da0" stroke-width="0.8" d="M46.32,-543.2C46.32,-543.2 13.68,-543.2 13.68,-543.2 11.04,-543.2 8.4,-540.56 8.4,-537.92 8.4,-537.92 8.4,-532.64 8.4,-532.64 8.4,-530 11.04,-527.36 13.68,-527.36 13.68,-527.36 46.32,-527.36 46.32,-527.36 48.96,-527.36 51.6,-530 51.6,-532.64 51.6,-532.64 51.6,-537.92 51.6,-537.92 51.6,-540.56 48.96,-543.2 46.32,-543.2"/>
<text xml:space="preserve" text-anchor="middle" x="30" y="-532.18" font-family="Helvetica,sans-Serif" font-size="8.00" fill="#222222">in_bits[6]</text>
</g>
<!-- in_5&#45;&gt;n_11 -->
<g id="edge2" class="edge">
<title>in_5&#45;&gt;n_11</title>
<path fill="none" stroke="#333333" stroke-width="0.6" stroke-dasharray="5,2" d="M30,-527.15C30,-518.47 30,-503.56 30,-492.1"/>
<ellipse fill="none" stroke="#333333" stroke-width="0.6" cx="30" cy="-490.03" rx="2" ry="2"/>
</g>
<!-- in_6 -->
<g id="node6" class="node">
<title>in_6</title>
<path fill="#e8eef4" stroke="#5a7da0" stroke-width="0.8" d="M262.32,-543.2C262.32,-543.2 229.68,-543.2 229.68,-543.2 227.04,-543.2 224.4,-540.56 224.4,-537.92 224.4,-537.92 224.4,-532.64 224.4,-532.64 224.4,-530 227.04,-527.36 229.68,-527.36 229.68,-527.36 262.32,-527.36 262.32,-527.36 264.96,-527.36 267.6,-530 267.6,-532.64 267.6,-532.64 267.6,-537.92 267.6,-537.92 267.6,-540.56 264.96,-543.2 262.32,-543.2"/>
<text xml:space="preserve" text-anchor="middle" x="246" y="-532.18" font-family="Helvetica,sans-Serif" font-size="8.00" fill="#222222">in_bits[5]</text>
</g>
<!-- n_13 -->
<g id="node13" class="node">
<title>n_13</title>
<ellipse fill="#fafafa" stroke="#555555" stroke-width="0.8" cx="83" cy="-475.12" rx="12.24" ry="12.24"/>
<text xml:space="preserve" text-anchor="middle" x="83" y="-472.02" font-family="Helvetica,sans-Serif" font-size="8.00" fill="#222222">13</text>
</g>
<!-- in_6&#45;&gt;n_13 -->
<g id="edge5" class="edge">
<title>in_6&#45;&gt;n_13</title>
<path fill="none" stroke="#333333" stroke-width="0.6" stroke-dasharray="5,2" d="M225.69,-527.03C192.66,-515.25 128.05,-492.19 98.46,-481.64"/>
<ellipse fill="none" stroke="#333333" stroke-width="0.6" cx="96.53" cy="-480.95" rx="2" ry="2"/>
</g>
<!-- in_7 -->
<g id="node7" class="node">
<title>in_7</title>
<path fill="#e8eef4" stroke="#5a7da0" stroke-width="0.8" d="M190.32,-543.2C190.32,-543.2 157.68,-543.2 157.68,-543.2 155.04,-543.2 152.4,-540.56 152.4,-537.92 152.4,-537.92 152.4,-532.64 152.4,-532.64 152.4,-530 155.04,-527.36 157.68,-527.36 157.68,-527.36 190.32,-527.36 190.32,-527.36 192.96,-527.36 195.6,-530 195.6,-532.64 195.6,-532.64 195.6,-537.92 195.6,-537.92 195.6,-540.56 192.96,-543.2 190.32,-543.2"/>
<text xml:space="preserve" text-anchor="middle" x="174" y="-532.18" font-family="Helvetica,sans-Serif" font-size="8.00" fill="#222222">in_bits[4]</text>
</g>
<!-- in_7&#45;&gt;n_13 -->
<g id="edge6" class="edge">
<title>in_7&#45;&gt;n_13</title>
<path fill="none" stroke="#333333" stroke-width="0.6" stroke-dasharray="5,2" d="M162.84,-527.15C146.25,-516.55 115.1,-496.63 97,-485.07"/>
<ellipse fill="none" stroke="#333333" stroke-width="0.6" cx="95.07" cy="-483.83" rx="2" ry="2"/>
</g>
<!-- in_8 -->
<g id="node8" class="node">
<title>in_8</title>
<path fill="#e8eef4" stroke="#5a7da0" stroke-width="0.8" d="M629.32,-543.2C629.32,-543.2 596.68,-543.2 596.68,-543.2 594.04,-543.2 591.4,-540.56 591.4,-537.92 591.4,-537.92 591.4,-532.64 591.4,-532.64 591.4,-530 594.04,-527.36 596.68,-527.36 596.68,-527.36 629.32,-527.36 629.32,-527.36 631.96,-527.36 634.6,-530 634.6,-532.64 634.6,-532.64 634.6,-537.92 634.6,-537.92 634.6,-540.56 631.96,-543.2 629.32,-543.2"/>
<text xml:space="preserve" text-anchor="middle" x="613" y="-532.18" font-family="Helvetica,sans-Serif" font-size="8.00" fill="#222222">in_bits[3]</text>
</g>
<!-- n_18 -->
<g id="node18" class="node">
<title>n_18</title>
<ellipse fill="#fafafa" stroke="#555555" stroke-width="0.8" cx="736" cy="-475.12" rx="12.24" ry="12.24"/>
<text xml:space="preserve" text-anchor="middle" x="736" y="-472.02" font-family="Helvetica,sans-Serif" font-size="8.00" fill="#222222">18</text>
</g>
<!-- in_8&#45;&gt;n_18 -->
<g id="edge15" class="edge">
<title>in_8&#45;&gt;n_18</title>
<path fill="none" stroke="#333333" stroke-width="0.6" d="M628.33,-527.03C651.7,-515.98 696.03,-495.02 719.87,-483.75"/>
<polygon fill="#333333" stroke="#333333" stroke-width="0.6" points="720.6,-485.34 724.37,-481.62 719.1,-482.18 720.6,-485.34"/>
</g>
<!-- n_19 -->
<g id="node19" class="node">
<title>n_19</title>
<ellipse fill="#fafafa" stroke="#555555" stroke-width="0.8" cx="683" cy="-475.12" rx="12.24" ry="12.24"/>
<text xml:space="preserve" text-anchor="middle" x="683" y="-472.02" font-family="Helvetica,sans-Serif" font-size="8.00" fill="#222222">19</text>
</g>
<!-- in_8&#45;&gt;n_19 -->
<g id="edge17" class="edge">
<title>in_8&#45;&gt;n_19</title>
<path fill="none" stroke="#333333" stroke-width="0.6" stroke-dasharray="5,2" d="M621.58,-527.15C633.83,-516.97 656.41,-498.21 670.51,-486.5"/>
<ellipse fill="none" stroke="#333333" stroke-width="0.6" cx="672.13" cy="-485.15" rx="2" ry="2"/>
</g>
<!-- in_9 -->
<g id="node9" class="node">
<title>in_9</title>
<path fill="#e8eef4" stroke="#5a7da0" stroke-width="0.8" d="M701.32,-543.2C701.32,-543.2 668.68,-543.2 668.68,-543.2 666.04,-543.2 663.4,-540.56 663.4,-537.92 663.4,-537.92 663.4,-532.64 663.4,-532.64 663.4,-530 666.04,-527.36 668.68,-527.36 668.68,-527.36 701.32,-527.36 701.32,-527.36 703.96,-527.36 706.6,-530 706.6,-532.64 706.6,-532.64 706.6,-537.92 706.6,-537.92 706.6,-540.56 703.96,-543.2 701.32,-543.2"/>
<text xml:space="preserve" text-anchor="middle" x="685" y="-532.18" font-family="Helvetica,sans-Serif" font-size="8.00" fill="#222222">in_bits[2]</text>
</g>
<!-- in_9&#45;&gt;n_18 -->
<g id="edge16" class="edge">
<title>in_9&#45;&gt;n_18</title>
<path fill="none" stroke="#333333" stroke-width="0.6" stroke-dasharray="5,2" d="M691.25,-527.15C699.74,-517.47 715.02,-500.04 725.34,-488.28"/>
<ellipse fill="none" stroke="#333333" stroke-width="0.6" cx="726.85" cy="-486.56" rx="2" ry="2"/>
</g>
<!-- in_9&#45;&gt;n_19 -->
<g id="edge18" class="edge">
<title>in_9&#45;&gt;n_19</title>
<path fill="none" stroke="#333333" stroke-width="0.6" d="M684.75,-527.15C684.47,-518.78 683.98,-504.61 683.59,-493.33"/>
<polygon fill="#333333" stroke="#333333" stroke-width="0.6" points="685.35,-493.58 683.43,-488.64 681.85,-493.7 685.35,-493.58"/>
</g>
<!-- in_10 -->
<g id="node10" class="node">
<title>in_10</title>
<path fill="#e8eef4" stroke="#5a7da0" stroke-width="0.8" d="M557.32,-543.2C557.32,-543.2 524.68,-543.2 524.68,-543.2 522.04,-543.2 519.4,-540.56 519.4,-537.92 519.4,-537.92 519.4,-532.64 519.4,-532.64 519.4,-530 522.04,-527.36 524.68,-527.36 524.68,-527.36 557.32,-527.36 557.32,-527.36 559.96,-527.36 562.6,-530 562.6,-532.64 562.6,-532.64 562.6,-537.92 562.6,-537.92 562.6,-540.56 559.96,-543.2 557.32,-543.2"/>
<text xml:space="preserve" text-anchor="middle" x="541" y="-532.18" font-family="Helvetica,sans-Serif" font-size="8.00" fill="#222222">in_bits[1]</text>
</g>
<!-- in_10&#45;&gt;n_22 -->
<g id="edge24" class="edge">
<title>in_10&#45;&gt;n_22</title>
<path fill="none" stroke="#333333" stroke-width="0.6" d="M551.91,-527.15C567.87,-516.72 597.59,-497.3 615.4,-485.66"/>
<polygon fill="#333333" stroke="#333333" stroke-width="0.6" points="616.1,-487.29 619.33,-483.09 614.19,-484.36 616.1,-487.29"/>
</g>
<!-- n_11&#45;&gt;n_12 -->
<g id="edge4" class="edge">
<title>n_11&#45;&gt;n_12</title>
<path fill="none" stroke="#333333" stroke-width="0.6" d="M40.99,-468.92C45.56,-466.87 50.98,-464.6 56,-462.88 121.4,-440.43 201.87,-422.49 236.64,-415.18"/>
<polygon fill="#333333" stroke="#333333" stroke-width="0.6" points="236.78,-416.94 241.32,-414.21 236.07,-413.52 236.78,-416.94"/>
</g>
<!-- n_15 -->
<g id="node15" class="node">
<title>n_15</title>
<ellipse fill="#fafafa" stroke="#555555" stroke-width="0.8" cx="281" cy="-346.16" rx="12.24" ry="12.24"/>
<text xml:space="preserve" text-anchor="middle" x="281" y="-343.06" font-family="Helvetica,sans-Serif" font-size="8.00" fill="#222222">15</text>
</g>
<!-- n_12&#45;&gt;n_15 -->
<g id="edge9" class="edge">
<title>n_12&#45;&gt;n_15</title>
<path fill="none" stroke="#333333" stroke-width="0.6" d="M258.58,-399.04C262.87,-389.11 269.34,-374.13 274.23,-362.82"/>
<polygon fill="#333333" stroke="#333333" stroke-width="0.6" points="275.75,-363.72 276.13,-358.44 272.54,-362.33 275.75,-363.72"/>
</g>
<!-- n_13&#45;&gt;n_14 -->
<g id="edge8" class="edge">
<title>n_13&#45;&gt;n_14</title>
<path fill="none" stroke="#333333" stroke-width="0.6" stroke-dasharray="5,2" d="M94.79,-471.74C125.77,-465.33 211.82,-446.63 281,-422.88 284.61,-421.64 288.42,-420.12 291.98,-418.6"/>
<ellipse fill="none" stroke="#333333" stroke-width="0.6" cx="293.91" cy="-417.76" rx="2" ry="2"/>
</g>
<!-- n_14&#45;&gt;n_15 -->
<g id="edge10" class="edge">
<title>n_14&#45;&gt;n_15</title>
<path fill="none" stroke="#333333" stroke-width="0.6" d="M302.59,-399.04C298.46,-389.11 292.22,-374.13 287.52,-362.82"/>
<polygon fill="#333333" stroke="#333333" stroke-width="0.6" points="289.23,-362.38 285.69,-358.44 286,-363.73 289.23,-362.38"/>
</g>
<!-- n_15&#45;&gt;n_16 -->
<g id="edge12" class="edge">
<title>n_15&#45;&gt;n_16</title>
<path fill="none" stroke="#333333" stroke-width="0.6" d="M281,-333.7C281,-324.19 281,-310.52 281,-299.72"/>
<polygon fill="#333333" stroke="#333333" stroke-width="0.6" points="282.75,-299.98 281,-294.98 279.25,-299.98 282.75,-299.98"/>
</g>
<!-- n_16&#45;&gt;n_17 -->
<g id="edge14" class="edge">
<title>n_16&#45;&gt;n_17</title>
<path fill="none" stroke="#333333" stroke-width="0.6" d="M270.09,-275.78C245.73,-264.83 186.8,-238.34 158.16,-225.46"/>
<polygon fill="#333333" stroke="#333333" stroke-width="0.6" points="158.96,-223.91 153.68,-223.45 157.53,-227.1 158.96,-223.91"/>
</g>
<!-- n_26 -->
<g id="node26" class="node">
<title>n_26</title>
<ellipse fill="#fff0e0" stroke="#c07030" stroke-width="1.6" cx="170" cy="-88.24" rx="12.24" ry="12.24"/>
<text xml:space="preserve" text-anchor="middle" x="170" y="-85.14" font-family="Helvetica,sans-Serif" font-size="8.00" fill="#222222">26</text>
</g>
<!-- n_17&#45;&gt;n_26 -->
<g id="edge31" class="edge">
<title>n_17&#45;&gt;n_26</title>
<path fill="none" stroke="#333333" stroke-width="0.6" d="M144.48,-204.93C149.41,-182.59 160.45,-132.56 166.26,-106.21"/>
<polygon fill="#333333" stroke="#333333" stroke-width="0.6" points="167.92,-106.81 167.28,-101.55 164.5,-106.06 167.92,-106.81"/>
</g>
<!-- n_20 -->
<g id="node20" class="node">
<title>n_20</title>
<ellipse fill="#fafafa" stroke="#555555" stroke-width="0.8" cx="689" cy="-410.64" rx="12.24" ry="12.24"/>
<text xml:space="preserve" text-anchor="middle" x="689" y="-407.54" font-family="Helvetica,sans-Serif" font-size="8.00" fill="#222222">20</text>
</g>
<!-- n_18&#45;&gt;n_20 -->
<g id="edge19" class="edge">
<title>n_18&#45;&gt;n_20</title>
<path fill="none" stroke="#333333" stroke-width="0.6" stroke-dasharray="5,2" d="M729.06,-464.9C721.01,-454.2 707.68,-436.47 698.63,-424.44"/>
<ellipse fill="none" stroke="#333333" stroke-width="0.6" cx="697.35" cy="-422.73" rx="2" ry="2"/>
</g>
<!-- n_19&#45;&gt;n_20 -->
<g id="edge20" class="edge">
<title>n_19&#45;&gt;n_20</title>
<path fill="none" stroke="#333333" stroke-width="0.6" stroke-dasharray="5,2" d="M684.1,-462.66C685.05,-452.8 686.42,-438.46 687.48,-427.5"/>
<ellipse fill="none" stroke="#333333" stroke-width="0.6" cx="687.69" cy="-425.32" rx="2" ry="2"/>
</g>
<!-- n_20&#45;&gt;n_21 -->
<g id="edge22" class="edge">
<title>n_20&#45;&gt;n_21</title>
<path fill="none" stroke="#333333" stroke-width="0.6" stroke-dasharray="5,2" d="M678.48,-403.87C657.95,-392.62 612.53,-367.73 589.3,-354.99"/>
<ellipse fill="none" stroke="#333333" stroke-width="0.6" cx="587.51" cy="-354.02" rx="2" ry="2"/>
</g>
<!-- n_23 -->
<g id="node23" class="node">
<title>n_23</title>
<ellipse fill="#fafafa" stroke="#555555" stroke-width="0.8" cx="575" cy="-281.68" rx="12.24" ry="12.24"/>
<text xml:space="preserve" text-anchor="middle" x="575" y="-278.58" font-family="Helvetica,sans-Serif" font-size="8.00" fill="#222222">23</text>
</g>
<!-- n_21&#45;&gt;n_23 -->
<g id="edge25" class="edge">
<title>n_21&#45;&gt;n_23</title>
<path fill="none" stroke="#333333" stroke-width="0.6" d="M575,-333.7C575,-324.19 575,-310.52 575,-299.72"/>
<polygon fill="#333333" stroke="#333333" stroke-width="0.6" points="576.75,-299.98 575,-294.98 573.25,-299.98 576.75,-299.98"/>
</g>
<!-- n_22&#45;&gt;n_23 -->
<g id="edge26" class="edge">
<title>n_22&#45;&gt;n_23</title>
<path fill="none" stroke="#333333" stroke-width="0.6" d="M628.83,-462.55C626.12,-438.18 618.35,-380 602,-333.92 597.42,-321.01 590.06,-307.33 584.19,-297.35"/>
<polygon fill="#333333" stroke="#333333" stroke-width="0.6" points="585.82,-296.66 581.74,-293.27 582.81,-298.46 585.82,-296.66"/>
</g>
<!-- n_23&#45;&gt;n_24 -->
<g id="edge28" class="edge">
<title>n_23&#45;&gt;n_24</title>
<path fill="none" stroke="#333333" stroke-width="0.6" d="M564,-276.19C537.55,-265.39 470.28,-237.92 438.77,-225.05"/>
<polygon fill="#333333" stroke="#333333" stroke-width="0.6" points="439.45,-223.43 434.16,-223.16 438.12,-226.68 439.45,-223.43"/>
</g>
<!-- n_24&#45;&gt;n_25 -->
<g id="edge30" class="edge">
<title>n_24&#45;&gt;n_25</title>
<path fill="none" stroke="#333333" stroke-width="0.6" d="M410.27,-212.93C373.23,-202.6 258.6,-170.62 215.04,-158.47"/>
<polygon fill="#333333" stroke="#333333" stroke-width="0.6" points="215.77,-156.86 210.49,-157.2 214.83,-160.23 215.77,-156.86"/>
</g>
<!-- n_25&#45;&gt;n_26 -->
<g id="edge32" class="edge">
<title>n_25&#45;&gt;n_26</title>
<path fill="none" stroke="#333333" stroke-width="0.6" d="M193.25,-141.12C188.85,-131.31 182.25,-116.57 177.2,-105.31"/>
<polygon fill="#333333" stroke="#333333" stroke-width="0.6" points="178.88,-104.78 175.24,-100.93 175.69,-106.21 178.88,-104.78"/>
</g>
<!-- output -->
<g id="node27" class="node">
<title>output</title>
<text xml:space="preserve" text-anchor="middle" x="170" y="-14.32" font-family="Helvetica,sans-Serif" font-size="9.00" fill="#c07030">output</text>
</g>
<!-- n_26&#45;&gt;output -->
<g id="edge33" class="edge">
<title>n_26&#45;&gt;output</title>
<path fill="none" stroke="#c07030" stroke-width="0.6" d="M170,-75.35C170,-66.05 170,-52.85 170,-41.56"/>
<polygon fill="#c07030" stroke="#c07030" stroke-width="0.6" points="171.75,-41.77 170,-36.77 168.25,-41.77 171.75,-41.77"/>
</g>
</g>
</svg>
