<?xml version="1.0" encoding="utf-8" standalone="no"?>
<!DOCTYPE svg PUBLIC "-//W3C//DTD SVG 1.1//EN"
  "http://www.w3.org/Graphics/SVG/1.1/DTD/svg11.dtd">
<svg xmlns:xlink="http://www.w3.org/1999/xlink" width="421.664687pt" height="291.057422pt" viewBox="0 0 421.664687 291.057422" xmlns="http://www.w3.org/2000/svg" version="1.1">
 <metadata>
  <rdf:RDF xmlns:dc="http://purl.org/dc/elements/1.1/" xmlns:cc="http://creativecommons.org/ns#" xmlns:rdf="http://www.w3.org/1999/02/22-rdf-syntax-ns#">
   <cc:Work>
    <dc:type rdf:resource="http://purl.org/dc/dcmitype/StillImage"/>
    <dc:date>2026-04-17T16:00:25.661964</dc:date>
    <dc:format>image/svg+xml</dc:format>
    <dc:creator>
     <cc:Agent>
      <dc:title>Matplotlib v3.10.8, https://matplotlib.org/</dc:title>
     </cc:Agent>
    </dc:creator>
   </cc:Work>
  </rdf:RDF>
 </metadata>
 <defs>
  <style type="text/css">*{stroke-linejoin: round; stroke-linecap: butt}</style>
 </defs>
 <g id="figure_1">
  <g id="patch_1">
   <path d="M 0 291.057422 
L 421.664687 291.057422 
L 421.664687 0 
L 0 0 
z
" style="fill: #ffffff"/>
  </g>
  <g id="axes_1">
   <g id="patch_2">
    <path d="M 38.358438 255.197109 
L 415.904688 255.197109 
L 415.904688 21.738359 
L 38.358438 21.738359 
z
" style="fill: #ffffff"/>
   </g>
   <g id="line2d_1">
    <path d="M 398.743494 255.197109 
L 398.743494 21.738359 
" clip-path="url(#pd62a95ab34)" style="fill: none; stroke-dasharray: 2.59,1.12; stroke-dashoffset: 0; stroke: #999999; stroke-opacity: 0.5; stroke-width: 0.7"/>
   </g>
   <g id="line2d_2">
    <path d="M 55.519631 255.197109 
L 55.519631 21.738359 
" clip-path="url(#pd62a95ab34)" style="fill: none; stroke-dasharray: 0.8,1.32; stroke-dashoffset: 0; stroke: #000000; stroke-opacity: 0.35; stroke-width: 0.8"/>
   </g>
   <g id="line2d_3">
    <path d="M 186.752284 255.197109 
L 186.752284 21.738359 
" clip-path="url(#pd62a95ab34)" style="fill: none; stroke-dasharray: 0.8,1.32; stroke-dashoffset: 0; stroke: #1f5faa; stroke-opacity: 0.35; stroke-width: 0.8"/>
   </g>
   <g id="line2d_4">
    <path d="M 166.562645 255.197109 
L 166.562645 21.738359 
" clip-path="url(#pd62a95ab34)" style="fill: none; stroke-dasharray: 0.8,1.32; stroke-dashoffset: 0; stroke: #d47020; stroke-opacity: 0.35; stroke-width: 0.8"/>
   </g>
   <g id="matplotlib.axis_1">
    <g id="xtick_1">
     <g id="line2d_5">
      <path d="M 85.804089 255.197109 
L 85.804089 21.738359 
" clip-path="url(#pd62a95ab34)" style="fill: none; stroke: #aaaaaa; stroke-opacity: 0.4; stroke-width: 0.3; stroke-linecap: square"/>
     </g>
     <g id="line2d_6">
      <defs>
       <path id="m0f5d13bdcb" d="M 0 0 
L 0 3 
" style="stroke: #000000; stroke-width: 0.8"/>
      </defs>
      <g>
       <use xlink:href="#m0f5d13bdcb" x="85.804089" y="255.197109" style="stroke: #000000; stroke-width: 0.8"/>
      </g>
     </g>
     <g id="text_1">
      <!-- 10 -->
      <g transform="translate(80.077839 268.535703) scale(0.09 -0.09)">
       <defs>
        <path id="DejaVuSerif-31" d="M 909 0 
L 909 331 
L 1722 331 
L 1722 4213 
L 781 3603 
L 781 4013 
L 1919 4750 
L 2350 4750 
L 2350 331 
L 3163 331 
L 3163 0 
L 909 0 
z
" transform="scale(0.015625)"/>
        <path id="DejaVuSerif-30" d="M 2034 219 
Q 2513 219 2750 744 
Q 2988 1269 2988 2328 
Q 2988 3391 2750 3916 
Q 2513 4441 2034 4441 
Q 1556 4441 1318 3916 
Q 1081 3391 1081 2328 
Q 1081 1269 1318 744 
Q 1556 219 2034 219 
z
M 2034 -91 
Q 1275 -91 848 546 
Q 422 1184 422 2328 
Q 422 3475 848 4112 
Q 1275 4750 2034 4750 
Q 2797 4750 3222 4112 
Q 3647 3475 3647 2328 
Q 3647 1184 3222 546 
Q 2797 -91 2034 -91 
z
" transform="scale(0.015625)"/>
       </defs>
       <use xlink:href="#DejaVuSerif-31"/>
       <use xlink:href="#DejaVuSerif-30" transform="translate(63.623047 0)"/>
      </g>
     </g>
    </g>
    <g id="xtick_2">
     <g id="line2d_7">
      <path d="M 136.278187 255.197109 
L 136.278187 21.738359 
" clip-path="url(#pd62a95ab34)" style="fill: none; stroke: #aaaaaa; stroke-opacity: 0.4; stroke-width: 0.3; stroke-linecap: square"/>
     </g>
     <g id="line2d_8">
      <g>
       <use xlink:href="#m0f5d13bdcb" x="136.278187" y="255.197109" style="stroke: #000000; stroke-width: 0.8"/>
      </g>
     </g>
     <g id="text_2">
      <!-- 15 -->
      <g transform="translate(130.551937 268.535703) scale(0.09 -0.09)">
       <defs>
        <path id="DejaVuSerif-35" d="M 3219 4666 
L 3219 4153 
L 1081 4153 
L 1081 2816 
Q 1244 2928 1461 2984 
Q 1678 3041 1947 3041 
Q 2703 3041 3140 2622 
Q 3578 2203 3578 1478 
Q 3578 738 3136 323 
Q 2694 -91 1894 -91 
Q 1572 -91 1234 -12 
Q 897 66 544 225 
L 544 1131 
L 897 1131 
Q 925 688 1179 453 
Q 1434 219 1894 219 
Q 2388 219 2653 544 
Q 2919 869 2919 1478 
Q 2919 2084 2655 2407 
Q 2391 2731 1894 2731 
Q 1613 2731 1398 2631 
Q 1184 2531 1019 2322 
L 750 2322 
L 750 4666 
L 3219 4666 
z
" transform="scale(0.015625)"/>
       </defs>
       <use xlink:href="#DejaVuSerif-31"/>
       <use xlink:href="#DejaVuSerif-35" transform="translate(63.623047 0)"/>
      </g>
     </g>
    </g>
    <g id="xtick_3">
     <g id="line2d_9">
      <path d="M 186.752284 255.197109 
L 186.752284 21.738359 
" clip-path="url(#pd62a95ab34)" style="fill: none; stroke: #aaaaaa; stroke-opacity: 0.4; stroke-width: 0.3; stroke-linecap: square"/>
     </g>
     <g id="line2d_10">
      <g>
       <use xlink:href="#m0f5d13bdcb" x="186.752284" y="255.197109" style="stroke: #000000; stroke-width: 0.8"/>
      </g>
     </g>
     <g id="text_3">
      <!-- 20 -->
      <g transform="translate(181.026034 268.535703) scale(0.09 -0.09)">
       <defs>
        <path id="DejaVuSerif-32" d="M 819 3553 
L 469 3553 
L 469 4384 
Q 803 4563 1142 4656 
Q 1481 4750 1806 4750 
Q 2534 4750 2956 4397 
Q 3378 4044 3378 3438 
Q 3378 2753 2422 1800 
Q 2347 1728 2309 1691 
L 1131 513 
L 3078 513 
L 3078 1088 
L 3444 1088 
L 3444 0 
L 434 0 
L 434 341 
L 1850 1753 
Q 2319 2222 2519 2614 
Q 2719 3006 2719 3438 
Q 2719 3909 2473 4175 
Q 2228 4441 1797 4441 
Q 1350 4441 1106 4219 
Q 863 3997 819 3553 
z
" transform="scale(0.015625)"/>
       </defs>
       <use xlink:href="#DejaVuSerif-32"/>
       <use xlink:href="#DejaVuSerif-30" transform="translate(63.623047 0)"/>
      </g>
     </g>
    </g>
    <g id="xtick_4">
     <g id="line2d_11">
      <path d="M 237.226382 255.197109 
L 237.226382 21.738359 
" clip-path="url(#pd62a95ab34)" style="fill: none; stroke: #aaaaaa; stroke-opacity: 0.4; stroke-width: 0.3; stroke-linecap: square"/>
     </g>
     <g id="line2d_12">
      <g>
       <use xlink:href="#m0f5d13bdcb" x="237.226382" y="255.197109" style="stroke: #000000; stroke-width: 0.8"/>
      </g>
     </g>
     <g id="text_4">
      <!-- 25 -->
      <g transform="translate(231.500132 268.535703) scale(0.09 -0.09)">
       <use xlink:href="#DejaVuSerif-32"/>
       <use xlink:href="#DejaVuSerif-35" transform="translate(63.623047 0)"/>
      </g>
     </g>
    </g>
    <g id="xtick_5">
     <g id="line2d_13">
      <path d="M 287.70048 255.197109 
L 287.70048 21.738359 
" clip-path="url(#pd62a95ab34)" style="fill: none; stroke: #aaaaaa; stroke-opacity: 0.4; stroke-width: 0.3; stroke-linecap: square"/>
     </g>
     <g id="line2d_14">
      <g>
       <use xlink:href="#m0f5d13bdcb" x="287.70048" y="255.197109" style="stroke: #000000; stroke-width: 0.8"/>
      </g>
     </g>
     <g id="text_5">
      <!-- 30 -->
      <g transform="translate(281.97423 268.535703) scale(0.09 -0.09)">
       <defs>
        <path id="DejaVuSerif-33" d="M 622 4469 
Q 988 4606 1323 4678 
Q 1659 4750 1953 4750 
Q 2638 4750 3022 4454 
Q 3406 4159 3406 3634 
Q 3406 3213 3140 2930 
Q 2875 2647 2388 2547 
Q 2963 2466 3280 2130 
Q 3597 1794 3597 1259 
Q 3597 606 3158 257 
Q 2719 -91 1894 -91 
Q 1528 -91 1179 -12 
Q 831 66 488 225 
L 488 1131 
L 838 1131 
Q 869 681 1141 450 
Q 1413 219 1906 219 
Q 2384 219 2661 495 
Q 2938 772 2938 1253 
Q 2938 1803 2653 2086 
Q 2369 2369 1819 2369 
L 1522 2369 
L 1522 2688 
L 1678 2688 
Q 2225 2688 2498 2914 
Q 2772 3141 2772 3597 
Q 2772 4006 2547 4223 
Q 2322 4441 1900 4441 
Q 1478 4441 1245 4241 
Q 1013 4041 972 3647 
L 622 3647 
L 622 4469 
z
" transform="scale(0.015625)"/>
       </defs>
       <use xlink:href="#DejaVuSerif-33"/>
       <use xlink:href="#DejaVuSerif-30" transform="translate(63.623047 0)"/>
      </g>
     </g>
    </g>
    <g id="xtick_6">
     <g id="line2d_15">
      <path d="M 338.174577 255.197109 
L 338.174577 21.738359 
" clip-path="url(#pd62a95ab34)" style="fill: none; stroke: #aaaaaa; stroke-opacity: 0.4; stroke-width: 0.3; stroke-linecap: square"/>
     </g>
     <g id="line2d_16">
      <g>
       <use xlink:href="#m0f5d13bdcb" x="338.174577" y="255.197109" style="stroke: #000000; stroke-width: 0.8"/>
      </g>
     </g>
     <g id="text_6">
      <!-- 35 -->
      <g transform="translate(332.448327 268.535703) scale(0.09 -0.09)">
       <use xlink:href="#DejaVuSerif-33"/>
       <use xlink:href="#DejaVuSerif-35" transform="translate(63.623047 0)"/>
      </g>
     </g>
    </g>
    <g id="xtick_7">
     <g id="line2d_17">
      <path d="M 388.648675 255.197109 
L 388.648675 21.738359 
" clip-path="url(#pd62a95ab34)" style="fill: none; stroke: #aaaaaa; stroke-opacity: 0.4; stroke-width: 0.3; stroke-linecap: square"/>
     </g>
     <g id="line2d_18">
      <g>
       <use xlink:href="#m0f5d13bdcb" x="388.648675" y="255.197109" style="stroke: #000000; stroke-width: 0.8"/>
      </g>
     </g>
     <g id="text_7">
      <!-- 40 -->
      <g transform="translate(382.922425 268.535703) scale(0.09 -0.09)">
       <defs>
        <path id="DejaVuSerif-34" d="M 2234 1581 
L 2234 4063 
L 641 1581 
L 2234 1581 
z
M 3609 0 
L 1484 0 
L 1484 331 
L 2234 331 
L 2234 1247 
L 197 1247 
L 197 1588 
L 2241 4750 
L 2859 4750 
L 2859 1581 
L 3750 1581 
L 3750 1247 
L 2859 1247 
L 2859 331 
L 3609 331 
L 3609 0 
z
" transform="scale(0.015625)"/>
       </defs>
       <use xlink:href="#DejaVuSerif-34"/>
       <use xlink:href="#DejaVuSerif-30" transform="translate(63.623047 0)"/>
      </g>
     </g>
    </g>
    <g id="text_8">
     <!-- Budget $B$ -->
     <g transform="translate(201.501563 282.767422) scale(0.11 -0.11)">
      <defs>
       <path id="DejaVuSerif-42" d="M 1581 331 
L 2516 331 
Q 3078 331 3337 575 
Q 3597 819 3597 1350 
Q 3597 1878 3339 2120 
Q 3081 2363 2516 2363 
L 1581 2363 
L 1581 331 
z
M 1581 2694 
L 2375 2694 
Q 2888 2694 3123 2891 
Q 3359 3088 3359 3513 
Q 3359 3941 3123 4136 
Q 2888 4331 2375 4331 
L 1581 4331 
L 1581 2694 
z
M 353 0 
L 353 331 
L 947 331 
L 947 4331 
L 353 4331 
L 353 4666 
L 2656 4666 
Q 3363 4666 3720 4377 
Q 4078 4088 4078 3513 
Q 4078 3097 3829 2850 
Q 3581 2603 3103 2547 
Q 3697 2472 4005 2167 
Q 4313 1863 4313 1350 
Q 4313 656 3875 328 
Q 3438 0 2509 0 
L 353 0 
z
" transform="scale(0.015625)"/>
       <path id="DejaVuSerif-75" d="M 2266 3322 
L 3341 3322 
L 3341 331 
L 3884 331 
L 3884 0 
L 2766 0 
L 2766 588 
Q 2606 256 2353 82 
Q 2100 -91 1766 -91 
Q 1213 -91 952 223 
Q 691 538 691 1209 
L 691 2988 
L 172 2988 
L 172 3322 
L 1269 3322 
L 1269 1388 
Q 1269 781 1417 556 
Q 1566 331 1947 331 
Q 2347 331 2556 625 
Q 2766 919 2766 1478 
L 2766 2988 
L 2266 2988 
L 2266 3322 
z
" transform="scale(0.015625)"/>
       <path id="DejaVuSerif-64" d="M 3359 331 
L 3909 331 
L 3909 0 
L 2784 0 
L 2784 519 
Q 2616 206 2355 57 
Q 2094 -91 1709 -91 
Q 1097 -91 708 395 
Q 319 881 319 1663 
Q 319 2444 706 2928 
Q 1094 3413 1709 3413 
Q 2094 3413 2355 3264 
Q 2616 3116 2784 2803 
L 2784 4531 
L 2241 4531 
L 2241 4863 
L 3359 4863 
L 3359 331 
z
M 2784 1497 
L 2784 1825 
Q 2784 2422 2554 2737 
Q 2325 3053 1888 3053 
Q 1444 3053 1217 2703 
Q 991 2353 991 1663 
Q 991 975 1217 622 
Q 1444 269 1888 269 
Q 2325 269 2554 583 
Q 2784 897 2784 1497 
z
" transform="scale(0.015625)"/>
       <path id="DejaVuSerif-67" d="M 3359 2988 
L 3359 72 
Q 3359 -644 2965 -1033 
Q 2572 -1422 1844 -1422 
Q 1516 -1422 1216 -1362 
Q 916 -1303 641 -1184 
L 641 -488 
L 941 -488 
Q 997 -813 1206 -963 
Q 1416 -1113 1806 -1113 
Q 2313 -1113 2548 -827 
Q 2784 -541 2784 72 
L 2784 519 
Q 2616 206 2355 57 
Q 2094 -91 1709 -91 
Q 1097 -91 708 395 
Q 319 881 319 1663 
Q 319 2444 706 2928 
Q 1094 3413 1709 3413 
Q 2094 3413 2355 3264 
Q 2616 3116 2784 2803 
L 2784 3322 
L 3909 3322 
L 3909 2988 
L 3359 2988 
z
M 2784 1825 
Q 2784 2422 2554 2737 
Q 2325 3053 1888 3053 
Q 1444 3053 1217 2703 
Q 991 2353 991 1663 
Q 991 975 1217 622 
Q 1444 269 1888 269 
Q 2325 269 2554 583 
Q 2784 897 2784 1497 
L 2784 1825 
z
" transform="scale(0.015625)"/>
       <path id="DejaVuSerif-65" d="M 3469 1600 
L 991 1600 
L 991 1575 
Q 991 903 1244 561 
Q 1497 219 1991 219 
Q 2369 219 2611 417 
Q 2853 616 2950 1006 
L 3413 1006 
Q 3275 459 2904 184 
Q 2534 -91 1931 -91 
Q 1203 -91 761 389 
Q 319 869 319 1663 
Q 319 2450 753 2931 
Q 1188 3413 1894 3413 
Q 2647 3413 3050 2948 
Q 3453 2484 3469 1600 
z
M 2791 1931 
Q 2772 2513 2545 2808 
Q 2319 3103 1894 3103 
Q 1497 3103 1269 2806 
Q 1041 2509 991 1931 
L 2791 1931 
z
" transform="scale(0.015625)"/>
       <path id="DejaVuSerif-74" d="M 691 2988 
L 184 2988 
L 184 3322 
L 691 3322 
L 691 4353 
L 1269 4353 
L 1269 3322 
L 2350 3322 
L 2350 2988 
L 1269 2988 
L 1269 878 
Q 1269 456 1350 337 
Q 1431 219 1650 219 
Q 1875 219 1978 351 
Q 2081 484 2088 781 
L 2522 781 
Q 2497 328 2275 118 
Q 2053 -91 1600 -91 
Q 1103 -91 897 129 
Q 691 350 691 878 
L 691 2988 
z
" transform="scale(0.015625)"/>
       <path id="DejaVuSerif-20" transform="scale(0.015625)"/>
       <path id="DejaVuSans-Oblique-42" d="M 1081 4666 
L 2694 4666 
Q 3350 4666 3675 4422 
Q 4000 4178 4000 3688 
Q 4000 3238 3720 2911 
Q 3441 2584 2988 2516 
Q 3375 2428 3569 2181 
Q 3763 1934 3763 1522 
Q 3763 819 3242 409 
Q 2722 0 1819 0 
L 172 0 
L 1081 4666 
z
M 1234 2228 
L 903 519 
L 1919 519 
Q 2491 519 2800 781 
Q 3109 1044 3109 1522 
Q 3109 1891 2904 2059 
Q 2700 2228 2247 2228 
L 1234 2228 
z
M 1606 4147 
L 1331 2741 
L 2272 2741 
Q 2775 2741 3058 2959 
Q 3341 3178 3341 3566 
Q 3341 3869 3150 4008 
Q 2959 4147 2541 4147 
L 1606 4147 
z
" transform="scale(0.015625)"/>
      </defs>
      <use xlink:href="#DejaVuSerif-42" transform="translate(0 0.015625)"/>
      <use xlink:href="#DejaVuSerif-75" transform="translate(73.486328 0.015625)"/>
      <use xlink:href="#DejaVuSerif-64" transform="translate(137.890625 0.015625)"/>
      <use xlink:href="#DejaVuSerif-67" transform="translate(201.904297 0.015625)"/>
      <use xlink:href="#DejaVuSerif-65" transform="translate(265.917969 0.015625)"/>
      <use xlink:href="#DejaVuSerif-74" transform="translate(325.097656 0.015625)"/>
      <use xlink:href="#DejaVuSerif-20" transform="translate(365.283203 0.015625)"/>
      <use xlink:href="#DejaVuSans-Oblique-42" transform="translate(397.070312 0.015625)"/>
     </g>
    </g>
   </g>
   <g id="matplotlib.axis_2">
    <g id="ytick_1">
     <g id="line2d_19">
      <path d="M 38.358438 241.596119 
L 415.904688 241.596119 
" clip-path="url(#pd62a95ab34)" style="fill: none; stroke: #aaaaaa; stroke-opacity: 0.4; stroke-width: 0.3; stroke-linecap: square"/>
     </g>
     <g id="line2d_20">
      <defs>
       <path id="m8ebd314f61" d="M 0 0 
L -3 0 
" style="stroke: #000000; stroke-width: 0.8"/>
      </defs>
      <g>
       <use xlink:href="#m8ebd314f61" x="38.358438" y="241.596119" style="stroke: #000000; stroke-width: 0.8"/>
      </g>
     </g>
     <g id="text_9">
      <!-- 0 -->
      <g transform="translate(26.132188 245.015416) scale(0.09 -0.09)">
       <use xlink:href="#DejaVuSerif-30"/>
      </g>
     </g>
    </g>
    <g id="ytick_2">
     <g id="line2d_21">
      <path d="M 38.358438 211.703834 
L 415.904688 211.703834 
" clip-path="url(#pd62a95ab34)" style="fill: none; stroke: #aaaaaa; stroke-opacity: 0.4; stroke-width: 0.3; stroke-linecap: square"/>
     </g>
     <g id="line2d_22">
      <g>
       <use xlink:href="#m8ebd314f61" x="38.358438" y="211.703834" style="stroke: #000000; stroke-width: 0.8"/>
      </g>
     </g>
     <g id="text_10">
      <!-- 10 -->
      <g transform="translate(20.405938 215.123131) scale(0.09 -0.09)">
       <use xlink:href="#DejaVuSerif-31"/>
       <use xlink:href="#DejaVuSerif-30" transform="translate(63.623047 0)"/>
      </g>
     </g>
    </g>
    <g id="ytick_3">
     <g id="line2d_23">
      <path d="M 38.358438 181.811548 
L 415.904688 181.811548 
" clip-path="url(#pd62a95ab34)" style="fill: none; stroke: #aaaaaa; stroke-opacity: 0.4; stroke-width: 0.3; stroke-linecap: square"/>
     </g>
     <g id="line2d_24">
      <g>
       <use xlink:href="#m8ebd314f61" x="38.358438" y="181.811548" style="stroke: #000000; stroke-width: 0.8"/>
      </g>
     </g>
     <g id="text_11">
      <!-- 20 -->
      <g transform="translate(20.405938 185.230845) scale(0.09 -0.09)">
       <use xlink:href="#DejaVuSerif-32"/>
       <use xlink:href="#DejaVuSerif-30" transform="translate(63.623047 0)"/>
      </g>
     </g>
    </g>
    <g id="ytick_4">
     <g id="line2d_25">
      <path d="M 38.358438 151.919263 
L 415.904688 151.919263 
" clip-path="url(#pd62a95ab34)" style="fill: none; stroke: #aaaaaa; stroke-opacity: 0.4; stroke-width: 0.3; stroke-linecap: square"/>
     </g>
     <g id="line2d_26">
      <g>
       <use xlink:href="#m8ebd314f61" x="38.358438" y="151.919263" style="stroke: #000000; stroke-width: 0.8"/>
      </g>
     </g>
     <g id="text_12">
      <!-- 30 -->
      <g transform="translate(20.405938 155.33856) scale(0.09 -0.09)">
       <use xlink:href="#DejaVuSerif-33"/>
       <use xlink:href="#DejaVuSerif-30" transform="translate(63.623047 0)"/>
      </g>
     </g>
    </g>
    <g id="ytick_5">
     <g id="line2d_27">
      <path d="M 38.358438 122.026977 
L 415.904688 122.026977 
" clip-path="url(#pd62a95ab34)" style="fill: none; stroke: #aaaaaa; stroke-opacity: 0.4; stroke-width: 0.3; stroke-linecap: square"/>
     </g>
     <g id="line2d_28">
      <g>
       <use xlink:href="#m8ebd314f61" x="38.358438" y="122.026977" style="stroke: #000000; stroke-width: 0.8"/>
      </g>
     </g>
     <g id="text_13">
      <!-- 40 -->
      <g transform="translate(20.405938 125.446274) scale(0.09 -0.09)">
       <use xlink:href="#DejaVuSerif-34"/>
       <use xlink:href="#DejaVuSerif-30" transform="translate(63.623047 0)"/>
      </g>
     </g>
    </g>
    <g id="ytick_6">
     <g id="line2d_29">
      <path d="M 38.358438 92.134692 
L 415.904688 92.134692 
" clip-path="url(#pd62a95ab34)" style="fill: none; stroke: #aaaaaa; stroke-opacity: 0.4; stroke-width: 0.3; stroke-linecap: square"/>
     </g>
     <g id="line2d_30">
      <g>
       <use xlink:href="#m8ebd314f61" x="38.358438" y="92.134692" style="stroke: #000000; stroke-width: 0.8"/>
      </g>
     </g>
     <g id="text_14">
      <!-- 50 -->
      <g transform="translate(20.405938 95.553989) scale(0.09 -0.09)">
       <use xlink:href="#DejaVuSerif-35"/>
       <use xlink:href="#DejaVuSerif-30" transform="translate(63.623047 0)"/>
      </g>
     </g>
    </g>
    <g id="ytick_7">
     <g id="line2d_31">
      <path d="M 38.358438 62.242406 
L 415.904688 62.242406 
" clip-path="url(#pd62a95ab34)" style="fill: none; stroke: #aaaaaa; stroke-opacity: 0.4; stroke-width: 0.3; stroke-linecap: square"/>
     </g>
     <g id="line2d_32">
      <g>
       <use xlink:href="#m8ebd314f61" x="38.358438" y="62.242406" style="stroke: #000000; stroke-width: 0.8"/>
      </g>
     </g>
     <g id="text_15">
      <!-- 60 -->
      <g transform="translate(20.405938 65.661703) scale(0.09 -0.09)">
       <defs>
        <path id="DejaVuSerif-36" d="M 2094 219 
Q 2534 219 2771 542 
Q 3009 866 3009 1472 
Q 3009 2078 2771 2401 
Q 2534 2725 2094 2725 
Q 1647 2725 1412 2412 
Q 1178 2100 1178 1509 
Q 1178 888 1415 553 
Q 1653 219 2094 219 
z
M 1075 2569 
Q 1288 2803 1556 2918 
Q 1825 3034 2163 3034 
Q 2859 3034 3264 2615 
Q 3669 2197 3669 1472 
Q 3669 763 3233 336 
Q 2797 -91 2069 -91 
Q 1278 -91 853 498 
Q 428 1088 428 2181 
Q 428 3406 931 4078 
Q 1434 4750 2350 4750 
Q 2597 4750 2869 4703 
Q 3141 4656 3425 4563 
L 3425 3794 
L 3072 3794 
Q 3034 4109 2831 4275 
Q 2628 4441 2284 4441 
Q 1678 4441 1381 3981 
Q 1084 3522 1075 2569 
z
" transform="scale(0.015625)"/>
       </defs>
       <use xlink:href="#DejaVuSerif-36"/>
       <use xlink:href="#DejaVuSerif-30" transform="translate(63.623047 0)"/>
      </g>
     </g>
    </g>
    <g id="ytick_8">
     <g id="line2d_33">
      <path d="M 38.358438 32.350121 
L 415.904688 32.350121 
" clip-path="url(#pd62a95ab34)" style="fill: none; stroke: #aaaaaa; stroke-opacity: 0.4; stroke-width: 0.3; stroke-linecap: square"/>
     </g>
     <g id="line2d_34">
      <g>
       <use xlink:href="#m8ebd314f61" x="38.358438" y="32.350121" style="stroke: #000000; stroke-width: 0.8"/>
      </g>
     </g>
     <g id="text_16">
      <!-- 70 -->
      <g transform="translate(20.405938 35.769418) scale(0.09 -0.09)">
       <defs>
        <path id="DejaVuSerif-37" d="M 3609 4347 
L 1784 0 
L 1319 0 
L 3059 4153 
L 903 4153 
L 903 3578 
L 538 3578 
L 538 4666 
L 3609 4666 
L 3609 4347 
z
" transform="scale(0.015625)"/>
       </defs>
       <use xlink:href="#DejaVuSerif-37"/>
       <use xlink:href="#DejaVuSerif-30" transform="translate(63.623047 0)"/>
      </g>
     </g>
    </g>
    <g id="text_17">
     <!-- Total Recomputation Count -->
     <g transform="translate(14.118281 214.959844) rotate(-90) scale(0.11 -0.11)">
      <defs>
       <path id="DejaVuSerif-54" d="M 1222 0 
L 1222 331 
L 1819 331 
L 1819 4294 
L 447 4294 
L 447 3566 
L 63 3566 
L 63 4666 
L 4206 4666 
L 4206 3566 
L 3822 3566 
L 3822 4294 
L 2450 4294 
L 2450 331 
L 3047 331 
L 3047 0 
L 1222 0 
z
" transform="scale(0.015625)"/>
       <path id="DejaVuSerif-6f" d="M 1925 219 
Q 2388 219 2623 584 
Q 2859 950 2859 1663 
Q 2859 2375 2623 2739 
Q 2388 3103 1925 3103 
Q 1463 3103 1227 2739 
Q 991 2375 991 1663 
Q 991 950 1228 584 
Q 1466 219 1925 219 
z
M 1925 -91 
Q 1200 -91 759 389 
Q 319 869 319 1663 
Q 319 2456 758 2934 
Q 1197 3413 1925 3413 
Q 2653 3413 3092 2934 
Q 3531 2456 3531 1663 
Q 3531 869 3092 389 
Q 2653 -91 1925 -91 
z
" transform="scale(0.015625)"/>
       <path id="DejaVuSerif-61" d="M 2547 1044 
L 2547 1747 
L 1806 1747 
Q 1378 1747 1168 1562 
Q 959 1378 959 997 
Q 959 650 1171 447 
Q 1384 244 1747 244 
Q 2106 244 2326 466 
Q 2547 688 2547 1044 
z
M 3122 2075 
L 3122 331 
L 3634 331 
L 3634 0 
L 2547 0 
L 2547 359 
Q 2356 128 2106 18 
Q 1856 -91 1522 -91 
Q 969 -91 644 203 
Q 319 497 319 997 
Q 319 1513 691 1797 
Q 1063 2081 1741 2081 
L 2547 2081 
L 2547 2309 
Q 2547 2688 2317 2895 
Q 2088 3103 1672 3103 
Q 1328 3103 1125 2947 
Q 922 2791 872 2484 
L 575 2484 
L 575 3156 
Q 875 3284 1158 3348 
Q 1441 3413 1709 3413 
Q 2400 3413 2761 3070 
Q 3122 2728 3122 2075 
z
" transform="scale(0.015625)"/>
       <path id="DejaVuSerif-6c" d="M 1313 331 
L 1856 331 
L 1856 0 
L 184 0 
L 184 331 
L 738 331 
L 738 4531 
L 184 4531 
L 184 4863 
L 1313 4863 
L 1313 331 
z
" transform="scale(0.015625)"/>
       <path id="DejaVuSerif-52" d="M 3066 2316 
Q 3284 2256 3442 2114 
Q 3600 1972 3725 1716 
L 4403 331 
L 4972 331 
L 4972 0 
L 3872 0 
L 3144 1484 
Q 2934 1916 2759 2042 
Q 2584 2169 2278 2169 
L 1581 2169 
L 1581 331 
L 2241 331 
L 2241 0 
L 353 0 
L 353 331 
L 947 331 
L 947 4331 
L 353 4331 
L 353 4666 
L 2719 4666 
Q 3400 4666 3770 4341 
Q 4141 4016 4141 3419 
Q 4141 2938 3870 2661 
Q 3600 2384 3066 2316 
z
M 1581 2503 
L 2503 2503 
Q 2975 2503 3200 2726 
Q 3425 2950 3425 3419 
Q 3425 3888 3200 4109 
Q 2975 4331 2503 4331 
L 1581 4331 
L 1581 2503 
z
" transform="scale(0.015625)"/>
       <path id="DejaVuSerif-63" d="M 3291 997 
Q 3169 466 2822 187 
Q 2475 -91 1925 -91 
Q 1200 -91 759 389 
Q 319 869 319 1663 
Q 319 2459 759 2936 
Q 1200 3413 1925 3413 
Q 2241 3413 2553 3339 
Q 2866 3266 3181 3116 
L 3181 2266 
L 2847 2266 
Q 2781 2703 2561 2903 
Q 2341 3103 1931 3103 
Q 1466 3103 1228 2742 
Q 991 2381 991 1663 
Q 991 944 1227 581 
Q 1463 219 1931 219 
Q 2303 219 2525 412 
Q 2747 606 2828 997 
L 3291 997 
z
" transform="scale(0.015625)"/>
       <path id="DejaVuSerif-6d" d="M 3316 2675 
Q 3481 3041 3739 3227 
Q 3997 3413 4341 3413 
Q 4863 3413 5119 3089 
Q 5375 2766 5375 2113 
L 5375 331 
L 5894 331 
L 5894 0 
L 4300 0 
L 4300 331 
L 4800 331 
L 4800 2047 
Q 4800 2556 4650 2772 
Q 4500 2988 4153 2988 
Q 3769 2988 3567 2697 
Q 3366 2406 3366 1850 
L 3366 331 
L 3866 331 
L 3866 0 
L 2291 0 
L 2291 331 
L 2791 331 
L 2791 2069 
Q 2791 2566 2641 2777 
Q 2491 2988 2144 2988 
Q 1759 2988 1557 2697 
Q 1356 2406 1356 1850 
L 1356 331 
L 1856 331 
L 1856 0 
L 263 0 
L 263 331 
L 781 331 
L 781 2994 
L 231 2994 
L 231 3322 
L 1356 3322 
L 1356 2731 
Q 1516 3063 1762 3238 
Q 2009 3413 2322 3413 
Q 2709 3413 2968 3220 
Q 3228 3028 3316 2675 
z
" transform="scale(0.015625)"/>
       <path id="DejaVuSerif-70" d="M 1313 1825 
L 1313 1497 
Q 1313 897 1542 583 
Q 1772 269 2209 269 
Q 2650 269 2876 622 
Q 3103 975 3103 1663 
Q 3103 2353 2876 2703 
Q 2650 3053 2209 3053 
Q 1772 3053 1542 2737 
Q 1313 2422 1313 1825 
z
M 738 2988 
L 184 2988 
L 184 3322 
L 1313 3322 
L 1313 2803 
Q 1481 3116 1742 3264 
Q 2003 3413 2388 3413 
Q 3000 3413 3387 2928 
Q 3775 2444 3775 1663 
Q 3775 881 3387 395 
Q 3000 -91 2388 -91 
Q 2003 -91 1742 57 
Q 1481 206 1313 519 
L 1313 -997 
L 1856 -997 
L 1856 -1331 
L 184 -1331 
L 184 -997 
L 738 -997 
L 738 2988 
z
" transform="scale(0.015625)"/>
       <path id="DejaVuSerif-69" d="M 622 4353 
Q 622 4497 726 4603 
Q 831 4709 978 4709 
Q 1122 4709 1226 4603 
Q 1331 4497 1331 4353 
Q 1331 4206 1228 4103 
Q 1125 4000 978 4000 
Q 831 4000 726 4103 
Q 622 4206 622 4353 
z
M 1356 331 
L 1900 331 
L 1900 0 
L 231 0 
L 231 331 
L 781 331 
L 781 2988 
L 231 2988 
L 231 3322 
L 1356 3322 
L 1356 331 
z
" transform="scale(0.015625)"/>
       <path id="DejaVuSerif-6e" d="M 263 0 
L 263 331 
L 781 331 
L 781 2988 
L 231 2988 
L 231 3322 
L 1356 3322 
L 1356 2731 
Q 1516 3069 1770 3241 
Q 2025 3413 2363 3413 
Q 2913 3413 3172 3097 
Q 3431 2781 3431 2113 
L 3431 331 
L 3944 331 
L 3944 0 
L 2356 0 
L 2356 331 
L 2853 331 
L 2853 1931 
Q 2853 2541 2703 2767 
Q 2553 2994 2175 2994 
Q 1775 2994 1565 2701 
Q 1356 2409 1356 1850 
L 1356 331 
L 1856 331 
L 1856 0 
L 263 0 
z
" transform="scale(0.015625)"/>
       <path id="DejaVuSerif-43" d="M 4513 1234 
Q 4306 581 3820 245 
Q 3334 -91 2591 -91 
Q 2134 -91 1743 65 
Q 1353 222 1050 525 
Q 700 875 529 1320 
Q 359 1766 359 2328 
Q 359 3416 987 4083 
Q 1616 4750 2644 4750 
Q 3025 4750 3456 4650 
Q 3888 4550 4384 4347 
L 4384 3272 
L 4031 3272 
Q 3916 3859 3567 4137 
Q 3219 4416 2591 4416 
Q 1844 4416 1459 3886 
Q 1075 3356 1075 2328 
Q 1075 1303 1459 773 
Q 1844 244 2591 244 
Q 3113 244 3450 492 
Q 3788 741 3938 1234 
L 4513 1234 
z
" transform="scale(0.015625)"/>
      </defs>
      <use xlink:href="#DejaVuSerif-54"/>
      <use xlink:href="#DejaVuSerif-6f" transform="translate(58.949219 0)"/>
      <use xlink:href="#DejaVuSerif-74" transform="translate(119.154297 0)"/>
      <use xlink:href="#DejaVuSerif-61" transform="translate(159.339844 0)"/>
      <use xlink:href="#DejaVuSerif-6c" transform="translate(218.958984 0)"/>
      <use xlink:href="#DejaVuSerif-20" transform="translate(250.941406 0)"/>
      <use xlink:href="#DejaVuSerif-52" transform="translate(282.728516 0)"/>
      <use xlink:href="#DejaVuSerif-65" transform="translate(358.021484 0)"/>
      <use xlink:href="#DejaVuSerif-63" transform="translate(417.201172 0)"/>
      <use xlink:href="#DejaVuSerif-6f" transform="translate(473.207031 0)"/>
      <use xlink:href="#DejaVuSerif-6d" transform="translate(533.412109 0)"/>
      <use xlink:href="#DejaVuSerif-70" transform="translate(628.236328 0)"/>
      <use xlink:href="#DejaVuSerif-75" transform="translate(692.25 0)"/>
      <use xlink:href="#DejaVuSerif-74" transform="translate(756.654297 0)"/>
      <use xlink:href="#DejaVuSerif-61" transform="translate(796.839844 0)"/>
      <use xlink:href="#DejaVuSerif-74" transform="translate(856.458984 0)"/>
      <use xlink:href="#DejaVuSerif-69" transform="translate(896.644531 0)"/>
      <use xlink:href="#DejaVuSerif-6f" transform="translate(928.626953 0)"/>
      <use xlink:href="#DejaVuSerif-6e" transform="translate(988.832031 0)"/>
      <use xlink:href="#DejaVuSerif-20" transform="translate(1053.236328 0)"/>
      <use xlink:href="#DejaVuSerif-43" transform="translate(1085.023438 0)"/>
      <use xlink:href="#DejaVuSerif-6f" transform="translate(1161.537109 0)"/>
      <use xlink:href="#DejaVuSerif-75" transform="translate(1221.742188 0)"/>
      <use xlink:href="#DejaVuSerif-6e" transform="translate(1286.146484 0)"/>
      <use xlink:href="#DejaVuSerif-74" transform="translate(1350.550781 0)"/>
     </g>
    </g>
   </g>
   <g id="FillBetweenPolyCollection_1">
    <defs>
     <path id="m352ea82215" d="M 75.70927 -169.030445 
L 75.70927 -169.030445 
L 85.804089 -158.430037 
L 95.898909 -148.299411 
L 105.993728 -138.636565 
L 116.088548 -129.439442 
L 126.183367 -120.705928 
L 136.278187 -112.433848 
L 146.373006 -104.62096 
L 156.467826 -97.264953 
L 166.562645 -90.363441 
L 176.657465 -83.913957 
L 186.752284 -77.913946 
L 196.847104 -72.36076 
L 206.941923 -67.251644 
L 217.036743 -62.583735 
L 227.131562 -58.354045 
L 237.226382 -54.559449 
L 247.321202 -51.196671 
L 257.416021 -49.461302 
L 267.510841 -49.461302 
L 277.60566 -49.461302 
L 287.70048 -49.461302 
L 297.795299 -49.461302 
L 307.890119 -49.461302 
L 317.984938 -49.461302 
L 328.079758 -49.461302 
L 338.174577 -49.461302 
L 348.269397 -49.461302 
L 358.364216 -49.461302 
L 368.459036 -49.461302 
L 378.553855 -49.461302 
L 388.648675 -49.461302 
L 398.743494 -49.461302 
L 398.743494 -46.472074 
L 398.743494 -46.472074 
L 388.648675 -49.005912 
L 378.553855 -54.365506 
L 368.459036 -57.226967 
L 358.364216 -59.848412 
L 348.269397 -62.509591 
L 338.174577 -65.219843 
L 328.079758 -67.987098 
L 317.984938 -70.818281 
L 307.890119 -73.719563 
L 297.795299 -76.696521 
L 287.70048 -79.754256 
L 277.60566 -82.897474 
L 267.510841 -86.13055 
L 257.416021 -89.457576 
L 247.321202 -92.882398 
L 237.226382 -96.408648 
L 227.131562 -100.039771 
L 217.036743 -103.267416 
L 206.941923 -106.256645 
L 196.847104 -109.245873 
L 186.752284 -112.235102 
L 176.657465 -119.878113 
L 166.562645 -121.202788 
L 156.467826 -128.651853 
L 146.373006 -133.228811 
L 136.278187 -137.935704 
L 126.183367 -142.774842 
L 116.088548 -147.748467 
L 105.993728 -152.858754 
L 95.898909 -158.107817 
L 85.804089 -163.497713 
L 75.70927 -169.030445 
z
"/>
    </defs>
    <g clip-path="url(#pd62a95ab34)">
     <use xlink:href="#m352ea82215" x="0" y="291.057422" style="fill-opacity: 0.08"/>
    </g>
   </g>
   <g id="patch_3">
    <path d="M 38.358438 255.197109 
L 38.358438 21.738359 
" style="fill: none; stroke: #000000; stroke-width: 0.8; stroke-linejoin: miter; stroke-linecap: square"/>
   </g>
   <g id="patch_4">
    <path d="M 38.358438 255.197109 
L 415.904687 255.197109 
" style="fill: none; stroke: #000000; stroke-width: 0.8; stroke-linejoin: miter; stroke-linecap: square"/>
   </g>
   <g id="text_18">
    <!-- $B_{\mathrm{store\text{-}all}}$=41 -->
    <g style="fill: #777777" transform="translate(359.556085 221.265072) scale(0.06 -0.06)">
     <defs>
      <path id="DejaVuSans-73" d="M 2834 3397 
L 2834 2853 
Q 2591 2978 2328 3040 
Q 2066 3103 1784 3103 
Q 1356 3103 1142 2972 
Q 928 2841 928 2578 
Q 928 2378 1081 2264 
Q 1234 2150 1697 2047 
L 1894 2003 
Q 2506 1872 2764 1633 
Q 3022 1394 3022 966 
Q 3022 478 2636 193 
Q 2250 -91 1575 -91 
Q 1294 -91 989 -36 
Q 684 19 347 128 
L 347 722 
Q 666 556 975 473 
Q 1284 391 1588 391 
Q 1994 391 2212 530 
Q 2431 669 2431 922 
Q 2431 1156 2273 1281 
Q 2116 1406 1581 1522 
L 1381 1569 
Q 847 1681 609 1914 
Q 372 2147 372 2553 
Q 372 3047 722 3315 
Q 1072 3584 1716 3584 
Q 2034 3584 2315 3537 
Q 2597 3491 2834 3397 
z
" transform="scale(0.015625)"/>
      <path id="DejaVuSans-74" d="M 1172 4494 
L 1172 3500 
L 2356 3500 
L 2356 3053 
L 1172 3053 
L 1172 1153 
Q 1172 725 1289 603 
Q 1406 481 1766 481 
L 2356 481 
L 2356 0 
L 1766 0 
Q 1100 0 847 248 
Q 594 497 594 1153 
L 594 3053 
L 172 3053 
L 172 3500 
L 594 3500 
L 594 4494 
L 1172 4494 
z
" transform="scale(0.015625)"/>
      <path id="DejaVuSans-6f" d="M 1959 3097 
Q 1497 3097 1228 2736 
Q 959 2375 959 1747 
Q 959 1119 1226 758 
Q 1494 397 1959 397 
Q 2419 397 2687 759 
Q 2956 1122 2956 1747 
Q 2956 2369 2687 2733 
Q 2419 3097 1959 3097 
z
M 1959 3584 
Q 2709 3584 3137 3096 
Q 3566 2609 3566 1747 
Q 3566 888 3137 398 
Q 2709 -91 1959 -91 
Q 1206 -91 779 398 
Q 353 888 353 1747 
Q 353 2609 779 3096 
Q 1206 3584 1959 3584 
z
" transform="scale(0.015625)"/>
      <path id="DejaVuSans-72" d="M 2631 2963 
Q 2534 3019 2420 3045 
Q 2306 3072 2169 3072 
Q 1681 3072 1420 2755 
Q 1159 2438 1159 1844 
L 1159 0 
L 581 0 
L 581 3500 
L 1159 3500 
L 1159 2956 
Q 1341 3275 1631 3429 
Q 1922 3584 2338 3584 
Q 2397 3584 2469 3576 
Q 2541 3569 2628 3553 
L 2631 2963 
z
" transform="scale(0.015625)"/>
      <path id="DejaVuSans-65" d="M 3597 1894 
L 3597 1613 
L 953 1613 
Q 991 1019 1311 708 
Q 1631 397 2203 397 
Q 2534 397 2845 478 
Q 3156 559 3463 722 
L 3463 178 
Q 3153 47 2828 -22 
Q 2503 -91 2169 -91 
Q 1331 -91 842 396 
Q 353 884 353 1716 
Q 353 2575 817 3079 
Q 1281 3584 2069 3584 
Q 2775 3584 3186 3129 
Q 3597 2675 3597 1894 
z
M 3022 2063 
Q 3016 2534 2758 2815 
Q 2500 3097 2075 3097 
Q 1594 3097 1305 2825 
Q 1016 2553 972 2059 
L 3022 2063 
z
" transform="scale(0.015625)"/>
      <path id="DejaVuSans-2d" d="M 313 2009 
L 1997 2009 
L 1997 1497 
L 313 1497 
L 313 2009 
z
" transform="scale(0.015625)"/>
      <path id="DejaVuSans-61" d="M 2194 1759 
Q 1497 1759 1228 1600 
Q 959 1441 959 1056 
Q 959 750 1161 570 
Q 1363 391 1709 391 
Q 2188 391 2477 730 
Q 2766 1069 2766 1631 
L 2766 1759 
L 2194 1759 
z
M 3341 1997 
L 3341 0 
L 2766 0 
L 2766 531 
Q 2569 213 2275 61 
Q 1981 -91 1556 -91 
Q 1019 -91 701 211 
Q 384 513 384 1019 
Q 384 1609 779 1909 
Q 1175 2209 1959 2209 
L 2766 2209 
L 2766 2266 
Q 2766 2663 2505 2880 
Q 2244 3097 1772 3097 
Q 1472 3097 1187 3025 
Q 903 2953 641 2809 
L 641 3341 
Q 956 3463 1253 3523 
Q 1550 3584 1831 3584 
Q 2591 3584 2966 3190 
Q 3341 2797 3341 1997 
z
" transform="scale(0.015625)"/>
      <path id="DejaVuSans-6c" d="M 603 4863 
L 1178 4863 
L 1178 0 
L 603 0 
L 603 4863 
z
" transform="scale(0.015625)"/>
      <path id="DejaVuSerif-3d" d="M 678 2894 
L 4684 2894 
L 4684 2394 
L 678 2394 
L 678 2894 
z
M 678 1619 
L 4684 1619 
L 4684 1119 
L 678 1119 
L 678 1619 
z
" transform="scale(0.015625)"/>
     </defs>
     <use xlink:href="#DejaVuSans-Oblique-42" transform="translate(0 0.78125)"/>
     <use xlink:href="#DejaVuSans-73" transform="translate(68.603516 -15.625) scale(0.7)"/>
     <use xlink:href="#DejaVuSans-74" transform="translate(105.073242 -15.625) scale(0.7)"/>
     <use xlink:href="#DejaVuSans-6f" transform="translate(132.519531 -15.625) scale(0.7)"/>
     <use xlink:href="#DejaVuSans-72" transform="translate(175.34668 -15.625) scale(0.7)"/>
     <use xlink:href="#DejaVuSans-65" transform="translate(204.125977 -15.625) scale(0.7)"/>
     <use xlink:href="#DejaVuSans-2d" transform="translate(247.192383 -15.625) scale(0.7)"/>
     <use xlink:href="#DejaVuSans-61" transform="translate(272.451172 -15.625) scale(0.7)"/>
     <use xlink:href="#DejaVuSans-6c" transform="translate(315.34668 -15.625) scale(0.7)"/>
     <use xlink:href="#DejaVuSans-6c" transform="translate(334.794922 -15.625) scale(0.7)"/>
     <use xlink:href="#DejaVuSerif-3d" transform="translate(356.977539 0.78125)"/>
     <use xlink:href="#DejaVuSerif-34" transform="translate(440.766602 0.78125)"/>
     <use xlink:href="#DejaVuSerif-31" transform="translate(504.389648 0.78125)"/>
    </g>
   </g>
   <g id="text_19">
    <!-- $B_{\min}$=7 -->
    <g style="opacity: 0.75" transform="translate(59.557558 235.168613) scale(0.065 -0.065)">
     <defs>
      <path id="DejaVuSans-6d" d="M 3328 2828 
Q 3544 3216 3844 3400 
Q 4144 3584 4550 3584 
Q 5097 3584 5394 3201 
Q 5691 2819 5691 2113 
L 5691 0 
L 5113 0 
L 5113 2094 
Q 5113 2597 4934 2840 
Q 4756 3084 4391 3084 
Q 3944 3084 3684 2787 
Q 3425 2491 3425 1978 
L 3425 0 
L 2847 0 
L 2847 2094 
Q 2847 2600 2669 2842 
Q 2491 3084 2119 3084 
Q 1678 3084 1418 2786 
Q 1159 2488 1159 1978 
L 1159 0 
L 581 0 
L 581 3500 
L 1159 3500 
L 1159 2956 
Q 1356 3278 1631 3431 
Q 1906 3584 2284 3584 
Q 2666 3584 2933 3390 
Q 3200 3197 3328 2828 
z
" transform="scale(0.015625)"/>
      <path id="DejaVuSans-69" d="M 603 3500 
L 1178 3500 
L 1178 0 
L 603 0 
L 603 3500 
z
M 603 4863 
L 1178 4863 
L 1178 4134 
L 603 4134 
L 603 4863 
z
" transform="scale(0.015625)"/>
      <path id="DejaVuSans-6e" d="M 3513 2113 
L 3513 0 
L 2938 0 
L 2938 2094 
Q 2938 2591 2744 2837 
Q 2550 3084 2163 3084 
Q 1697 3084 1428 2787 
Q 1159 2491 1159 1978 
L 1159 0 
L 581 0 
L 581 3500 
L 1159 3500 
L 1159 2956 
Q 1366 3272 1645 3428 
Q 1925 3584 2291 3584 
Q 2894 3584 3203 3211 
Q 3513 2838 3513 2113 
z
" transform="scale(0.015625)"/>
     </defs>
     <use xlink:href="#DejaVuSans-Oblique-42" transform="translate(0 0.09375)"/>
     <use xlink:href="#DejaVuSans-6d" transform="translate(68.603516 -16.3125) scale(0.7)"/>
     <use xlink:href="#DejaVuSans-69" transform="translate(136.791992 -16.3125) scale(0.7)"/>
     <use xlink:href="#DejaVuSans-6e" transform="translate(156.240234 -16.3125) scale(0.7)"/>
     <use xlink:href="#DejaVuSerif-3d" transform="translate(203.339844 0.09375)"/>
     <use xlink:href="#DejaVuSerif-37" transform="translate(287.128906 0.09375)"/>
    </g>
   </g>
   <g id="text_20">
    <!-- $B_{\min}$=20 -->
    <g style="fill: #1f5faa; opacity: 0.75" transform="translate(190.790212 235.168613) scale(0.065 -0.065)">
     <use xlink:href="#DejaVuSans-Oblique-42" transform="translate(0 0.78125)"/>
     <use xlink:href="#DejaVuSans-6d" transform="translate(68.603516 -15.625) scale(0.7)"/>
     <use xlink:href="#DejaVuSans-69" transform="translate(136.791992 -15.625) scale(0.7)"/>
     <use xlink:href="#DejaVuSans-6e" transform="translate(156.240234 -15.625) scale(0.7)"/>
     <use xlink:href="#DejaVuSerif-3d" transform="translate(203.339844 0.78125)"/>
     <use xlink:href="#DejaVuSerif-32" transform="translate(287.128906 0.78125)"/>
     <use xlink:href="#DejaVuSerif-30" transform="translate(350.751953 0.78125)"/>
    </g>
   </g>
   <g id="text_21">
    <!-- $B_{\min}$=18 -->
    <g style="fill: #d47020; opacity: 0.75" transform="translate(170.600573 221.161088) scale(0.065 -0.065)">
     <defs>
      <path id="DejaVuSerif-38" d="M 2981 1275 
Q 2981 1775 2732 2051 
Q 2484 2328 2034 2328 
Q 1584 2328 1336 2051 
Q 1088 1775 1088 1275 
Q 1088 772 1336 495 
Q 1584 219 2034 219 
Q 2484 219 2732 495 
Q 2981 772 2981 1275 
z
M 2853 3541 
Q 2853 3966 2637 4203 
Q 2422 4441 2034 4441 
Q 1650 4441 1433 4203 
Q 1216 3966 1216 3541 
Q 1216 3113 1433 2875 
Q 1650 2638 2034 2638 
Q 2422 2638 2637 2875 
Q 2853 3113 2853 3541 
z
M 2516 2484 
Q 3047 2413 3344 2092 
Q 3641 1772 3641 1275 
Q 3641 619 3225 264 
Q 2809 -91 2034 -91 
Q 1263 -91 845 264 
Q 428 619 428 1275 
Q 428 1772 725 2092 
Q 1022 2413 1556 2484 
Q 1084 2569 832 2842 
Q 581 3116 581 3541 
Q 581 4103 968 4426 
Q 1356 4750 2034 4750 
Q 2713 4750 3100 4426 
Q 3488 4103 3488 3541 
Q 3488 3116 3236 2842 
Q 2984 2569 2516 2484 
z
" transform="scale(0.015625)"/>
     </defs>
     <use xlink:href="#DejaVuSans-Oblique-42" transform="translate(0 0.78125)"/>
     <use xlink:href="#DejaVuSans-6d" transform="translate(68.603516 -15.625) scale(0.7)"/>
     <use xlink:href="#DejaVuSans-69" transform="translate(136.791992 -15.625) scale(0.7)"/>
     <use xlink:href="#DejaVuSans-6e" transform="translate(156.240234 -15.625) scale(0.7)"/>
     <use xlink:href="#DejaVuSerif-3d" transform="translate(203.339844 0.78125)"/>
     <use xlink:href="#DejaVuSerif-31" transform="translate(287.128906 0.78125)"/>
     <use xlink:href="#DejaVuSerif-38" transform="translate(350.751953 0.78125)"/>
    </g>
   </g>
   <g id="text_22">
    <!-- Budgeted Reversible Compilation Recomputation vs. Ancilla Budget -->
    <g transform="translate(45.733398 13.738359) scale(0.105 -0.105)">
     <defs>
      <path id="DejaVuSerif-76" d="M 1581 0 
L 359 2988 
L -19 2988 
L -19 3322 
L 1509 3322 
L 1509 2988 
L 978 2988 
L 1913 703 
L 2847 2988 
L 2350 2988 
L 2350 3322 
L 3597 3322 
L 3597 2988 
L 3225 2988 
L 2003 0 
L 1581 0 
z
" transform="scale(0.015625)"/>
      <path id="DejaVuSerif-72" d="M 3059 3328 
L 3059 2497 
L 2728 2497 
Q 2713 2744 2591 2866 
Q 2469 2988 2234 2988 
Q 1809 2988 1582 2694 
Q 1356 2400 1356 1850 
L 1356 331 
L 2022 331 
L 2022 0 
L 263 0 
L 263 331 
L 781 331 
L 781 2994 
L 231 2994 
L 231 3322 
L 1356 3322 
L 1356 2731 
Q 1525 3078 1790 3245 
Q 2056 3413 2438 3413 
Q 2578 3413 2733 3391 
Q 2888 3369 3059 3328 
z
" transform="scale(0.015625)"/>
      <path id="DejaVuSerif-73" d="M 359 184 
L 359 959 
L 691 959 
Q 703 588 923 403 
Q 1144 219 1575 219 
Q 1963 219 2166 364 
Q 2369 509 2369 788 
Q 2369 1006 2220 1140 
Q 2072 1275 1594 1428 
L 1178 1569 
Q 750 1706 558 1912 
Q 366 2119 366 2438 
Q 366 2894 700 3153 
Q 1034 3413 1625 3413 
Q 1888 3413 2178 3344 
Q 2469 3275 2778 3144 
L 2778 2419 
L 2447 2419 
Q 2434 2741 2221 2922 
Q 2009 3103 1644 3103 
Q 1281 3103 1095 2975 
Q 909 2847 909 2591 
Q 909 2381 1050 2254 
Q 1191 2128 1613 1997 
L 2069 1856 
Q 2541 1709 2748 1489 
Q 2956 1269 2956 922 
Q 2956 450 2595 179 
Q 2234 -91 1600 -91 
Q 1278 -91 972 -22 
Q 666 47 359 184 
z
" transform="scale(0.015625)"/>
      <path id="DejaVuSerif-62" d="M 738 331 
L 738 4531 
L 184 4531 
L 184 4863 
L 1313 4863 
L 1313 2803 
Q 1481 3116 1742 3264 
Q 2003 3413 2388 3413 
Q 3000 3413 3387 2928 
Q 3775 2444 3775 1663 
Q 3775 881 3387 395 
Q 3000 -91 2388 -91 
Q 2003 -91 1742 57 
Q 1481 206 1313 519 
L 1313 0 
L 184 0 
L 184 331 
L 738 331 
z
M 1313 1497 
Q 1313 897 1542 583 
Q 1772 269 2209 269 
Q 2650 269 2876 622 
Q 3103 975 3103 1663 
Q 3103 2353 2876 2703 
Q 2650 3053 2209 3053 
Q 1772 3053 1542 2737 
Q 1313 2422 1313 1825 
L 1313 1497 
z
" transform="scale(0.015625)"/>
      <path id="DejaVuSerif-2e" d="M 603 325 
Q 603 500 722 622 
Q 841 744 1019 744 
Q 1191 744 1312 622 
Q 1434 500 1434 325 
Q 1434 153 1312 31 
Q 1191 -91 1019 -91 
Q 841 -91 722 29 
Q 603 150 603 325 
z
" transform="scale(0.015625)"/>
      <path id="DejaVuSerif-41" d="M 1281 1691 
L 2994 1691 
L 2138 3909 
L 1281 1691 
z
M -38 0 
L -38 331 
L 372 331 
L 2034 4666 
L 2559 4666 
L 4225 331 
L 4684 331 
L 4684 0 
L 2988 0 
L 2988 331 
L 3506 331 
L 3116 1356 
L 1153 1356 
L 763 331 
L 1275 331 
L 1275 0 
L -38 0 
z
" transform="scale(0.015625)"/>
     </defs>
     <use xlink:href="#DejaVuSerif-42"/>
     <use xlink:href="#DejaVuSerif-75" transform="translate(73.486328 0)"/>
     <use xlink:href="#DejaVuSerif-64" transform="translate(137.890625 0)"/>
     <use xlink:href="#DejaVuSerif-67" transform="translate(201.904297 0)"/>
     <use xlink:href="#DejaVuSerif-65" transform="translate(265.917969 0)"/>
     <use xlink:href="#DejaVuSerif-74" transform="translate(325.097656 0)"/>
     <use xlink:href="#DejaVuSerif-65" transform="translate(365.283203 0)"/>
     <use xlink:href="#DejaVuSerif-64" transform="translate(424.462891 0)"/>
     <use xlink:href="#DejaVuSerif-20" transform="translate(488.476562 0)"/>
     <use xlink:href="#DejaVuSerif-52" transform="translate(520.263672 0)"/>
     <use xlink:href="#DejaVuSerif-65" transform="translate(595.556641 0)"/>
     <use xlink:href="#DejaVuSerif-76" transform="translate(654.736328 0)"/>
     <use xlink:href="#DejaVuSerif-65" transform="translate(711.230469 0)"/>
     <use xlink:href="#DejaVuSerif-72" transform="translate(770.410156 0)"/>
     <use xlink:href="#DejaVuSerif-73" transform="translate(818.212891 0)"/>
     <use xlink:href="#DejaVuSerif-69" transform="translate(869.53125 0)"/>
     <use xlink:href="#DejaVuSerif-62" transform="translate(901.513672 0)"/>
     <use xlink:href="#DejaVuSerif-6c" transform="translate(965.527344 0)"/>
     <use xlink:href="#DejaVuSerif-65" transform="translate(997.509766 0)"/>
     <use xlink:href="#DejaVuSerif-20" transform="translate(1056.689453 0)"/>
     <use xlink:href="#DejaVuSerif-43" transform="translate(1088.476562 0)"/>
     <use xlink:href="#DejaVuSerif-6f" transform="translate(1164.990234 0)"/>
     <use xlink:href="#DejaVuSerif-6d" transform="translate(1225.195312 0)"/>
     <use xlink:href="#DejaVuSerif-70" transform="translate(1320.019531 0)"/>
     <use xlink:href="#DejaVuSerif-69" transform="translate(1384.033203 0)"/>
     <use xlink:href="#DejaVuSerif-6c" transform="translate(1416.015625 0)"/>
     <use xlink:href="#DejaVuSerif-61" transform="translate(1447.998047 0)"/>
     <use xlink:href="#DejaVuSerif-74" transform="translate(1507.617188 0)"/>
     <use xlink:href="#DejaVuSerif-69" transform="translate(1547.802734 0)"/>
     <use xlink:href="#DejaVuSerif-6f" transform="translate(1579.785156 0)"/>
     <use xlink:href="#DejaVuSerif-6e" transform="translate(1639.990234 0)"/>
     <use xlink:href="#DejaVuSerif-20" transform="translate(1704.394531 0)"/>
     <use xlink:href="#DejaVuSerif-52" transform="translate(1736.181641 0)"/>
     <use xlink:href="#DejaVuSerif-65" transform="translate(1811.474609 0)"/>
     <use xlink:href="#DejaVuSerif-63" transform="translate(1870.654297 0)"/>
     <use xlink:href="#DejaVuSerif-6f" transform="translate(1926.660156 0)"/>
     <use xlink:href="#DejaVuSerif-6d" transform="translate(1986.865234 0)"/>
     <use xlink:href="#DejaVuSerif-70" transform="translate(2081.689453 0)"/>
     <use xlink:href="#DejaVuSerif-75" transform="translate(2145.703125 0)"/>
     <use xlink:href="#DejaVuSerif-74" transform="translate(2210.107422 0)"/>
     <use xlink:href="#DejaVuSerif-61" transform="translate(2250.292969 0)"/>
     <use xlink:href="#DejaVuSerif-74" transform="translate(2309.912109 0)"/>
     <use xlink:href="#DejaVuSerif-69" transform="translate(2350.097656 0)"/>
     <use xlink:href="#DejaVuSerif-6f" transform="translate(2382.080078 0)"/>
     <use xlink:href="#DejaVuSerif-6e" transform="translate(2442.285156 0)"/>
     <use xlink:href="#DejaVuSerif-20" transform="translate(2506.689453 0)"/>
     <use xlink:href="#DejaVuSerif-76" transform="translate(2538.476562 0)"/>
     <use xlink:href="#DejaVuSerif-73" transform="translate(2594.970703 0)"/>
     <use xlink:href="#DejaVuSerif-2e" transform="translate(2646.289062 0)"/>
     <use xlink:href="#DejaVuSerif-20" transform="translate(2678.076172 0)"/>
     <use xlink:href="#DejaVuSerif-41" transform="translate(2709.863281 0)"/>
     <use xlink:href="#DejaVuSerif-6e" transform="translate(2782.080078 0)"/>
     <use xlink:href="#DejaVuSerif-63" transform="translate(2846.484375 0)"/>
     <use xlink:href="#DejaVuSerif-69" transform="translate(2902.490234 0)"/>
     <use xlink:href="#DejaVuSerif-6c" transform="translate(2934.472656 0)"/>
     <use xlink:href="#DejaVuSerif-6c" transform="translate(2966.455078 0)"/>
     <use xlink:href="#DejaVuSerif-61" transform="translate(2998.4375 0)"/>
     <use xlink:href="#DejaVuSerif-20" transform="translate(3058.056641 0)"/>
     <use xlink:href="#DejaVuSerif-42" transform="translate(3089.84375 0)"/>
     <use xlink:href="#DejaVuSerif-75" transform="translate(3163.330078 0)"/>
     <use xlink:href="#DejaVuSerif-64" transform="translate(3227.734375 0)"/>
     <use xlink:href="#DejaVuSerif-67" transform="translate(3291.748047 0)"/>
     <use xlink:href="#DejaVuSerif-65" transform="translate(3355.761719 0)"/>
     <use xlink:href="#DejaVuSerif-74" transform="translate(3414.941406 0)"/>
    </g>
   </g>
   <g id="patch_5">
    <path d="M 161.515236 196.757691 
L 242.273792 196.757691 
L 242.273792 163.876177 
L 161.515236 163.876177 
L 161.515236 196.757691 
z
M 204.478787 49.753409 
Q 182.997012 106.814793 161.515236 163.876177 
M 347.946363 143.136909 
Q 295.110077 169.9473 242.273792 196.757691 
" style="fill: none; opacity: 0.5; stroke: #888888; stroke-width: 0.6; stroke-linejoin: miter"/>
   </g>
   <g id="axes_2">
    <g id="patch_6">
     <path d="M 204.478787 143.136909 
L 347.946363 143.136909 
L 347.946363 49.753409 
L 204.478787 49.753409 
z
" style="fill: #ffffff"/>
    </g>
    <g id="matplotlib.axis_3">
     <g id="xtick_8">
      <g id="line2d_35">
       <path d="M 213.445511 143.136909 
L 213.445511 49.753409 
" clip-path="url(#pa0db07bc16)" style="fill: none; stroke: #aaaaaa; stroke-opacity: 0.35; stroke-width: 0.25; stroke-linecap: square"/>
      </g>
      <g id="line2d_36">
       <defs>
        <path id="m503936968d" d="M 0 0 
L 0 1.5 
" style="stroke: #000000; stroke-width: 0.8"/>
       </defs>
       <g>
        <use xlink:href="#m503936968d" x="213.445511" y="143.136909" style="stroke: #000000; stroke-width: 0.8"/>
       </g>
      </g>
      <g id="text_23">
       <!-- 18 -->
       <g transform="translate(209.946136 150.31605) scale(0.055 -0.055)">
        <use xlink:href="#DejaVuSerif-31"/>
        <use xlink:href="#DejaVuSerif-38" transform="translate(63.623047 0)"/>
       </g>
      </g>
     </g>
     <g id="xtick_9">
      <g id="line2d_37">
       <path d="M 231.378958 143.136909 
L 231.378958 49.753409 
" clip-path="url(#pa0db07bc16)" style="fill: none; stroke: #aaaaaa; stroke-opacity: 0.35; stroke-width: 0.25; stroke-linecap: square"/>
      </g>
      <g id="line2d_38">
       <g>
        <use xlink:href="#m503936968d" x="231.378958" y="143.136909" style="stroke: #000000; stroke-width: 0.8"/>
       </g>
      </g>
      <g id="text_24">
       <!-- 19 -->
       <g transform="translate(227.879583 150.31605) scale(0.055 -0.055)">
        <defs>
         <path id="DejaVuSerif-39" d="M 2994 2091 
Q 2784 1856 2512 1740 
Q 2241 1625 1900 1625 
Q 1206 1625 804 2044 
Q 403 2463 403 3188 
Q 403 3897 839 4323 
Q 1275 4750 2003 4750 
Q 2794 4750 3217 4161 
Q 3641 3572 3641 2478 
Q 3641 1253 3137 581 
Q 2634 -91 1722 -91 
Q 1475 -91 1203 -44 
Q 931 3 647 97 
L 647 872 
L 997 872 
Q 1038 556 1241 387 
Q 1444 219 1784 219 
Q 2391 219 2687 676 
Q 2984 1134 2994 2091 
z
M 1978 4441 
Q 1534 4441 1298 4117 
Q 1063 3794 1063 3188 
Q 1063 2581 1298 2256 
Q 1534 1931 1978 1931 
Q 2422 1931 2658 2245 
Q 2894 2559 2894 3150 
Q 2894 3772 2656 4106 
Q 2419 4441 1978 4441 
z
" transform="scale(0.015625)"/>
        </defs>
        <use xlink:href="#DejaVuSerif-31"/>
        <use xlink:href="#DejaVuSerif-39" transform="translate(63.623047 0)"/>
       </g>
      </g>
     </g>
     <g id="xtick_10">
      <g id="line2d_39">
       <path d="M 249.312405 143.136909 
L 249.312405 49.753409 
" clip-path="url(#pa0db07bc16)" style="fill: none; stroke: #aaaaaa; stroke-opacity: 0.35; stroke-width: 0.25; stroke-linecap: square"/>
      </g>
      <g id="line2d_40">
       <g>
        <use xlink:href="#m503936968d" x="249.312405" y="143.136909" style="stroke: #000000; stroke-width: 0.8"/>
       </g>
      </g>
      <g id="text_25">
       <!-- 20 -->
       <g transform="translate(245.81303 150.31605) scale(0.055 -0.055)">
        <use xlink:href="#DejaVuSerif-32"/>
        <use xlink:href="#DejaVuSerif-30" transform="translate(63.623047 0)"/>
       </g>
      </g>
     </g>
     <g id="xtick_11">
      <g id="line2d_41">
       <path d="M 267.245852 143.136909 
L 267.245852 49.753409 
" clip-path="url(#pa0db07bc16)" style="fill: none; stroke: #aaaaaa; stroke-opacity: 0.35; stroke-width: 0.25; stroke-linecap: square"/>
      </g>
      <g id="line2d_42">
       <g>
        <use xlink:href="#m503936968d" x="267.245852" y="143.136909" style="stroke: #000000; stroke-width: 0.8"/>
       </g>
      </g>
      <g id="text_26">
       <!-- 21 -->
       <g transform="translate(263.746477 150.31605) scale(0.055 -0.055)">
        <use xlink:href="#DejaVuSerif-32"/>
        <use xlink:href="#DejaVuSerif-31" transform="translate(63.623047 0)"/>
       </g>
      </g>
     </g>
     <g id="xtick_12">
      <g id="line2d_43">
       <path d="M 285.179298 143.136909 
L 285.179298 49.753409 
" clip-path="url(#pa0db07bc16)" style="fill: none; stroke: #aaaaaa; stroke-opacity: 0.35; stroke-width: 0.25; stroke-linecap: square"/>
      </g>
      <g id="line2d_44">
       <g>
        <use xlink:href="#m503936968d" x="285.179298" y="143.136909" style="stroke: #000000; stroke-width: 0.8"/>
       </g>
      </g>
      <g id="text_27">
       <!-- 22 -->
       <g transform="translate(281.679923 150.31605) scale(0.055 -0.055)">
        <use xlink:href="#DejaVuSerif-32"/>
        <use xlink:href="#DejaVuSerif-32" transform="translate(63.623047 0)"/>
       </g>
      </g>
     </g>
     <g id="xtick_13">
      <g id="line2d_45">
       <path d="M 303.112745 143.136909 
L 303.112745 49.753409 
" clip-path="url(#pa0db07bc16)" style="fill: none; stroke: #aaaaaa; stroke-opacity: 0.35; stroke-width: 0.25; stroke-linecap: square"/>
      </g>
      <g id="line2d_46">
       <g>
        <use xlink:href="#m503936968d" x="303.112745" y="143.136909" style="stroke: #000000; stroke-width: 0.8"/>
       </g>
      </g>
      <g id="text_28">
       <!-- 23 -->
       <g transform="translate(299.61337 150.31605) scale(0.055 -0.055)">
        <use xlink:href="#DejaVuSerif-32"/>
        <use xlink:href="#DejaVuSerif-33" transform="translate(63.623047 0)"/>
       </g>
      </g>
     </g>
     <g id="xtick_14">
      <g id="line2d_47">
       <path d="M 321.046192 143.136909 
L 321.046192 49.753409 
" clip-path="url(#pa0db07bc16)" style="fill: none; stroke: #aaaaaa; stroke-opacity: 0.35; stroke-width: 0.25; stroke-linecap: square"/>
      </g>
      <g id="line2d_48">
       <g>
        <use xlink:href="#m503936968d" x="321.046192" y="143.136909" style="stroke: #000000; stroke-width: 0.8"/>
       </g>
      </g>
      <g id="text_29">
       <!-- 24 -->
       <g transform="translate(317.546817 150.31605) scale(0.055 -0.055)">
        <use xlink:href="#DejaVuSerif-32"/>
        <use xlink:href="#DejaVuSerif-34" transform="translate(63.623047 0)"/>
       </g>
      </g>
     </g>
     <g id="xtick_15">
      <g id="line2d_49">
       <path d="M 338.979639 143.136909 
L 338.979639 49.753409 
" clip-path="url(#pa0db07bc16)" style="fill: none; stroke: #aaaaaa; stroke-opacity: 0.35; stroke-width: 0.25; stroke-linecap: square"/>
      </g>
      <g id="line2d_50">
       <g>
        <use xlink:href="#m503936968d" x="338.979639" y="143.136909" style="stroke: #000000; stroke-width: 0.8"/>
       </g>
      </g>
      <g id="text_30">
       <!-- 25 -->
       <g transform="translate(335.480264 150.31605) scale(0.055 -0.055)">
        <use xlink:href="#DejaVuSerif-32"/>
        <use xlink:href="#DejaVuSerif-35" transform="translate(63.623047 0)"/>
       </g>
      </g>
     </g>
    </g>
    <g id="matplotlib.axis_4">
     <g id="ytick_9">
      <g id="line2d_51">
       <path d="M 204.478787 134.6475 
L 347.946363 134.6475 
" clip-path="url(#pa0db07bc16)" style="fill: none; stroke: #aaaaaa; stroke-opacity: 0.35; stroke-width: 0.25; stroke-linecap: square"/>
      </g>
      <g id="line2d_52">
       <defs>
        <path id="m1c2e8d788c" d="M 0 0 
L -1.5 0 
" style="stroke: #000000; stroke-width: 0.8"/>
       </defs>
       <g>
        <use xlink:href="#m1c2e8d788c" x="204.478787" y="134.6475" style="stroke: #000000; stroke-width: 0.8"/>
       </g>
      </g>
      <g id="text_31">
       <!-- 16 -->
       <g transform="translate(194.480037 136.737071) scale(0.055 -0.055)">
        <use xlink:href="#DejaVuSerif-31"/>
        <use xlink:href="#DejaVuSerif-36" transform="translate(63.623047 0)"/>
       </g>
      </g>
     </g>
     <g id="ytick_10">
      <g id="line2d_53">
       <path d="M 204.478787 117.668682 
L 347.946363 117.668682 
" clip-path="url(#pa0db07bc16)" style="fill: none; stroke: #aaaaaa; stroke-opacity: 0.35; stroke-width: 0.25; stroke-linecap: square"/>
      </g>
      <g id="line2d_54">
       <g>
        <use xlink:href="#m1c2e8d788c" x="204.478787" y="117.668682" style="stroke: #000000; stroke-width: 0.8"/>
       </g>
      </g>
      <g id="text_32">
       <!-- 18 -->
       <g transform="translate(194.480037 119.758252) scale(0.055 -0.055)">
        <use xlink:href="#DejaVuSerif-31"/>
        <use xlink:href="#DejaVuSerif-38" transform="translate(63.623047 0)"/>
       </g>
      </g>
     </g>
     <g id="ytick_11">
      <g id="line2d_55">
       <path d="M 204.478787 100.689864 
L 347.946363 100.689864 
" clip-path="url(#pa0db07bc16)" style="fill: none; stroke: #aaaaaa; stroke-opacity: 0.35; stroke-width: 0.25; stroke-linecap: square"/>
      </g>
      <g id="line2d_56">
       <g>
        <use xlink:href="#m1c2e8d788c" x="204.478787" y="100.689864" style="stroke: #000000; stroke-width: 0.8"/>
       </g>
      </g>
      <g id="text_33">
       <!-- 20 -->
       <g transform="translate(194.480037 102.779434) scale(0.055 -0.055)">
        <use xlink:href="#DejaVuSerif-32"/>
        <use xlink:href="#DejaVuSerif-30" transform="translate(63.623047 0)"/>
       </g>
      </g>
     </g>
     <g id="ytick_12">
      <g id="line2d_57">
       <path d="M 204.478787 83.711046 
L 347.946363 83.711046 
" clip-path="url(#pa0db07bc16)" style="fill: none; stroke: #aaaaaa; stroke-opacity: 0.35; stroke-width: 0.25; stroke-linecap: square"/>
      </g>
      <g id="line2d_58">
       <g>
        <use xlink:href="#m1c2e8d788c" x="204.478787" y="83.711046" style="stroke: #000000; stroke-width: 0.8"/>
       </g>
      </g>
      <g id="text_34">
       <!-- 22 -->
       <g transform="translate(194.480037 85.800616) scale(0.055 -0.055)">
        <use xlink:href="#DejaVuSerif-32"/>
        <use xlink:href="#DejaVuSerif-32" transform="translate(63.623047 0)"/>
       </g>
      </g>
     </g>
     <g id="ytick_13">
      <g id="line2d_59">
       <path d="M 204.478787 66.732228 
L 347.946363 66.732228 
" clip-path="url(#pa0db07bc16)" style="fill: none; stroke: #aaaaaa; stroke-opacity: 0.35; stroke-width: 0.25; stroke-linecap: square"/>
      </g>
      <g id="line2d_60">
       <g>
        <use xlink:href="#m1c2e8d788c" x="204.478787" y="66.732228" style="stroke: #000000; stroke-width: 0.8"/>
       </g>
      </g>
      <g id="text_35">
       <!-- 24 -->
       <g transform="translate(194.480037 68.821798) scale(0.055 -0.055)">
        <use xlink:href="#DejaVuSerif-32"/>
        <use xlink:href="#DejaVuSerif-34" transform="translate(63.623047 0)"/>
       </g>
      </g>
     </g>
     <g id="ytick_14">
      <g id="line2d_61">
       <path d="M 204.478787 49.753409 
L 347.946363 49.753409 
" clip-path="url(#pa0db07bc16)" style="fill: none; stroke: #aaaaaa; stroke-opacity: 0.35; stroke-width: 0.25; stroke-linecap: square"/>
      </g>
      <g id="line2d_62">
       <g>
        <use xlink:href="#m1c2e8d788c" x="204.478787" y="49.753409" style="stroke: #000000; stroke-width: 0.8"/>
       </g>
      </g>
      <g id="text_36">
       <!-- 26 -->
       <g transform="translate(194.480037 51.84298) scale(0.055 -0.055)">
        <use xlink:href="#DejaVuSerif-32"/>
        <use xlink:href="#DejaVuSerif-36" transform="translate(63.623047 0)"/>
       </g>
      </g>
     </g>
    </g>
    <g id="FillBetweenPolyCollection_2">
     <path d="M 52.044489 -69.098318 
L 52.044489 -69.098318 
L 69.977936 -38.99316 
L 87.911383 -10.222183 
L 105.84483 17.2203 
L 123.778277 43.340129 
L 141.711723 68.143308 
L 159.64517 91.636017 
L 177.578617 113.824619 
L 195.512064 134.715679 
L 213.445511 154.315972 
L 231.378958 172.632506 
L 249.312405 189.672537 
L 267.245852 205.443587 
L 285.179298 219.953475 
L 303.112745 233.210336 
L 321.046192 245.222657 
L 338.979639 255.999311 
L 356.913086 265.549598 
L 374.846533 270.478046 
L 392.77998 270.478046 
L 410.713427 270.478046 
L 428.646873 270.478046 
L 446.58032 270.478046 
L 464.513767 270.478046 
L 482.447214 270.478046 
L 500.380661 270.478046 
L 518.314108 270.478046 
L 536.247555 270.478046 
L 554.181002 270.478046 
L 572.114448 270.478046 
L 590.047895 270.478046 
L 607.981342 270.478046 
L 625.914789 270.478046 
L 625.914789 278.967455 
L 625.914789 278.967455 
L 607.981342 271.771354 
L 590.047895 256.550109 
L 572.114448 248.423559 
L 554.181002 240.978655 
L 536.247555 233.420906 
L 518.314108 225.72379 
L 500.380661 217.864786 
L 482.447214 209.824226 
L 464.513767 201.584586 
L 446.58032 193.130025 
L 428.646873 184.446058 
L 410.713427 175.519319 
L 392.77998 166.337383 
L 374.846533 156.88863 
L 356.913086 147.162136 
L 338.979639 137.147583 
L 321.046192 126.835194 
L 303.112745 117.668682 
L 285.179298 109.179273 
L 267.245852 100.689864 
L 249.312405 92.200455 
L 231.378958 70.494303 
L 213.445511 66.732228 
L 195.512064 45.576883 
L 177.578617 32.578321 
L 159.64517 19.210746 
L 141.711723 5.467593 
L 123.778277 -8.657502 
L 105.84483 -23.170717 
L 87.911383 -38.078056 
L 69.977936 -53.385361 
L 52.044489 -69.098318 
z
" clip-path="url(#pa0db07bc16)" style="fill-opacity: 0.08"/>
    </g>
    <g id="patch_7">
     <path d="M 204.478787 143.136909 
L 204.478787 49.753409 
" style="fill: none; stroke: #666666; stroke-width: 0.6; stroke-linejoin: miter; stroke-linecap: square"/>
    </g>
    <g id="patch_8">
     <path d="M 347.946363 143.136909 
L 347.946363 49.753409 
" style="fill: none; stroke: #666666; stroke-width: 0.6; stroke-linejoin: miter; stroke-linecap: square"/>
    </g>
    <g id="patch_9">
     <path d="M 204.478787 143.136909 
L 347.946363 143.136909 
" style="fill: none; stroke: #666666; stroke-width: 0.6; stroke-linejoin: miter; stroke-linecap: square"/>
    </g>
    <g id="patch_10">
     <path d="M 204.478787 49.753409 
L 347.946363 49.753409 
" style="fill: none; stroke: #666666; stroke-width: 0.6; stroke-linejoin: miter; stroke-linecap: square"/>
    </g>
    <g id="line2d_63">
     <path d="M 213.445511 66.732228 
L 231.378958 58.242818 
L 249.312405 83.711046 
L 267.245852 92.200455 
L 285.179298 100.689864 
L 303.112745 109.179273 
L 321.046192 117.668682 
L 338.979639 134.6475 
L 356.913086 143.136909 
L 374.846533 151.626318 
L 392.77998 160.115728 
L 410.713427 168.605137 
L 422.664687 174.262674 
" clip-path="url(#pa0db07bc16)" style="fill: none; stroke: #d47020; stroke-width: 1.5; stroke-linecap: square"/>
     <defs>
      <path id="m93b919f28a" d="M 0 1.6 
C 0.424325 1.6 0.831328 1.431414 1.131371 1.131371 
C 1.431414 0.831328 1.6 0.424325 1.6 0 
C 1.6 -0.424325 1.431414 -0.831328 1.131371 -1.131371 
C 0.831328 -1.431414 0.424325 -1.6 0 -1.6 
C -0.424325 -1.6 -0.831328 -1.431414 -1.131371 -1.131371 
C -1.431414 -0.831328 -1.6 -0.424325 -1.6 0 
C -1.6 0.424325 -1.431414 0.831328 -1.131371 1.131371 
C -0.831328 1.431414 -0.424325 1.6 0 1.6 
z
" style="stroke: #d47020"/>
     </defs>
     <g clip-path="url(#pa0db07bc16)">
      <use xlink:href="#m93b919f28a" x="213.445511" y="66.732228" style="fill: #d47020; stroke: #d47020"/>
      <use xlink:href="#m93b919f28a" x="231.378958" y="58.242818" style="fill: #d47020; stroke: #d47020"/>
      <use xlink:href="#m93b919f28a" x="249.312405" y="83.711046" style="fill: #d47020; stroke: #d47020"/>
      <use xlink:href="#m93b919f28a" x="267.245852" y="92.200455" style="fill: #d47020; stroke: #d47020"/>
      <use xlink:href="#m93b919f28a" x="285.179298" y="100.689864" style="fill: #d47020; stroke: #d47020"/>
      <use xlink:href="#m93b919f28a" x="303.112745" y="109.179273" style="fill: #d47020; stroke: #d47020"/>
      <use xlink:href="#m93b919f28a" x="321.046192" y="117.668682" style="fill: #d47020; stroke: #d47020"/>
      <use xlink:href="#m93b919f28a" x="338.979639" y="134.6475" style="fill: #d47020; stroke: #d47020"/>
      <use xlink:href="#m93b919f28a" x="356.913086" y="143.136909" style="fill: #d47020; stroke: #d47020"/>
      <use xlink:href="#m93b919f28a" x="374.846533" y="151.626318" style="fill: #d47020; stroke: #d47020"/>
      <use xlink:href="#m93b919f28a" x="392.77998" y="160.115728" style="fill: #d47020; stroke: #d47020"/>
      <use xlink:href="#m93b919f28a" x="410.713427" y="168.605137" style="fill: #d47020; stroke: #d47020"/>
      <use xlink:href="#m93b919f28a" x="428.646873" y="177.094546" style="fill: #d47020; stroke: #d47020"/>
      <use xlink:href="#m93b919f28a" x="446.58032" y="185.583955" style="fill: #d47020; stroke: #d47020"/>
      <use xlink:href="#m93b919f28a" x="464.513767" y="194.073364" style="fill: #d47020; stroke: #d47020"/>
      <use xlink:href="#m93b919f28a" x="482.447214" y="202.562773" style="fill: #d47020; stroke: #d47020"/>
      <use xlink:href="#m93b919f28a" x="500.380661" y="211.052182" style="fill: #d47020; stroke: #d47020"/>
      <use xlink:href="#m93b919f28a" x="518.314108" y="219.541591" style="fill: #d47020; stroke: #d47020"/>
      <use xlink:href="#m93b919f28a" x="536.247555" y="228.031" style="fill: #d47020; stroke: #d47020"/>
      <use xlink:href="#m93b919f28a" x="554.181002" y="236.520409" style="fill: #d47020; stroke: #d47020"/>
      <use xlink:href="#m93b919f28a" x="572.114448" y="245.009818" style="fill: #d47020; stroke: #d47020"/>
      <use xlink:href="#m93b919f28a" x="590.047895" y="253.499228" style="fill: #d47020; stroke: #d47020"/>
      <use xlink:href="#m93b919f28a" x="607.981342" y="261.988637" style="fill: #d47020; stroke: #d47020"/>
      <use xlink:href="#m93b919f28a" x="625.914789" y="270.478046" style="fill: #d47020; stroke: #d47020"/>
     </g>
    </g>
    <g id="line2d_64">
     <path d="M 249.312405 92.200455 
L 267.245852 100.689864 
L 285.179298 109.179273 
L 303.112745 117.668682 
L 321.046192 126.158091 
L 338.979639 134.6475 
L 356.913086 143.136909 
L 374.846533 151.626318 
L 392.77998 160.115728 
L 410.713427 168.605137 
L 422.664687 174.262674 
" clip-path="url(#pa0db07bc16)" style="fill: none; stroke: #1f5faa; stroke-width: 1.5; stroke-linecap: square"/>
     <defs>
      <path id="ma53fa03fe6" d="M -1.6 1.6 
L 1.6 1.6 
L 1.6 -1.6 
L -1.6 -1.6 
z
" style="stroke: #1f5faa; stroke-linejoin: miter"/>
     </defs>
     <g clip-path="url(#pa0db07bc16)">
      <use xlink:href="#ma53fa03fe6" x="249.312405" y="92.200455" style="fill: #1f5faa; stroke: #1f5faa; stroke-linejoin: miter"/>
      <use xlink:href="#ma53fa03fe6" x="267.245852" y="100.689864" style="fill: #1f5faa; stroke: #1f5faa; stroke-linejoin: miter"/>
      <use xlink:href="#ma53fa03fe6" x="285.179298" y="109.179273" style="fill: #1f5faa; stroke: #1f5faa; stroke-linejoin: miter"/>
      <use xlink:href="#ma53fa03fe6" x="303.112745" y="117.668682" style="fill: #1f5faa; stroke: #1f5faa; stroke-linejoin: miter"/>
      <use xlink:href="#ma53fa03fe6" x="321.046192" y="126.158091" style="fill: #1f5faa; stroke: #1f5faa; stroke-linejoin: miter"/>
      <use xlink:href="#ma53fa03fe6" x="338.979639" y="134.6475" style="fill: #1f5faa; stroke: #1f5faa; stroke-linejoin: miter"/>
      <use xlink:href="#ma53fa03fe6" x="356.913086" y="143.136909" style="fill: #1f5faa; stroke: #1f5faa; stroke-linejoin: miter"/>
      <use xlink:href="#ma53fa03fe6" x="374.846533" y="151.626318" style="fill: #1f5faa; stroke: #1f5faa; stroke-linejoin: miter"/>
      <use xlink:href="#ma53fa03fe6" x="392.77998" y="160.115728" style="fill: #1f5faa; stroke: #1f5faa; stroke-linejoin: miter"/>
      <use xlink:href="#ma53fa03fe6" x="410.713427" y="168.605137" style="fill: #1f5faa; stroke: #1f5faa; stroke-linejoin: miter"/>
      <use xlink:href="#ma53fa03fe6" x="428.646873" y="177.094546" style="fill: #1f5faa; stroke: #1f5faa; stroke-linejoin: miter"/>
      <use xlink:href="#ma53fa03fe6" x="446.58032" y="185.583955" style="fill: #1f5faa; stroke: #1f5faa; stroke-linejoin: miter"/>
      <use xlink:href="#ma53fa03fe6" x="464.513767" y="194.073364" style="fill: #1f5faa; stroke: #1f5faa; stroke-linejoin: miter"/>
      <use xlink:href="#ma53fa03fe6" x="482.447214" y="202.562773" style="fill: #1f5faa; stroke: #1f5faa; stroke-linejoin: miter"/>
      <use xlink:href="#ma53fa03fe6" x="500.380661" y="211.052182" style="fill: #1f5faa; stroke: #1f5faa; stroke-linejoin: miter"/>
      <use xlink:href="#ma53fa03fe6" x="518.314108" y="219.541591" style="fill: #1f5faa; stroke: #1f5faa; stroke-linejoin: miter"/>
      <use xlink:href="#ma53fa03fe6" x="536.247555" y="228.031" style="fill: #1f5faa; stroke: #1f5faa; stroke-linejoin: miter"/>
      <use xlink:href="#ma53fa03fe6" x="554.181002" y="236.520409" style="fill: #1f5faa; stroke: #1f5faa; stroke-linejoin: miter"/>
      <use xlink:href="#ma53fa03fe6" x="572.114448" y="245.009818" style="fill: #1f5faa; stroke: #1f5faa; stroke-linejoin: miter"/>
      <use xlink:href="#ma53fa03fe6" x="590.047895" y="253.499228" style="fill: #1f5faa; stroke: #1f5faa; stroke-linejoin: miter"/>
      <use xlink:href="#ma53fa03fe6" x="607.981342" y="261.988637" style="fill: #1f5faa; stroke: #1f5faa; stroke-linejoin: miter"/>
      <use xlink:href="#ma53fa03fe6" x="625.914789" y="270.478046" style="fill: #1f5faa; stroke: #1f5faa; stroke-linejoin: miter"/>
     </g>
    </g>
    <g id="line2d_65">
     <path d="M 107.588352 -1 
L 123.778277 17.341313 
L 141.711723 36.80545 
L 159.64517 55.423381 
L 177.578617 73.20147 
L 195.512064 90.146281 
L 213.445511 106.26459 
L 231.378958 121.563405 
L 249.312405 136.04998 
L 267.245852 149.73184 
L 285.179298 162.616802 
L 303.112745 174.713002 
L 321.046192 186.028926 
L 338.979639 196.573447 
L 356.913086 206.355867 
L 374.846533 215.385964 
L 392.77998 223.674056 
L 410.713427 231.231066 
L 422.664687 235.787765 
" clip-path="url(#pa0db07bc16)" style="fill: none; stroke-dasharray: 1,1.65; stroke-dashoffset: 0; stroke: #000000"/>
    </g>
    <g id="line2d_66">
     <path clip-path="url(#pa0db07bc16)" style="fill: none; stroke: #000000; stroke-width: 1.4; stroke-linecap: square"/>
     <defs>
      <path id="m95a18c4fa2" d="M -0 2.262742 
L 2.262742 0 
L 0 -2.262742 
L -2.262742 -0 
z
" style="stroke: #000000; stroke-linejoin: miter"/>
     </defs>
     <g clip-path="url(#pa0db07bc16)"/>
    </g>
   </g>
   <g id="legend_1">
    <g id="patch_11">
     <path d="M 287.121484 82.887969 
L 412.154688 82.887969 
L 412.154688 25.488359 
L 287.121484 25.488359 
z
" style="fill: #ffffff; opacity: 0.95; stroke: #cccccc; stroke-linejoin: miter"/>
    </g>
    <g id="patch_12">
     <path d="M 290.121484 34.187187 
L 305.121484 34.187187 
L 305.121484 28.937187 
L 290.121484 28.937187 
z
" style="fill-opacity: 0.08"/>
    </g>
    <g id="text_37">
     <!-- exact-optimal (est. range) -->
     <g transform="translate(311.121484 34.187187) scale(0.075 -0.075)">
      <defs>
       <path id="DejaVuSerif-78" d="M 1863 2028 
L 2559 2988 
L 2113 2988 
L 2113 3322 
L 3391 3322 
L 3391 2988 
L 2950 2988 
L 2059 1759 
L 3097 331 
L 3531 331 
L 3531 0 
L 1997 0 
L 1997 331 
L 2419 331 
L 1697 1325 
L 972 331 
L 1403 331 
L 1403 0 
L 141 0 
L 141 331 
L 581 331 
L 1497 1594 
L 488 2988 
L 78 2988 
L 78 3322 
L 1563 3322 
L 1563 2988 
L 1166 2988 
L 1863 2028 
z
" transform="scale(0.015625)"/>
       <path id="DejaVuSerif-2d" d="M 281 1959 
L 1881 1959 
L 1881 1472 
L 281 1472 
L 281 1959 
z
" transform="scale(0.015625)"/>
       <path id="DejaVuSerif-28" d="M 2041 -997 
Q 1281 -656 893 83 
Q 506 822 506 1931 
Q 506 3044 893 3783 
Q 1281 4522 2041 4863 
L 2041 4556 
Q 1559 4225 1350 3623 
Q 1141 3022 1141 1931 
Q 1141 844 1350 242 
Q 1559 -359 2041 -691 
L 2041 -997 
z
" transform="scale(0.015625)"/>
       <path id="DejaVuSerif-29" d="M 453 -997 
L 453 -691 
Q 934 -359 1145 242 
Q 1356 844 1356 1931 
Q 1356 3022 1145 3623 
Q 934 4225 453 4556 
L 453 4863 
Q 1216 4522 1603 3783 
Q 1991 3044 1991 1931 
Q 1991 822 1603 83 
Q 1216 -656 453 -997 
z
" transform="scale(0.015625)"/>
      </defs>
      <use xlink:href="#DejaVuSerif-65"/>
      <use xlink:href="#DejaVuSerif-78" transform="translate(59.179688 0)"/>
      <use xlink:href="#DejaVuSerif-61" transform="translate(115.576172 0)"/>
      <use xlink:href="#DejaVuSerif-63" transform="translate(175.195312 0)"/>
      <use xlink:href="#DejaVuSerif-74" transform="translate(231.201172 0)"/>
      <use xlink:href="#DejaVuSerif-2d" transform="translate(271.386719 0)"/>
      <use xlink:href="#DejaVuSerif-6f" transform="translate(305.175781 0)"/>
      <use xlink:href="#DejaVuSerif-70" transform="translate(365.380859 0)"/>
      <use xlink:href="#DejaVuSerif-74" transform="translate(429.394531 0)"/>
      <use xlink:href="#DejaVuSerif-69" transform="translate(469.580078 0)"/>
      <use xlink:href="#DejaVuSerif-6d" transform="translate(501.5625 0)"/>
      <use xlink:href="#DejaVuSerif-61" transform="translate(596.386719 0)"/>
      <use xlink:href="#DejaVuSerif-6c" transform="translate(656.005859 0)"/>
      <use xlink:href="#DejaVuSerif-20" transform="translate(687.988281 0)"/>
      <use xlink:href="#DejaVuSerif-28" transform="translate(719.775391 0)"/>
      <use xlink:href="#DejaVuSerif-65" transform="translate(758.789062 0)"/>
      <use xlink:href="#DejaVuSerif-73" transform="translate(817.96875 0)"/>
      <use xlink:href="#DejaVuSerif-74" transform="translate(869.287109 0)"/>
      <use xlink:href="#DejaVuSerif-2e" transform="translate(909.472656 0)"/>
      <use xlink:href="#DejaVuSerif-20" transform="translate(941.259766 0)"/>
      <use xlink:href="#DejaVuSerif-72" transform="translate(973.046875 0)"/>
      <use xlink:href="#DejaVuSerif-61" transform="translate(1020.849609 0)"/>
      <use xlink:href="#DejaVuSerif-6e" transform="translate(1080.46875 0)"/>
      <use xlink:href="#DejaVuSerif-67" transform="translate(1144.873047 0)"/>
      <use xlink:href="#DejaVuSerif-65" transform="translate(1208.886719 0)"/>
      <use xlink:href="#DejaVuSerif-29" transform="translate(1268.066406 0)"/>
     </g>
    </g>
    <g id="line2d_67">
     <path d="M 290.121484 42.677422 
L 297.621484 42.677422 
L 305.121484 42.677422 
" style="fill: none; stroke-dasharray: 1,1.65; stroke-dashoffset: 0; stroke: #000000"/>
    </g>
    <g id="text_38">
     <!-- exact-optimal (estimated) -->
     <g transform="translate(311.121484 45.302422) scale(0.075 -0.075)">
      <use xlink:href="#DejaVuSerif-65"/>
      <use xlink:href="#DejaVuSerif-78" transform="translate(59.179688 0)"/>
      <use xlink:href="#DejaVuSerif-61" transform="translate(115.576172 0)"/>
      <use xlink:href="#DejaVuSerif-63" transform="translate(175.195312 0)"/>
      <use xlink:href="#DejaVuSerif-74" transform="translate(231.201172 0)"/>
      <use xlink:href="#DejaVuSerif-2d" transform="translate(271.386719 0)"/>
      <use xlink:href="#DejaVuSerif-6f" transform="translate(305.175781 0)"/>
      <use xlink:href="#DejaVuSerif-70" transform="translate(365.380859 0)"/>
      <use xlink:href="#DejaVuSerif-74" transform="translate(429.394531 0)"/>
      <use xlink:href="#DejaVuSerif-69" transform="translate(469.580078 0)"/>
      <use xlink:href="#DejaVuSerif-6d" transform="translate(501.5625 0)"/>
      <use xlink:href="#DejaVuSerif-61" transform="translate(596.386719 0)"/>
      <use xlink:href="#DejaVuSerif-6c" transform="translate(656.005859 0)"/>
      <use xlink:href="#DejaVuSerif-20" transform="translate(687.988281 0)"/>
      <use xlink:href="#DejaVuSerif-28" transform="translate(719.775391 0)"/>
      <use xlink:href="#DejaVuSerif-65" transform="translate(758.789062 0)"/>
      <use xlink:href="#DejaVuSerif-73" transform="translate(817.96875 0)"/>
      <use xlink:href="#DejaVuSerif-74" transform="translate(869.287109 0)"/>
      <use xlink:href="#DejaVuSerif-69" transform="translate(909.472656 0)"/>
      <use xlink:href="#DejaVuSerif-6d" transform="translate(941.455078 0)"/>
      <use xlink:href="#DejaVuSerif-61" transform="translate(1036.279297 0)"/>
      <use xlink:href="#DejaVuSerif-74" transform="translate(1095.898438 0)"/>
      <use xlink:href="#DejaVuSerif-65" transform="translate(1136.083984 0)"/>
      <use xlink:href="#DejaVuSerif-64" transform="translate(1195.263672 0)"/>
      <use xlink:href="#DejaVuSerif-29" transform="translate(1259.277344 0)"/>
     </g>
    </g>
    <g id="line2d_68">
     <path d="M 290.121484 53.686016 
L 297.621484 53.686016 
L 305.121484 53.686016 
" style="fill: none; stroke: #000000; stroke-width: 1.4; stroke-linecap: square"/>
     <g>
      <use xlink:href="#m95a18c4fa2" x="297.621484" y="53.686016" style="stroke: #000000; stroke-linejoin: miter"/>
     </g>
    </g>
    <g id="text_39">
     <!-- exact-optimal (certified) -->
     <g transform="translate(311.121484 56.311016) scale(0.075 -0.075)">
      <defs>
       <path id="DejaVuSerif-66" d="M 2753 4078 
L 2450 4078 
Q 2447 4313 2317 4434 
Q 2188 4556 1941 4556 
Q 1619 4556 1487 4379 
Q 1356 4203 1356 3750 
L 1356 3322 
L 2284 3322 
L 2284 2988 
L 1356 2988 
L 1356 331 
L 2094 331 
L 2094 0 
L 231 0 
L 231 331 
L 781 331 
L 781 2988 
L 231 2988 
L 231 3322 
L 781 3322 
L 781 3738 
Q 781 4294 1070 4578 
Q 1359 4863 1919 4863 
Q 2128 4863 2337 4825 
Q 2547 4788 2753 4709 
L 2753 4078 
z
" transform="scale(0.015625)"/>
      </defs>
      <use xlink:href="#DejaVuSerif-65"/>
      <use xlink:href="#DejaVuSerif-78" transform="translate(59.179688 0)"/>
      <use xlink:href="#DejaVuSerif-61" transform="translate(115.576172 0)"/>
      <use xlink:href="#DejaVuSerif-63" transform="translate(175.195312 0)"/>
      <use xlink:href="#DejaVuSerif-74" transform="translate(231.201172 0)"/>
      <use xlink:href="#DejaVuSerif-2d" transform="translate(271.386719 0)"/>
      <use xlink:href="#DejaVuSerif-6f" transform="translate(305.175781 0)"/>
      <use xlink:href="#DejaVuSerif-70" transform="translate(365.380859 0)"/>
      <use xlink:href="#DejaVuSerif-74" transform="translate(429.394531 0)"/>
      <use xlink:href="#DejaVuSerif-69" transform="translate(469.580078 0)"/>
      <use xlink:href="#DejaVuSerif-6d" transform="translate(501.5625 0)"/>
      <use xlink:href="#DejaVuSerif-61" transform="translate(596.386719 0)"/>
      <use xlink:href="#DejaVuSerif-6c" transform="translate(656.005859 0)"/>
      <use xlink:href="#DejaVuSerif-20" transform="translate(687.988281 0)"/>
      <use xlink:href="#DejaVuSerif-28" transform="translate(719.775391 0)"/>
      <use xlink:href="#DejaVuSerif-63" transform="translate(758.789062 0)"/>
      <use xlink:href="#DejaVuSerif-65" transform="translate(814.794922 0)"/>
      <use xlink:href="#DejaVuSerif-72" transform="translate(873.974609 0)"/>
      <use xlink:href="#DejaVuSerif-74" transform="translate(921.777344 0)"/>
      <use xlink:href="#DejaVuSerif-69" transform="translate(961.962891 0)"/>
      <use xlink:href="#DejaVuSerif-66" transform="translate(993.945312 0)"/>
      <use xlink:href="#DejaVuSerif-69" transform="translate(1030.957031 0)"/>
      <use xlink:href="#DejaVuSerif-65" transform="translate(1062.939453 0)"/>
      <use xlink:href="#DejaVuSerif-64" transform="translate(1122.119141 0)"/>
      <use xlink:href="#DejaVuSerif-29" transform="translate(1186.132812 0)"/>
     </g>
    </g>
    <g id="line2d_69">
     <path d="M 290.121484 64.694609 
L 297.621484 64.694609 
L 305.121484 64.694609 
" style="fill: none; stroke: #1f5faa; stroke-width: 1.5; stroke-linecap: square"/>
     <g>
      <use xlink:href="#ma53fa03fe6" x="297.621484" y="64.694609" style="fill: #1f5faa; stroke: #1f5faa; stroke-linejoin: miter"/>
     </g>
    </g>
    <g id="text_40">
     <!-- portfolio-best -->
     <g transform="translate(311.121484 67.319609) scale(0.075 -0.075)">
      <use xlink:href="#DejaVuSerif-70"/>
      <use xlink:href="#DejaVuSerif-6f" transform="translate(64.013672 0)"/>
      <use xlink:href="#DejaVuSerif-72" transform="translate(124.21875 0)"/>
      <use xlink:href="#DejaVuSerif-74" transform="translate(172.021484 0)"/>
      <use xlink:href="#DejaVuSerif-66" transform="translate(212.207031 0)"/>
      <use xlink:href="#DejaVuSerif-6f" transform="translate(249.21875 0)"/>
      <use xlink:href="#DejaVuSerif-6c" transform="translate(309.423828 0)"/>
      <use xlink:href="#DejaVuSerif-69" transform="translate(341.40625 0)"/>
      <use xlink:href="#DejaVuSerif-6f" transform="translate(373.388672 0)"/>
      <use xlink:href="#DejaVuSerif-2d" transform="translate(433.59375 0)"/>
      <use xlink:href="#DejaVuSerif-62" transform="translate(467.382812 0)"/>
      <use xlink:href="#DejaVuSerif-65" transform="translate(531.396484 0)"/>
      <use xlink:href="#DejaVuSerif-73" transform="translate(590.576172 0)"/>
      <use xlink:href="#DejaVuSerif-74" transform="translate(641.894531 0)"/>
     </g>
    </g>
    <g id="line2d_70">
     <path d="M 290.121484 75.703203 
L 297.621484 75.703203 
L 305.121484 75.703203 
" style="fill: none; stroke: #d47020; stroke-width: 1.5; stroke-linecap: square"/>
     <g>
      <use xlink:href="#m93b919f28a" x="297.621484" y="75.703203" style="fill: #d47020; stroke: #d47020"/>
     </g>
    </g>
    <g id="text_41">
     <!-- oldest-live -->
     <g transform="translate(311.121484 78.328203) scale(0.075 -0.075)">
      <use xlink:href="#DejaVuSerif-6f"/>
      <use xlink:href="#DejaVuSerif-6c" transform="translate(60.205078 0)"/>
      <use xlink:href="#DejaVuSerif-64" transform="translate(92.1875 0)"/>
      <use xlink:href="#DejaVuSerif-65" transform="translate(156.201172 0)"/>
      <use xlink:href="#DejaVuSerif-73" transform="translate(215.380859 0)"/>
      <use xlink:href="#DejaVuSerif-74" transform="translate(266.699219 0)"/>
      <use xlink:href="#DejaVuSerif-2d" transform="translate(306.884766 0)"/>
      <use xlink:href="#DejaVuSerif-6c" transform="translate(340.673828 0)"/>
      <use xlink:href="#DejaVuSerif-69" transform="translate(372.65625 0)"/>
      <use xlink:href="#DejaVuSerif-76" transform="translate(404.638672 0)"/>
      <use xlink:href="#DejaVuSerif-65" transform="translate(461.132812 0)"/>
     </g>
    </g>
   </g>
   <g id="line2d_71">
    <path d="M 166.562645 169.854634 
L 176.657465 166.865406 
L 186.752284 175.833091 
L 196.847104 178.82232 
L 206.941923 181.811548 
L 217.036743 184.800777 
L 227.131562 187.790006 
L 237.226382 193.768463 
L 247.321202 196.757691 
L 257.416021 199.74692 
L 267.510841 202.736148 
L 277.60566 205.725377 
L 287.70048 208.714605 
L 297.795299 211.703834 
L 307.890119 214.693062 
L 317.984938 217.682291 
L 328.079758 220.67152 
L 338.174577 223.660748 
L 348.269397 226.649977 
L 358.364216 229.639205 
L 368.459036 232.628434 
L 378.553855 235.617662 
L 388.648675 238.606891 
L 398.743494 241.596119 
" clip-path="url(#pd62a95ab34)" style="fill: none; stroke: #d47020; stroke-width: 1.5; stroke-linecap: square"/>
    <g clip-path="url(#pd62a95ab34)">
     <use xlink:href="#m93b919f28a" x="166.562645" y="169.854634" style="fill: #d47020; stroke: #d47020"/>
     <use xlink:href="#m93b919f28a" x="176.657465" y="166.865406" style="fill: #d47020; stroke: #d47020"/>
     <use xlink:href="#m93b919f28a" x="186.752284" y="175.833091" style="fill: #d47020; stroke: #d47020"/>
     <use xlink:href="#m93b919f28a" x="196.847104" y="178.82232" style="fill: #d47020; stroke: #d47020"/>
     <use xlink:href="#m93b919f28a" x="206.941923" y="181.811548" style="fill: #d47020; stroke: #d47020"/>
     <use xlink:href="#m93b919f28a" x="217.036743" y="184.800777" style="fill: #d47020; stroke: #d47020"/>
     <use xlink:href="#m93b919f28a" x="227.131562" y="187.790006" style="fill: #d47020; stroke: #d47020"/>
     <use xlink:href="#m93b919f28a" x="237.226382" y="193.768463" style="fill: #d47020; stroke: #d47020"/>
     <use xlink:href="#m93b919f28a" x="247.321202" y="196.757691" style="fill: #d47020; stroke: #d47020"/>
     <use xlink:href="#m93b919f28a" x="257.416021" y="199.74692" style="fill: #d47020; stroke: #d47020"/>
     <use xlink:href="#m93b919f28a" x="267.510841" y="202.736148" style="fill: #d47020; stroke: #d47020"/>
     <use xlink:href="#m93b919f28a" x="277.60566" y="205.725377" style="fill: #d47020; stroke: #d47020"/>
     <use xlink:href="#m93b919f28a" x="287.70048" y="208.714605" style="fill: #d47020; stroke: #d47020"/>
     <use xlink:href="#m93b919f28a" x="297.795299" y="211.703834" style="fill: #d47020; stroke: #d47020"/>
     <use xlink:href="#m93b919f28a" x="307.890119" y="214.693062" style="fill: #d47020; stroke: #d47020"/>
     <use xlink:href="#m93b919f28a" x="317.984938" y="217.682291" style="fill: #d47020; stroke: #d47020"/>
     <use xlink:href="#m93b919f28a" x="328.079758" y="220.67152" style="fill: #d47020; stroke: #d47020"/>
     <use xlink:href="#m93b919f28a" x="338.174577" y="223.660748" style="fill: #d47020; stroke: #d47020"/>
     <use xlink:href="#m93b919f28a" x="348.269397" y="226.649977" style="fill: #d47020; stroke: #d47020"/>
     <use xlink:href="#m93b919f28a" x="358.364216" y="229.639205" style="fill: #d47020; stroke: #d47020"/>
     <use xlink:href="#m93b919f28a" x="368.459036" y="232.628434" style="fill: #d47020; stroke: #d47020"/>
     <use xlink:href="#m93b919f28a" x="378.553855" y="235.617662" style="fill: #d47020; stroke: #d47020"/>
     <use xlink:href="#m93b919f28a" x="388.648675" y="238.606891" style="fill: #d47020; stroke: #d47020"/>
     <use xlink:href="#m93b919f28a" x="398.743494" y="241.596119" style="fill: #d47020; stroke: #d47020"/>
    </g>
   </g>
   <g id="line2d_72">
    <path d="M 186.752284 178.82232 
L 196.847104 181.811548 
L 206.941923 184.800777 
L 217.036743 187.790006 
L 227.131562 190.779234 
L 237.226382 193.768463 
L 247.321202 196.757691 
L 257.416021 199.74692 
L 267.510841 202.736148 
L 277.60566 205.725377 
L 287.70048 208.714605 
L 297.795299 211.703834 
L 307.890119 214.693062 
L 317.984938 217.682291 
L 328.079758 220.67152 
L 338.174577 223.660748 
L 348.269397 226.649977 
L 358.364216 229.639205 
L 368.459036 232.628434 
L 378.553855 235.617662 
L 388.648675 238.606891 
L 398.743494 241.596119 
" clip-path="url(#pd62a95ab34)" style="fill: none; stroke: #1f5faa; stroke-width: 1.5; stroke-linecap: square"/>
    <g clip-path="url(#pd62a95ab34)">
     <use xlink:href="#ma53fa03fe6" x="186.752284" y="178.82232" style="fill: #1f5faa; stroke: #1f5faa; stroke-linejoin: miter"/>
     <use xlink:href="#ma53fa03fe6" x="196.847104" y="181.811548" style="fill: #1f5faa; stroke: #1f5faa; stroke-linejoin: miter"/>
     <use xlink:href="#ma53fa03fe6" x="206.941923" y="184.800777" style="fill: #1f5faa; stroke: #1f5faa; stroke-linejoin: miter"/>
     <use xlink:href="#ma53fa03fe6" x="217.036743" y="187.790006" style="fill: #1f5faa; stroke: #1f5faa; stroke-linejoin: miter"/>
     <use xlink:href="#ma53fa03fe6" x="227.131562" y="190.779234" style="fill: #1f5faa; stroke: #1f5faa; stroke-linejoin: miter"/>
     <use xlink:href="#ma53fa03fe6" x="237.226382" y="193.768463" style="fill: #1f5faa; stroke: #1f5faa; stroke-linejoin: miter"/>
     <use xlink:href="#ma53fa03fe6" x="247.321202" y="196.757691" style="fill: #1f5faa; stroke: #1f5faa; stroke-linejoin: miter"/>
     <use xlink:href="#ma53fa03fe6" x="257.416021" y="199.74692" style="fill: #1f5faa; stroke: #1f5faa; stroke-linejoin: miter"/>
     <use xlink:href="#ma53fa03fe6" x="267.510841" y="202.736148" style="fill: #1f5faa; stroke: #1f5faa; stroke-linejoin: miter"/>
     <use xlink:href="#ma53fa03fe6" x="277.60566" y="205.725377" style="fill: #1f5faa; stroke: #1f5faa; stroke-linejoin: miter"/>
     <use xlink:href="#ma53fa03fe6" x="287.70048" y="208.714605" style="fill: #1f5faa; stroke: #1f5faa; stroke-linejoin: miter"/>
     <use xlink:href="#ma53fa03fe6" x="297.795299" y="211.703834" style="fill: #1f5faa; stroke: #1f5faa; stroke-linejoin: miter"/>
     <use xlink:href="#ma53fa03fe6" x="307.890119" y="214.693062" style="fill: #1f5faa; stroke: #1f5faa; stroke-linejoin: miter"/>
     <use xlink:href="#ma53fa03fe6" x="317.984938" y="217.682291" style="fill: #1f5faa; stroke: #1f5faa; stroke-linejoin: miter"/>
     <use xlink:href="#ma53fa03fe6" x="328.079758" y="220.67152" style="fill: #1f5faa; stroke: #1f5faa; stroke-linejoin: miter"/>
     <use xlink:href="#ma53fa03fe6" x="338.174577" y="223.660748" style="fill: #1f5faa; stroke: #1f5faa; stroke-linejoin: miter"/>
     <use xlink:href="#ma53fa03fe6" x="348.269397" y="226.649977" style="fill: #1f5faa; stroke: #1f5faa; stroke-linejoin: miter"/>
     <use xlink:href="#ma53fa03fe6" x="358.364216" y="229.639205" style="fill: #1f5faa; stroke: #1f5faa; stroke-linejoin: miter"/>
     <use xlink:href="#ma53fa03fe6" x="368.459036" y="232.628434" style="fill: #1f5faa; stroke: #1f5faa; stroke-linejoin: miter"/>
     <use xlink:href="#ma53fa03fe6" x="378.553855" y="235.617662" style="fill: #1f5faa; stroke: #1f5faa; stroke-linejoin: miter"/>
     <use xlink:href="#ma53fa03fe6" x="388.648675" y="238.606891" style="fill: #1f5faa; stroke: #1f5faa; stroke-linejoin: miter"/>
     <use xlink:href="#ma53fa03fe6" x="398.743494" y="241.596119" style="fill: #1f5faa; stroke: #1f5faa; stroke-linejoin: miter"/>
    </g>
   </g>
   <g id="line2d_73">
    <path d="M 75.70927 122.026977 
L 85.804089 130.093547 
L 95.898909 137.853808 
L 105.993728 145.309762 
L 116.088548 152.463467 
L 126.183367 159.317037 
L 136.278187 165.872646 
L 146.373006 172.132537 
L 156.467826 178.099019 
L 166.562645 183.77448 
L 176.657465 189.161387 
L 186.752284 194.262294 
L 196.847104 199.07985 
L 206.941923 203.616808 
L 217.036743 207.876034 
L 227.131562 211.860514 
L 237.226382 215.573373 
L 247.321202 219.017887 
L 257.416021 222.197499 
L 267.510841 225.115841 
L 277.60566 227.77676 
L 287.70048 230.184348 
L 297.795299 232.342979 
L 307.890119 234.25736 
L 317.984938 235.93259 
L 328.079758 237.37425 
L 338.174577 238.588507 
L 348.269397 239.582288 
L 358.364216 240.363522 
L 368.459036 240.94155 
L 378.553855 241.596119 
L 388.648675 244.585348 
L 398.743494 244.585348 
" clip-path="url(#pd62a95ab34)" style="fill: none; stroke-dasharray: 1,1.65; stroke-dashoffset: 0; stroke: #000000"/>
   </g>
   <g id="line2d_74">
    <path d="M 55.519631 32.350121 
L 65.61445 89.145463 
L 75.70927 122.026977 
" clip-path="url(#pd62a95ab34)" style="fill: none; stroke: #000000; stroke-width: 1.4; stroke-linecap: square"/>
    <g clip-path="url(#pd62a95ab34)">
     <use xlink:href="#m95a18c4fa2" x="55.519631" y="32.350121" style="stroke: #000000; stroke-linejoin: miter"/>
     <use xlink:href="#m95a18c4fa2" x="65.61445" y="89.145463" style="stroke: #000000; stroke-linejoin: miter"/>
     <use xlink:href="#m95a18c4fa2" x="75.70927" y="122.026977" style="stroke: #000000; stroke-linejoin: miter"/>
    </g>
   </g>
  </g>
 </g>
 <defs>
  <clipPath id="pd62a95ab34">
   <rect x="38.358438" y="21.738359" width="377.54625" height="233.45875"/>
  </clipPath>
  <clipPath id="pa0db07bc16">
   <rect x="204.478787" y="49.753409" width="143.467575" height="93.3835"/>
  </clipPath>
 </defs>
</svg>
